<?xml version="1.0" encoding="UTF-8"?>
<svg width="100px" height="48px" viewBox="0 0 100 48" version="1.1" xmlns="http://www.w3.org/2000/svg" xmlns:xlink="http://www.w3.org/1999/xlink">
    <!-- Generator: Sketch 52.6 (67491) - http://www.bohemiancoding.com/sketch -->
    <title>alert-icon</title>
    <desc>Created with Sketch.</desc>
    <g id="Profile" stroke="none" stroke-width="1" fill="none" fill-rule="evenodd">
        <g id="Profile-Delete-Account" transform="translate(-618.000000, -289.000000)">
            <g id="Group-29" transform="translate(408.000000, 209.000000)">
                <g id="illustrations/alert" transform="translate(210.000000, 80.000000)">
                    <g>
                        <ellipse id="Oval" fill="#E9EDF1" fill-rule="nonzero" cx="50" cy="43.5" rx="50" ry="4.5"></ellipse>
                        <g id="error" transform="translate(25.000000, 0.000000)">
                            <path d="M49.6811523,40.4551644 L27.0383789,1.18809778 C26.1324219,-0.382995556 23.8674805,-0.382995556 22.9615234,1.18809778 L0.318847656,40.4551644 C-0.587109375,42.0263556 0.5453125,43.9902222 2.35732422,43.9902222 L47.6427734,43.9902222 C49.4546875,43.9902222 50.5871094,42.0263556 49.6811523,40.4551644 Z" id="Path" fill="#F8FCFF"></path>
                            <path d="M49.6811523,40.4552622 L27.0383789,1.18809778 C26.1324219,-0.382995556 23.8674805,-0.382995556 22.9615234,1.18809778 L20.0931641,6.16244444 L39.8674805,40.4551644 C40.7734375,42.0262578 39.6410156,43.9902222 37.8290039,43.9902222 L47.6426758,43.9902222 C49.4546875,43.9902222 50.5871094,42.0263556 49.6811523,40.4552622 Z" id="Path" fill="#E1EFFB"></path>
                            <path d="M49.6811523,40.4551644 L27.0383789,1.18809778 C26.1324219,-0.382995556 23.8674805,-0.382995556 22.9615234,1.18809778 L0.318847656,40.4551644 C-0.587109375,42.0263556 0.5453125,43.9902222 2.35732422,43.9902222 L47.6427734,43.9902222 C49.4546875,43.9902222 50.5871094,42.0263556 49.6811523,40.4551644 Z M44.3727539,40.4001156 L5.62724609,40.4001156 C5.28076172,40.4001156 5.06416016,40.0245511 5.23740234,39.72408 L24.6101563,6.12763556 C24.7833984,5.82716444 25.2165039,5.82716444 25.3897461,6.12763556 L44.7625,39.72408 C44.9358398,40.0245511 44.7192383,40.4001156 44.3727539,40.4001156 Z" id="Shape" fill="#F33A3A" fill-rule="nonzero"></path>
                            <g id="Group" transform="translate(22.558594, 0.000000)" fill="#DD172F">
                                <path d="M27.1225586,40.4552622 L4.47978516,1.18809778 C3.57382813,-0.382995556 1.30888672,-0.382995556 0.402929687,1.18809778 L0.0487304687,1.80224 L2.41396484,5.90401778 C2.57441406,5.89443556 2.73925781,5.96835556 2.83115234,6.12763556 L22.2039063,39.72408 C22.2958008,39.88336 22.2773438,40.0632711 22.1887695,40.1976178 L22.3373047,40.4551644 C23.2432617,42.0262578 22.1108398,43.9902222 20.2988281,43.9902222 L25.0839844,43.9902222 C26.8960938,43.9902222 28.0285156,42.0263556 27.1225586,40.4552622 Z" id="Path"></path>
                                <path d="M4.38369141,35.8072 C4.38369141,36.8531289 3.50234375,37.7682311 2.45771484,37.7682311 C1.34785156,37.7682311 0.499121094,36.8531289 0.499121094,35.8072 C0.499121094,34.7286133 1.34785156,33.8461689 2.45771484,33.8461689 C3.50234375,33.8461689 4.38369141,34.7286133 4.38369141,35.8072 Z M3.73085938,30.3817067 C3.73085938,31.1007644 2.94736328,31.4276356 2.42509766,31.4276356 C1.70693359,31.4276356 1.08671875,31.1007644 1.08671875,30.3817067 C1.08671875,25.6425156 0.695019531,19.75952 0.695019531,15.0203289 C0.695019531,14.0071556 1.44580078,13.4514844 2.42509766,13.4514844 C3.37177734,13.4514844 4.15517578,14.0070578 4.15517578,15.0203289 C4.15517578,19.7594222 3.73085938,25.6425156 3.73085938,30.3817067 Z" id="Shape" fill-rule="nonzero"></path>
                            </g>
                        </g>
                    </g>
                </g>
            </g>
        </g>
    </g>
</svg>