<?xml version="1.0" encoding="UTF-8"?>
<svg width="15px" height="8px" viewBox="0 0 15 8" version="1.1" xmlns="http://www.w3.org/2000/svg" xmlns:xlink="http://www.w3.org/1999/xlink">
    <!-- Generator: Sketch 52.6 (67491) - http://www.bohemiancoding.com/sketch -->
    <title>arrow-up-white-icon</title>
    <desc>Created with Sketch.</desc>
    <g id="Page-1" stroke="none" stroke-width="1" fill="none" fill-rule="evenodd">
        <g id="arrow-up-white-icon" fill="#FFFFFF">
            <path d="M11.2827886,3.41469988 L5.22295218,-3.2603678 C5.08279556,-3.41487874 4.89569865,-3.5 4.69620242,-3.5 C4.49670619,-3.5 4.30960928,-3.41487874 4.16945267,-3.2603678 L3.72318779,-2.76890838 C3.4328001,-2.44866708 3.4328001,-1.92818351 3.72318779,-1.60843001 L8.81178087,3.99689027 L3.71754167,9.60843001 C3.57738505,9.76294095 3.5,9.96891489 3.5,10.1885472 C3.5,10.4084235 3.57738505,10.6143974 3.71754167,10.7690303 L4.16380655,11.2603678 C4.30407387,11.4148787 4.49106007,11.5 4.6905563,11.5 C4.89005253,11.5 5.07714944,11.4148787 5.21730606,11.2603678 L11.2827886,4.57920261 C11.4232773,4.42420387 11.5004409,4.21725433 11.4999981,3.99725612 C11.5004409,3.77640426 11.4232773,3.56957667 11.2827886,3.41469988 Z" id="Path" transform="translate(7.500000, 4.000000) scale(1, -1) rotate(90.000000) translate(-7.500000, -4.000000) "></path>
        </g>
    </g>
</svg>