<?xml version="1.0" encoding="UTF-8"?>
<svg width="943px" height="442px" viewBox="0 0 943 442" version="1.1" xmlns="http://www.w3.org/2000/svg" xmlns:xlink="http://www.w3.org/1999/xlink">
    <!-- Generator: Sketch 52.6 (67491) - http://www.bohemiancoding.com/sketch -->
    <title>bottom-illustration</title>
    <desc>Created with Sketch.</desc>
    <defs>
        <linearGradient x1="2.11346233%" y1="2.69824783%" x2="78.3272132%" y2="100%" id="linearGradient-1">
            <stop stop-color="#102B8F" offset="0%"></stop>
            <stop stop-color="#2C53EB" offset="100%"></stop>
        </linearGradient>
        <linearGradient x1="2.11346233%" y1="2.69824783%" x2="75.4705742%" y2="96.3529419%" id="linearGradient-2">
            <stop stop-color="#102B8F" offset="0%"></stop>
            <stop stop-color="#1B42D4" offset="100%"></stop>
        </linearGradient>
        <linearGradient x1="6.67626709%" y1="-23.9873289%" x2="81.5074955%" y2="93.0651429%" id="linearGradient-3">
            <stop stop-color="#4265EB" offset="0%"></stop>
            <stop stop-color="#2C50D7" offset="100%"></stop>
        </linearGradient>
        <linearGradient x1="6.67626709%" y1="-23.9873289%" x2="81.5074955%" y2="93.0651429%" id="linearGradient-4">
            <stop stop-color="#4B6BE7" offset="0%"></stop>
            <stop stop-color="#2C50D7" offset="100%"></stop>
        </linearGradient>
    </defs>
    <g id="Authentication" stroke="none" stroke-width="1" fill="none" fill-rule="evenodd" opacity="0.456705729">
        <g id="bottom-illustration" fill-rule="nonzero">
            <g id="Group">
                <g id="Group-2">
                    <path d="M339,80.5 C503.666667,65.1666667 607.833333,65.1666667 651.5,80.5 C717,103.5 808.5,228.474227 867.5,260.5 C906.833333,281.850515 931.833333,341.017182 942.5,438 L7,431.714286 C-1.29866714,332.636704 -1.29866714,256.398609 7,203 C15.2986671,149.601391 125.965334,108.768058 339,80.5 Z" id="Path" fill="url(#linearGradient-1)"></path>
                    <path d="M27.5,123 C287.166667,56.7770112 458.666667,34.7770112 542,57 C667,90.3344832 712,190.119048 806,253.119048 C868.666667,295.119048 890.666667,355.912698 872,435.5 L39,435.5 L27.5,123 Z" id="Path" fill="url(#linearGradient-2)" opacity="0.602911086"></path>
                    <g id="Group-5" transform="translate(848.000000, 175.000000)" fill="#2E51D8" stroke="#2E51D8" stroke-width="0.75">
                        <rect id="Rectangle" x="24.0535714" y="-0.375" width="5.89285714" height="17.9464286" rx="2.025"></rect>
                        <rect id="Rectangle-Copy-6" x="24.0535714" y="36.4285714" width="5.89285714" height="17.9464286" rx="2.025"></rect>
                        <path d="M44.8553571,18.0267857 L45.9482143,18.0267857 C47.2736977,18.0267857 48.3482143,19.1013023 48.3482143,20.4267857 L48.3482143,33.5732143 C48.3482143,34.8986977 47.2736977,35.9732143 45.9482143,35.9732143 L44.8553571,35.9732143 C43.5298737,35.9732143 42.4553571,34.8986977 42.4553571,33.5732143 L42.4553571,20.4267857 C42.4553571,19.1013023 43.5298737,18.0267857 44.8553571,18.0267857 Z" id="Rectangle-Copy-7" transform="translate(45.401786, 27.000000) rotate(-270.000000) translate(-45.401786, -27.000000) "></path>
                        <path d="M8.05178571,18.0267857 L9.14464286,18.0267857 C10.4701263,18.0267857 11.5446429,19.1013023 11.5446429,20.4267857 L11.5446429,33.5732143 C11.5446429,34.8986977 10.4701263,35.9732143 9.14464286,35.9732143 L8.05178571,35.9732143 C6.72630231,35.9732143 5.65178571,34.8986977 5.65178571,33.5732143 L5.65178571,20.4267857 C5.65178571,19.1013023 6.72630231,18.0267857 8.05178571,18.0267857 Z" id="Rectangle-Copy-8" transform="translate(8.598214, 27.000000) rotate(-270.000000) translate(-8.598214, -27.000000) "></path>
                    </g>
                    <g id="Group-8" transform="translate(744.000000, 89.000000)" fill="#4566E4" stroke="#4566E4" stroke-width="0.75">
                        <rect id="Rectangle" x="18.0178571" y="0.375" width="2.96428571" height="10.3928571" rx="1.48214286"></rect>
                        <rect id="Rectangle-Copy-6" x="18.0178571" y="28.2321429" width="2.96428571" height="10.3928571" rx="1.48214286"></rect>
                        <path d="M33.0714286,14.3035714 C32.4501082,14.3035714 31.9464286,14.8072511 31.9464286,15.4285714 L31.9464286,23.5714286 C31.9464286,24.1927489 32.4501082,24.6964286 33.0714286,24.6964286 L33.7857143,24.6964286 C34.4070346,24.6964286 34.9107143,24.1927489 34.9107143,23.5714286 L34.9107143,15.4285714 C34.9107143,14.8072511 34.4070346,14.3035714 33.7857143,14.3035714 L33.0714286,14.3035714 Z" id="Rectangle-Copy-7" transform="translate(33.428571, 19.500000) rotate(-270.000000) translate(-33.428571, -19.500000) "></path>
                        <path d="M5.21428571,14.3035714 C4.59296537,14.3035714 4.08928571,14.8072511 4.08928571,15.4285714 L4.08928571,23.5714286 C4.08928571,24.1927489 4.59296537,24.6964286 5.21428571,24.6964286 L5.92857143,24.6964286 C6.54989177,24.6964286 7.05357143,24.1927489 7.05357143,23.5714286 L7.05357143,15.4285714 C7.05357143,14.8072511 6.54989177,14.3035714 5.92857143,14.3035714 L5.21428571,14.3035714 Z" id="Rectangle-Copy-8" transform="translate(5.571429, 19.500000) rotate(-270.000000) translate(-5.571429, -19.500000) "></path>
                        <path d="M29.0090734,4.45034359 C28.9888071,4.45008255 28.9888071,4.45008255 28.9685404,4.45030833 C28.3473114,4.46096079 27.8523413,4.97320194 27.8629938,5.59443096 L28.0025861,13.735164 C28.0129681,14.3406238 28.5007349,14.8292399 29.1061757,14.8406754 L29.6889012,14.8516818 C29.7091675,14.8519428 29.7091675,14.8519428 29.7294342,14.851717 C30.3506632,14.8410646 30.8456333,14.3288234 30.8349809,13.7075944 L30.6953885,5.5668614 C30.6850065,4.96140162 30.1972397,4.47278545 29.5917989,4.46135 L29.0090734,4.45034359 Z" id="Rectangle" transform="translate(29.348987, 9.651013) rotate(-315.000000) translate(-29.348987, -9.651013) "></path>
                        <path d="M9.31109878,24.1483182 C9.29083251,24.1480572 9.29083251,24.1480572 9.27056581,24.148283 C8.64933679,24.1589354 8.15436669,24.6711766 8.16501915,25.2924056 L8.30461148,33.4331386 C8.31499353,34.0385984 8.80276032,34.5272146 9.40820113,34.53865 L9.9909266,34.5496564 C10.0111929,34.5499175 10.0111929,34.5499175 10.0314596,34.5496917 C10.6526886,34.5390392 11.1476587,34.0267981 11.1370062,33.405569 L10.9974139,25.264836 C10.9870319,24.6593762 10.4992651,24.1707601 9.89382425,24.1593246 L9.31109878,24.1483182 Z" id="Rectangle-Copy-6" transform="translate(9.651013, 29.348987) rotate(-315.000000) translate(-9.651013, -29.348987) "></path>
                        <path d="M29.1061715,24.159331 C28.5007307,24.1707663 28.0129638,24.6593824 28.0025817,25.2648422 L27.8629884,33.4055626 C27.8627626,33.4258293 27.8627626,33.4258293 27.8630237,33.4460956 C27.8747569,34.0673051 28.3878583,34.5613833 29.0090679,34.5496501 L29.5918032,34.5386436 C30.197244,34.5272083 30.6850108,34.0385922 30.695393,33.4331324 L30.8349862,25.292412 C30.835212,25.2721453 30.835212,25.2721453 30.8349509,25.251879 C30.8232177,24.6306695 30.3101163,24.1365913 29.6889067,24.1483245 L29.1061715,24.159331 Z" id="Rectangle-Copy-7" transform="translate(29.348987, 29.348987) rotate(-585.000000) translate(-29.348987, -29.348987) "></path>
                        <path d="M9.40819685,4.46135636 C8.80275604,4.47279172 8.31498918,4.96140782 8.30460704,5.56686761 L8.1650138,13.707588 C8.16478801,13.7278547 8.16478801,13.7278547 8.16504906,13.748121 C8.17678225,14.3693305 8.68988373,14.8634087 9.31109327,14.8516755 L9.89382853,14.840669 C10.4992693,14.8292337 10.9870362,14.3406176 10.9974183,13.7351578 L11.1370116,5.59443737 C11.1372374,5.57417068 11.1372374,5.57417068 11.1369763,5.5539044 C11.1252431,4.93269486 10.6121417,4.43861665 9.99093211,4.45034985 L9.40819685,4.46135636 Z" id="Rectangle-Copy-8" transform="translate(9.651013, 9.651013) rotate(-585.000000) translate(-9.651013, -9.651013) "></path>
                    </g>
                    <g id="Group-8-Copy" opacity="0.606073289" transform="translate(375.000000, 0.000000)" fill="#4566E4" stroke="#4566E4" stroke-width="0.75">
                        <rect id="Rectangle" x="20.2232143" y="0.375" width="3.42857143" height="11.7857143" rx="1.71428571"></rect>
                        <path d="M5.90357143,16.0446429 C5.15798702,16.0446429 4.55357143,16.6490584 4.55357143,17.3946429 L4.55357143,26.4803571 C4.55357143,27.2259416 5.15798702,27.8303571 5.90357143,27.8303571 L6.63214286,27.8303571 C7.37772727,27.8303571 7.98214286,27.2259416 7.98214286,26.4803571 L7.98214286,17.3946429 C7.98214286,16.6490584 7.37772727,16.0446429 6.63214286,16.0446429 L5.90357143,16.0446429 Z" id="Rectangle-Copy-8" transform="translate(6.267857, 21.937500) rotate(-270.000000) translate(-6.267857, -21.937500) "></path>
                        <path d="M32.674965,4.9605035 C32.6506454,4.9601902 32.6506454,4.9601902 32.6263252,4.96046109 C31.8808504,4.97324263 31.2868851,5.58793088 31.2996666,6.33340572 L31.4554041,15.4166924 C31.4678612,16.1432441 32.0531801,16.7295846 32.779709,16.7433086 L33.3602565,16.7542751 C33.3845761,16.7545884 33.3845761,16.7545884 33.4088962,16.7543175 C34.154371,16.7415359 34.7483363,16.1268477 34.7355548,15.3813728 L34.5798174,6.29808614 C34.5673603,5.57153445 33.9820413,4.98519396 33.2555125,4.97146995 L32.674965,4.9605035 Z" id="Rectangle" transform="translate(33.017611, 10.857389) rotate(-315.000000) translate(-33.017611, -10.857389) "></path>
                        <path d="M10.5147435,27.1207249 C10.4904239,27.1204116 10.4904239,27.1204116 10.4661038,27.1206825 C9.72062895,27.1334641 9.12666366,27.7481523 9.1394452,28.4936272 L9.29518264,37.5769139 C9.30763973,38.3034656 9.89295866,38.889806 10.6194875,38.9035301 L11.200035,38.9144965 C11.2243546,38.9148098 11.2243546,38.9148098 11.2486748,38.9145389 C11.9941496,38.9017574 12.5881149,38.2870691 12.5753334,37.5415943 L12.4195959,28.4583076 C12.4071388,27.7317559 11.8218199,27.1454154 11.095291,27.1316914 L10.5147435,27.1207249 Z" id="Rectangle-Copy-6" transform="translate(10.857389, 33.017611) rotate(-315.000000) translate(-10.857389, -33.017611) "></path>
                        <path d="M10.6194827,4.97147711 C9.89295385,4.98520102 9.30763484,5.57154142 9.29517765,6.29809312 L9.13943919,15.3813656 C9.13916829,15.4056857 9.13916829,15.4056857 9.13948159,15.4300054 C9.15356294,16.1754568 9.76928592,16.7683494 10.5147373,16.754268 L11.0952958,16.7433014 C11.8218247,16.7295775 12.4071437,16.1432371 12.4196009,15.4166854 L12.5753394,6.33341295 C12.5756103,6.30909282 12.5756103,6.30909282 12.575297,6.2847732 C12.5612156,5.53932177 11.9454926,4.94642918 11.2000412,4.96051054 L10.6194827,4.97147711 Z" id="Rectangle-Copy-8" transform="translate(10.857389, 10.857389) rotate(-585.000000) translate(-10.857389, -10.857389) "></path>
                    </g>
                    <g id="1" transform="translate(507.448980, 86.500000) rotate(-1.000000) translate(-507.448980, -86.500000) translate(401.448980, 34.000000)">
                        <path d="M188.634639,95.4523341 L179.659495,104.581075 C179.326264,104.920009 178.781366,104.924632 178.442431,104.5914 C178.43896,104.587988 178.435518,104.584546 178.432106,104.581075 L169.456961,95.4523341 L14.4368888,95.4523341 C9.36691485,95.4523341 5.25688885,91.3423081 5.25688885,86.2723341 L5.25688885,9.18 C5.25688885,4.110026 9.36691485,-1.44147041e-12 14.4368888,-1.44240175e-12 L202.553464,-1.44240175e-12 C207.623438,-1.44333309e-12 211.733464,4.110026 211.733464,9.18 L211.733464,86.2723341 C211.733464,91.3423081 207.623438,95.4523341 202.553464,95.4523341 L188.634639,95.4523341 Z" id="Combined-Shape-Copy" fill="#173BC7"></path>
                        <path d="M183.672136,95.4523341 L174.696992,104.581075 C174.363761,104.920009 173.818863,104.924632 173.479928,104.5914 C173.476457,104.587988 173.473015,104.584546 173.469603,104.581075 L164.494458,95.4523341 L11.475,95.4523341 C5.1375325,95.4523341 -4.15989018e-12,90.3148016 -4.1691095e-12,83.9773341 L-4.16555679e-12,11.475 C-4.1663329e-12,5.1375325 5.1375325,-1.40393409e-12 11.475,-1.40509826e-12 L195.793077,-1.40865097e-12 C202.130544,-1.40981515e-12 207.268077,5.1375325 207.268077,11.475 L207.268077,83.9773341 C207.268077,90.3148016 202.130544,95.4523341 195.793077,95.4523341 L183.672136,95.4523341 Z" id="Combined-Shape" fill="url(#linearGradient-3)"></path>
                        <rect id="Rectangle-Copy-4" fill="#1B41D1" x="130.679248" y="56.0364556" width="59.9285329" height="24.5677376" rx="4.303125"></rect>
                        <rect id="Rectangle" fill="#4E6FEE" x="125.716745" y="56.0364556" width="59.9285329" height="24.5677376" rx="4.303125"></rect>
                        <rect id="Rectangle" fill="#264BD9" x="19.0526226" y="14.8481409" width="157.131384" height="11.6663964" rx="4.7334375"></rect>
                        <rect id="Rectangle-Copy" fill="#264BD9" x="19.2804659" y="38.1809336" width="122.511864" height="8.48465192" rx="4.24232596"></rect>
                        <rect id="Rectangle" fill="#5877EF" x="15.7706665" y="14.8481409" width="157.131384" height="11.6663964" rx="4.7334375"></rect>
                        <rect id="Rectangle-Copy" fill="#5877EF" x="15.7706665" y="38.1809336" width="122.511864" height="8.48465192" rx="4.24232596"></rect>
                    </g>
                    <g id="2" transform="translate(376.000000, 286.696629) rotate(-4.000000) translate(-376.000000, -286.696629) translate(249.000000, 212.196629)">
                        <path d="M56.9048122,136.715583 L45.7712597,147.961696 C45.3778476,148.359086 44.7367762,148.36231 44.3393866,147.968898 C44.336974,147.96651 44.3345733,147.964109 44.3321848,147.961696 L33.1986324,136.715583 L17.0031288,136.715583 C11.0384535,136.715583 6.20312884,131.880258 6.20312884,125.915583 L6.20312884,10.8 C6.20312884,4.8353247 11.0384535,-6.64058668e-14 17.0031288,-6.75015599e-14 L242.287657,-6.21724894e-14 C248.252332,-6.32681825e-14 253.087657,4.8353247 253.087657,10.8 L253.087657,125.915583 C253.087657,131.880258 248.252332,136.715583 242.287657,136.715583 L56.9048122,136.715583 Z" id="Combined-Shape" fill="#173BC7"></path>
                        <path d="M50.7016834,136.715583 L39.5681309,147.961696 C39.1747188,148.359086 38.5336473,148.36231 38.1362578,147.968898 C38.1338451,147.96651 38.1314445,147.964109 38.129056,147.961696 L26.9955035,136.715583 L13.5,136.715583 C6.04415588,136.715583 9.13077564e-16,130.671427 0,123.215583 L0,13.5 C-9.13077564e-16,6.04415588 6.04415588,-6.79083004e-14 13.5,-6.92779167e-14 L233.384528,-6.92779167e-14 C240.840372,-8.38917728e-14 246.884528,6.04415588 246.884528,13.5 L246.884528,123.215583 C246.884528,130.671427 240.840372,136.715583 233.384528,136.715583 L50.7016834,136.715583 Z" id="Combined-Shape" fill="url(#linearGradient-4)"></path>
                        <rect id="Rectangle-Copy-3" fill="#1B41D1" x="165.416769" y="89.4865632" width="70.7156688" height="32.3145923" rx="5.0625"></rect>
                        <rect id="Rectangle" fill="#4E6FEE" x="160.454266" y="89.4865632" width="70.7156688" height="32.3145923" rx="5.0625"></rect>
                        <rect id="Rectangle" fill="#264BD9" x="23.5718896" y="33.5574612" width="203.462626" height="13.6715583" rx="5.56875"></rect>
                        <rect id="Rectangle-Copy" fill="#264BD9" x="23.5718896" y="60.9005777" width="151.356344" height="9.94295147" rx="4.97147573"></rect>
                        <rect id="Rectangle" fill="#5877EF" x="18.6093865" y="33.5574612" width="203.462626" height="13.6715583" rx="5.56875"></rect>
                        <rect id="Rectangle-Copy" fill="#5877EF" x="18.6093865" y="60.9005777" width="151.356344" height="9.94295147" rx="4.97147573"></rect>
                    </g>
                    <g id="3" transform="translate(670.061224, 249.769663) rotate(3.000000) translate(-670.061224, -249.769663) translate(552.061224, 166.269663)">
                        <path d="M138.485075,148.26315 L138.566082,148.3449 L120.671269,166.403973 C120.277673,166.801182 119.636601,166.80411 119.239392,166.410515 C119.237202,166.408345 119.235021,166.406164 119.232851,166.403973 L101.338038,148.3449 L101.419045,148.26315 L17.0248942,148.26315 C11.0602189,148.26315 6.22489421,143.427825 6.22489421,137.46315 L6.22489421,10.8 C6.22489421,4.8353247 11.0602189,-7.34316038e-13 17.0248942,-7.35411732e-13 L224.620738,-7.38964445e-13 C230.585413,-7.40060138e-13 235.420738,4.8353247 235.420738,10.8 L235.420738,137.46315 C235.420738,143.427825 230.585413,148.26315 224.620738,148.26315 L138.485075,148.26315 Z" id="Combined-Shape-Copy-2" fill="#173BC7"></path>
                        <path d="M132.0425,148.26315 L115.708766,164.746815 C115.31517,165.144023 114.674098,165.146952 114.276889,164.753357 C114.274699,164.751186 114.272518,164.749005 114.270348,164.746815 L97.9366134,148.26315 L13.5,148.26315 C6.04415588,148.26315 -5.22868146e-12,142.218994 -5.22959454e-12,134.76315 L-5.22959454e-12,13.5 C-5.23050761e-12,6.04415588 6.04415588,-7.37594829e-13 13.5,-7.38964445e-13 L215.695844,-7.38964445e-13 C223.151688,-7.40334062e-13 229.195844,6.04415588 229.195844,13.5 L229.195844,134.76315 C229.195844,142.218994 223.151688,148.26315 215.695844,148.26315 L132.0425,148.26315 Z" id="Combined-Shape" fill="url(#linearGradient-4)"></path>
                        <rect id="Rectangle-Copy-5" fill="#1B41D1" x="143.912589" y="101.086673" width="70.963794" height="32.3980925" rx="5.0625"></rect>
                        <rect id="Rectangle" fill="#4E6FEE" x="138.950086" y="101.086673" width="70.963794" height="32.3980925" rx="5.0625"></rect>
                        <rect id="Rectangle" fill="#264BD9" x="23.6371857" y="23.6755291" width="161.847249" height="13.7068853" rx="5.56875"></rect>
                        <rect id="Rectangle-Copy" fill="#264BD9" x="23.6371857" y="51.0892997" width="184.256869" height="9.96864385" rx="4.98432192"></rect>
                        <rect id="Rectangle-Copy-2" fill="#264BD9" x="23.6371857" y="74.7648288" width="126.987842" height="9.96864385" rx="4.98432192"></rect>
                        <rect id="Rectangle" fill="#5877EF" x="18.6746826" y="23.6755291" width="161.847249" height="13.7068853" rx="5.56875"></rect>
                        <rect id="Rectangle-Copy" fill="#5877EF" x="18.6746826" y="51.0892997" width="184.256869" height="9.96864385" rx="4.98432192"></rect>
                        <rect id="Rectangle-Copy-2" fill="#5877EF" x="18.6746826" y="74.7648288" width="126.987842" height="9.96864385" rx="4.98432192"></rect>
                    </g>
                </g>
                <circle id="Oval-Copy-3" stroke="#1B40CD" stroke-width="6" fill="#1C41CE" cx="250" cy="162" r="9"></circle>
                <circle id="Oval-Copy-4" fill="#1C41CE" cx="894" cy="330" r="9"></circle>
                <ellipse id="shadow2" fill="#173BC7" cx="671" cy="393" rx="112" ry="9"></ellipse>
                <ellipse id="shadow1" fill="#173BC7" cx="375" cy="411" rx="112" ry="9"></ellipse>
                <circle id="Oval-Copy-5" stroke="#4566E4" stroke-width="6" fill="#4566E4" opacity="0.798107329" cx="423" cy="175" r="9"></circle>
                <circle id="Oval-Copy-6" stroke="#3154D7" stroke-width="6" fill="#3152D1" opacity="0.798107329" cx="567.5" cy="345.5" r="6.5"></circle>
                <circle id="Oval-Copy-7" stroke="#3154D7" stroke-width="6" fill="#3152D1" opacity="0.798107329" cx="588.5" cy="351.5" r="2.5"></circle>
                <g id="Group-5-Copy" transform="translate(154.000000, 354.000000)" fill="#2E51D8" stroke="#2E51D8" stroke-width="1.5">
                    <rect id="Rectangle" x="17.6428571" y="0" width="3.71428571" height="14.8571429" rx="1.5"></rect>
                    <rect id="Rectangle-Copy-6" x="17.6428571" y="24.1428571" width="3.71428571" height="14.8571429" rx="1.5"></rect>
                    <path d="M31.2142857,12.0714286 L31.9285714,12.0714286 C32.7569986,12.0714286 33.4285714,12.7430014 33.4285714,13.5714286 L33.4285714,25.4285714 C33.4285714,26.2569986 32.7569986,26.9285714 31.9285714,26.9285714 L31.2142857,26.9285714 C30.3858586,26.9285714 29.7142857,26.2569986 29.7142857,25.4285714 L29.7142857,13.5714286 C29.7142857,12.7430014 30.3858586,12.0714286 31.2142857,12.0714286 Z" id="Rectangle-Copy-7" transform="translate(31.571429, 19.500000) rotate(-270.000000) translate(-31.571429, -19.500000) "></path>
                    <path d="M7.07142857,12.0714286 L7.78571429,12.0714286 C8.61414141,12.0714286 9.28571429,12.7430014 9.28571429,13.5714286 L9.28571429,25.4285714 C9.28571429,26.2569986 8.61414141,26.9285714 7.78571429,26.9285714 L7.07142857,26.9285714 C6.24300145,26.9285714 5.57142857,26.2569986 5.57142857,25.4285714 L5.57142857,13.5714286 C5.57142857,12.7430014 6.24300145,12.0714286 7.07142857,12.0714286 Z" id="Rectangle-Copy-8" transform="translate(7.428571, 19.500000) rotate(-270.000000) translate(-7.428571, -19.500000) "></path>
                </g>
                <g id="Group-5-Copy-2" transform="translate(903.000000, 402.000000)" fill="#2E51D8" stroke="#2E51D8" stroke-width="1.5">
                    <rect id="Rectangle" x="17.6428571" y="0" width="3.71428571" height="9.28571429" rx="1.5"></rect>
                    <rect id="Rectangle-Copy-6" x="17.6428571" y="29.7142857" width="3.71428571" height="9.28571429" rx="1.5"></rect>
                    <path d="M34,14.8571429 L34.7142857,14.8571429 C35.5427128,14.8571429 36.2142857,15.5287157 36.2142857,16.3571429 L36.2142857,22.6428571 C36.2142857,23.4712843 35.5427128,24.1428571 34.7142857,24.1428571 L34,24.1428571 C33.1715729,24.1428571 32.5,23.4712843 32.5,22.6428571 L32.5,16.3571429 C32.5,15.5287157 33.1715729,14.8571429 34,14.8571429 Z" id="Rectangle-Copy-7" transform="translate(34.357143, 19.500000) rotate(-270.000000) translate(-34.357143, -19.500000) "></path>
                    <path d="M4.28571429,14.8571429 L5,14.8571429 C5.82842712,14.8571429 6.5,15.5287157 6.5,16.3571429 L6.5,22.6428571 C6.5,23.4712843 5.82842712,24.1428571 5,24.1428571 L4.28571429,24.1428571 C3.45728716,24.1428571 2.78571429,23.4712843 2.78571429,22.6428571 L2.78571429,16.3571429 C2.78571429,15.5287157 3.45728716,14.8571429 4.28571429,14.8571429 Z" id="Rectangle-Copy-8" transform="translate(4.642857, 19.500000) rotate(-270.000000) translate(-4.642857, -19.500000) "></path>
                </g>
            </g>
        </g>
    </g>
</svg>