<?xml version="1.0" encoding="UTF-8"?>
<svg width="293px" height="260px" viewBox="0 0 293 260" version="1.1" xmlns="http://www.w3.org/2000/svg" xmlns:xlink="http://www.w3.org/1999/xlink">
    <!-- Generator: Sketch 52.6 (67491) - http://www.bohemiancoding.com/sketch -->
    <title>Group 4</title>
    <desc>Created with Sketch.</desc>
    <defs>
        <linearGradient x1="6.67626709%" y1="-23.9873289%" x2="84.183352%" y2="97.25077%" id="linearGradient-1">
            <stop stop-color="#000929" offset="0%"></stop>
            <stop stop-color="#173DCB" offset="100%"></stop>
        </linearGradient>
    </defs>
    <g id="Authentication" stroke="none" stroke-width="1" fill="none" fill-rule="evenodd">
        <g id="top-shape" transform="translate(-23.000000, 0.000000)" fill-rule="nonzero">
            <g id="Group-4" transform="translate(-65.000000, -301.000000)">
                <path d="M39.1658089,87.526355 C203.832476,72.1930217 307.999142,72.1930217 351.665809,87.526355 C417.165809,110.526355 508.665809,235.500582 567.665809,267.526355 C606.999142,288.87687 631.999142,348.043537 642.665809,445.026355 L62.1658089,445.026355 L39.1658089,87.526355 Z" id="Path-Copy" fill="url(#linearGradient-1)" opacity="0.458310082" transform="translate(340.915809, 260.526355) rotate(-196.000000) translate(-340.915809, -260.526355) "></path>
                <g id="Group-8" opacity="0.299200149" transform="translate(190.000000, 522.000000)" fill="#4566E4" stroke="#4566E4" stroke-width="0.75">
                    <rect id="Rectangle" x="18.0178571" y="0.375" width="2.96428571" height="10.3928571" rx="1.48214286"></rect>
                    <rect id="Rectangle-Copy-6" x="18.0178571" y="28.2321429" width="2.96428571" height="10.3928571" rx="1.48214286"></rect>
                    <path d="M33.0714286,14.3035714 C32.4501082,14.3035714 31.9464286,14.8072511 31.9464286,15.4285714 L31.9464286,23.5714286 C31.9464286,24.1927489 32.4501082,24.6964286 33.0714286,24.6964286 L33.7857143,24.6964286 C34.4070346,24.6964286 34.9107143,24.1927489 34.9107143,23.5714286 L34.9107143,15.4285714 C34.9107143,14.8072511 34.4070346,14.3035714 33.7857143,14.3035714 L33.0714286,14.3035714 Z" id="Rectangle-Copy-7" transform="translate(33.428571, 19.500000) rotate(-270.000000) translate(-33.428571, -19.500000) "></path>
                    <path d="M5.21428571,14.3035714 C4.59296537,14.3035714 4.08928571,14.8072511 4.08928571,15.4285714 L4.08928571,23.5714286 C4.08928571,24.1927489 4.59296537,24.6964286 5.21428571,24.6964286 L5.92857143,24.6964286 C6.54989177,24.6964286 7.05357143,24.1927489 7.05357143,23.5714286 L7.05357143,15.4285714 C7.05357143,14.8072511 6.54989177,14.3035714 5.92857143,14.3035714 L5.21428571,14.3035714 Z" id="Rectangle-Copy-8" transform="translate(5.571429, 19.500000) rotate(-270.000000) translate(-5.571429, -19.500000) "></path>
                    <path d="M29.0090734,4.45034359 C28.9888071,4.45008255 28.9888071,4.45008255 28.9685404,4.45030833 C28.3473114,4.46096079 27.8523413,4.97320194 27.8629938,5.59443096 L28.0025861,13.735164 C28.0129681,14.3406238 28.5007349,14.8292399 29.1061757,14.8406754 L29.6889012,14.8516818 C29.7091675,14.8519428 29.7091675,14.8519428 29.7294342,14.851717 C30.3506632,14.8410646 30.8456333,14.3288234 30.8349809,13.7075944 L30.6953885,5.5668614 C30.6850065,4.96140162 30.1972397,4.47278545 29.5917989,4.46135 L29.0090734,4.45034359 Z" id="Rectangle" transform="translate(29.348987, 9.651013) rotate(-315.000000) translate(-29.348987, -9.651013) "></path>
                    <path d="M9.31109878,24.1483182 C9.29083251,24.1480572 9.29083251,24.1480572 9.27056581,24.148283 C8.64933679,24.1589354 8.15436669,24.6711766 8.16501915,25.2924056 L8.30461148,33.4331386 C8.31499353,34.0385984 8.80276032,34.5272146 9.40820113,34.53865 L9.9909266,34.5496564 C10.0111929,34.5499175 10.0111929,34.5499175 10.0314596,34.5496917 C10.6526886,34.5390392 11.1476587,34.0267981 11.1370062,33.405569 L10.9974139,25.264836 C10.9870319,24.6593762 10.4992651,24.1707601 9.89382425,24.1593246 L9.31109878,24.1483182 Z" id="Rectangle-Copy-6" transform="translate(9.651013, 29.348987) rotate(-315.000000) translate(-9.651013, -29.348987) "></path>
                    <path d="M29.1061715,24.159331 C28.5007307,24.1707663 28.0129638,24.6593824 28.0025817,25.2648422 L27.8629884,33.4055626 C27.8627626,33.4258293 27.8627626,33.4258293 27.8630237,33.4460956 C27.8747569,34.0673051 28.3878583,34.5613833 29.0090679,34.5496501 L29.5918032,34.5386436 C30.197244,34.5272083 30.6850108,34.0385922 30.695393,33.4331324 L30.8349862,25.292412 C30.835212,25.2721453 30.835212,25.2721453 30.8349509,25.251879 C30.8232177,24.6306695 30.3101163,24.1365913 29.6889067,24.1483245 L29.1061715,24.159331 Z" id="Rectangle-Copy-7" transform="translate(29.348987, 29.348987) rotate(-585.000000) translate(-29.348987, -29.348987) "></path>
                    <path d="M9.40819685,4.46135636 C8.80275604,4.47279172 8.31498918,4.96140782 8.30460704,5.56686761 L8.1650138,13.707588 C8.16478801,13.7278547 8.16478801,13.7278547 8.16504906,13.748121 C8.17678225,14.3693305 8.68988373,14.8634087 9.31109327,14.8516755 L9.89382853,14.840669 C10.4992693,14.8292337 10.9870362,14.3406176 10.9974183,13.7351578 L11.1370116,5.59443737 C11.1372374,5.57417068 11.1372374,5.57417068 11.1369763,5.5539044 C11.1252431,4.93269486 10.6121417,4.43861665 9.99093211,4.45034985 L9.40819685,4.46135636 Z" id="Rectangle-Copy-8" transform="translate(9.651013, 9.651013) rotate(-585.000000) translate(-9.651013, -9.651013) "></path>
                </g>
            </g>
        </g>
    </g>
</svg>