<?xml version="1.0" encoding="UTF-8"?>
<svg width="18px" height="15px" viewBox="0 0 18 15" version="1.1" xmlns="http://www.w3.org/2000/svg" xmlns:xlink="http://www.w3.org/1999/xlink">
    <!-- Generator: Sketch 52.6 (67491) - http://www.bohemiancoding.com/sketch -->
    <title>back-icon-light</title>
    <desc>Created with Sketch.</desc>
    <g id="Editor" stroke="none" stroke-width="1" fill="none" fill-rule="evenodd">
        <g id="Flows-More-Button" transform="translate(-20.000000, -106.000000)" fill="#B0C1FF">
            <g id="navbar/selected-flow">
                <g id="Page-details" transform="translate(20.000000, 100.000000)">
                    <g id="icons/back" transform="translate(9.000000, 13.500000) scale(-1, 1) translate(-9.000000, -13.500000) translate(0.000000, 6.000000)">
                        <path d="M17.6868476,6.82072581 L11.1440967,0.369112903 C10.7449071,-0.024516129 10.0975019,-0.024516129 9.69831227,0.369112903 C9.29904089,0.762822581 9.29904089,1.40104839 9.69831227,1.79475806 L14.4958662,6.52548387 L1.92559501,6.52548387 C1.36103739,6.52548387 0.903290179,6.97685484 0.903290179,7.53354839 C0.903290179,8.09016129 1.36103739,8.5416129 1.92559501,8.5416129 L14.4958662,8.5416129 L9.69847584,13.2723387 C9.29920446,13.6660484 9.29920446,14.3042742 9.69847584,14.6979839 C9.89802974,14.8946774 10.1597398,14.9932258 10.421368,14.9932258 C10.6829963,14.9932258 10.9446245,14.8946774 11.1442602,14.6979839 L17.6868476,8.24637097 C18.086119,7.85266129 18.086119,7.21443548 17.6868476,6.82072581 Z"></path>
                    </g>
                </g>
            </g>
        </g>
    </g>
</svg>