<?xml version="1.0" encoding="UTF-8"?>
<svg width="11px" height="11px" viewBox="0 0 11 11" version="1.1" xmlns="http://www.w3.org/2000/svg" xmlns:xlink="http://www.w3.org/1999/xlink">
    <!-- Generator: Sketch 52.6 (67491) - http://www.bohemiancoding.com/sketch -->
    <title>close-icon-light</title>
    <desc>Created with Sketch.</desc>
    <g id="Editor" stroke="none" stroke-width="1" fill="none" fill-rule="evenodd">
        <g id="No-search-results" transform="translate(-996.000000, -113.000000)" fill="#869FFD">
            <g id="navbar/projects">
                <g id="icons/close" transform="translate(996.000000, 113.000000)">
                    <path d="M6.47282733,5.50011466 L10.7984407,1.17432092 C11.0671864,0.905793325 11.0671864,0.47009527 10.7984407,0.201567679 C10.529695,-0.0671892264 10.0944737,-0.0671892264 9.82572804,0.201567679 L5.50011465,4.52736142 L1.17427196,0.201567679 C0.905526255,-0.0671892264 0.470304976,-0.0671892264 0.201559275,0.201567679 C-0.0671864251,0.47009527 -0.0671864251,0.905793325 0.201559275,1.17432092 L4.52740197,5.50011466 L0.201559275,9.8259084 C-0.0671864251,10.094436 -0.0671864251,10.530134 0.201559275,10.7986616 C0.335932126,10.9328108 0.512038523,11 0.687915616,11 C0.863792708,11 1.03989911,10.9328108 1.17427196,10.7984323 L5.50011465,6.47263858 L9.82572804,10.7984323 C9.96010089,10.9328108 10.1362073,11 10.3120844,11 C10.4879615,11 10.6640679,10.9328108 10.7984407,10.7984323 C11.0671864,10.5299047 11.0671864,10.0942067 10.7984407,9.82567908 L6.47282733,5.50011466 Z" id="close-icon-light"></path>
                </g>
            </g>
        </g>
    </g>
</svg>