<?xml version="1.0" encoding="UTF-8"?>
<svg width="20px" height="34px" viewBox="0 0 20 34" version="1.1" xmlns="http://www.w3.org/2000/svg" xmlns:xlink="http://www.w3.org/1999/xlink">
    <!-- Generator: Sketch 52.6 (67491) - http://www.bohemiancoding.com/sketch -->
    <title>close-icon</title>
    <desc>Created with Sketch.</desc>
    <g id="Profile" stroke="none" stroke-width="1" fill="none" fill-rule="evenodd">
        <g id="Profile-Delete-Account" transform="translate(-888.000000, -229.000000)" fill="#8E9ABD">
            <g id="Group-29" transform="translate(408.000000, 209.000000)">
                <g id="close0button" transform="translate(480.000000, 20.000000)">
                    <g id="Group-30">
                        <g>
                            <path d="M11.5216327,9.5944 L19.2212245,2.0488 C19.6995918,1.5804 19.6995918,0.8204 19.2212245,0.352 C18.7428571,-0.1168 17.9681633,-0.1168 17.4897959,0.352 L9.79020408,7.8976 L2.09020408,0.352 C1.61183673,-0.1168 0.837142857,-0.1168 0.35877551,0.352 C-0.119591837,0.8204 -0.119591837,1.5804 0.35877551,2.0488 L8.05877551,9.5944 L0.35877551,17.14 C-0.119591837,17.6084 -0.119591837,18.3684 0.35877551,18.8368 C0.597959184,19.0708 0.911428571,19.188 1.2244898,19.188 C1.53755102,19.188 1.85102041,19.0708 2.09020408,18.8364 L9.79020408,11.2908 L17.4897959,18.8364 C17.7289796,19.0708 18.042449,19.188 18.3555102,19.188 C18.6685714,19.188 18.9820408,19.0708 19.2212245,18.8364 C19.6995918,18.368 19.6995918,17.608 19.2212245,17.1396 L11.5216327,9.5944 Z" id="Path"></path>
                            <path d="M4.75510204,33.6 L0.0432653061,33.6 L0.0432653061,26.2264 L4.75510204,26.2264 L4.75510204,27.5784 L1.5077551,27.5784 L1.5077551,29.2632 L4.44734694,29.2632 L4.44734694,30.5424 L1.5077551,30.5424 L1.5077551,32.248 L4.75510204,32.248 L4.75510204,33.6 Z M11.4857143,27.984 L10.1697959,28.3792 C10.0955102,27.9736 9.75591837,27.3392 8.80081633,27.3392 C8.08979592,27.3392 7.62285714,27.7864 7.62285714,28.2752 C7.62285714,28.6808 7.88816327,29.0032 8.44,29.1072 L9.49061224,29.3048 C10.8595918,29.5648 11.5918367,30.4384 11.5918367,31.4784 C11.5918367,32.612 10.6261224,33.756 8.87510204,33.756 C6.88,33.756 5.99918367,32.4976 5.88244898,31.4472 L7.24081633,31.0936 C7.3044898,31.8216 7.8244898,32.4768 8.88571429,32.4768 C9.67102041,32.4768 10.1061224,32.092 10.1061224,31.572 C10.1061224,31.1456 9.77714286,30.8128 9.19346939,30.6984 L8.14285714,30.4904 C6.94367347,30.2512 6.16897959,29.492 6.16897959,28.3792 C6.16897959,27.0688 7.36816327,26.0704 8.79020408,26.0704 C10.6155102,26.0704 11.3159184,27.152 11.4857143,27.984 Z M16.4440816,33.756 C14.3428571,33.756 12.5918367,32.2688 12.5918367,29.9184 C12.5918367,27.568 14.4065306,26.0704 16.4228571,26.0704 C18.5028571,26.0704 19.5746939,27.3184 19.8718367,28.5144 L18.4922449,28.9408 C18.3118367,28.2336 17.7281633,27.4536 16.4228571,27.4536 C15.2979592,27.4536 14.1093878,28.244 14.1093878,29.9184 C14.1093878,31.4888 15.2342857,32.352 16.4440816,32.352 C17.7281633,32.352 18.3542857,31.5304 18.5559184,30.844 L19.924898,31.2496 C19.6383673,32.3832 18.5559184,33.756 16.4440816,33.756 Z" id="ESC"></path>
                        </g>
                    </g>
                </g>
            </g>
        </g>
    </g>
</svg>