<?xml version="1.0" encoding="UTF-8"?>
<svg width="14px" height="18px" viewBox="0 0 14 18" version="1.1" xmlns="http://www.w3.org/2000/svg" xmlns:xlink="http://www.w3.org/1999/xlink">
    <!-- Generator: Sketch 52.6 (67491) - http://www.bohemiancoding.com/sketch -->
    <title>delete-editor-icon</title>
    <desc>Created with Sketch.</desc>
    <g id="delete-editor-icon" stroke="none" stroke-width="1" fill="none" fill-rule="evenodd">
        <path d="M11.3857189,4.61501347 L2.36102731,4.61501347 C1.41166888,4.61501347 0.64235334,5.38723395 0.64235334,6.34091975 L1.57359726,16.2740937 C1.57359726,17.2272018 2.34348786,18 3.29282233,18 L10.5982889,18 C11.5476234,18 12.317514,17.2272018 12.317514,16.2740937 L13.105543,6.34091975 C13.1043689,5.38723395 12.3350774,4.61501347 11.3857189,4.61501347 Z M4.58125274,14.9780573 C4.58125274,15.4543105 4.19660695,15.8401078 3.72191575,15.8401078 C3.24724852,15.8401078 2.86260273,15.4537087 2.86260273,14.9780573 L2.86260273,7.20475145 C2.86260273,6.72849827 3.24724852,6.34091975 3.72191575,6.34091975 C4.19660695,6.34091975 4.58125274,6.72849827 4.58125274,7.20475145 L4.58125274,14.9780573 Z M7.58945932,14.9780573 C7.58945932,15.4543105 7.20481353,15.8401078 6.7301463,15.8401078 C6.25547906,15.8401078 5.87083327,15.4537087 5.87083327,14.9780573 L5.87083327,7.20475145 C5.87083327,6.72849827 6.25547906,6.34091975 6.7301463,6.34091975 C7.20483749,6.34091975 7.58945932,6.72849827 7.58945932,7.20475145 L7.58945932,14.9780573 Z M10.5977138,14.9780573 C10.5977138,15.4543105 10.2130441,15.8401078 9.73837684,15.8401078 C9.26370961,15.8401078 8.87906382,15.4537087 8.87906382,14.9780573 L8.87906382,7.20475145 C8.87906382,6.72849827 9.26370961,6.34091975 9.73837684,6.34091975 C10.2130441,6.34091975 10.5977138,6.72849827 10.5977138,7.20475145 L10.5977138,14.9780573 Z M1.13307173,3.3225124 L12.5518942,3.26342768 C13.1823571,3.26070769 13.6976568,2.73248702 13.7024448,2.08420419 C13.7072575,1.43592776 13.199921,0.912950389 12.5697538,0.914420073 L9.05979513,0.932905386 C8.87524368,0.388050764 8.37612062,-0.00260034408 7.78090107,1.303388e-05 L6.41091932,0.00818592069 C5.81551177,0.0114275547 5.31072479,0.406905593 5.11748772,0.953389302 L1.15061107,0.974748709 C0.5201236,0.977462309 0.0054392475,1.50584285 3.58204473e-05,2.15396581 C-0.00490909324,2.8028579 0.502747638,3.32459135 1.13307173,3.3225124 Z" id="icons/delete" fill="#202842" fill-rule="nonzero"></path>
    </g>
</svg>