<?xml version="1.0" encoding="UTF-8"?>
<svg width="15px" height="8px" viewBox="0 0 15 8" version="1.1" xmlns="http://www.w3.org/2000/svg" xmlns:xlink="http://www.w3.org/1999/xlink">
    <!-- Generator: Sketch 52.6 (67491) - http://www.bohemiancoding.com/sketch -->
    <title>dropdown-arrow</title>
    <desc>Created with Sketch.</desc>
    <g id="Editor" stroke="none" stroke-width="1" fill="none" fill-rule="evenodd">
        <g id="Add-New-Guide-Copy" transform="translate(-1286.000000, -272.000000)" fill="#5D698D">
            <g id="properties-panel" transform="translate(928.000000, 148.000000)">
                <g id="Group-8" transform="translate(21.000000, 106.000000)">
                    <path d="M348.282789,21.4146999 L342.222952,14.7396322 C342.082796,14.5851213 341.895699,14.5 341.696202,14.5 C341.496706,14.5 341.309609,14.5851213 341.169453,14.7396322 L340.723188,15.2310916 C340.4328,15.5513329 340.4328,16.0718165 340.723188,16.39157 L345.811781,21.9968903 L340.717542,27.60843 C340.577385,27.762941 340.5,27.9689149 340.5,28.1885472 C340.5,28.4084235 340.577385,28.6143974 340.717542,28.7690303 L341.163807,29.2603678 C341.304074,29.4148787 341.49106,29.5 341.690556,29.5 C341.890053,29.5 342.077149,29.4148787 342.217306,29.2603678 L348.282789,22.5792026 C348.423277,22.4242039 348.500441,22.2172543 348.499998,21.9972561 C348.500441,21.7764043 348.423277,21.5695767 348.282789,21.4146999 Z" id="dropdown-arrow" transform="translate(344.500000, 22.000000) rotate(-270.000000) translate(-344.500000, -22.000000) "></path>
                </g>
            </g>
        </g>
    </g>
</svg>