<?xml version="1.0" encoding="UTF-8"?>
<svg width="20px" height="20px" viewBox="0 0 20 20" version="1.1" xmlns="http://www.w3.org/2000/svg" xmlns:xlink="http://www.w3.org/1999/xlink">
    <!-- Generator: Sketch 52.6 (67491) - http://www.bohemiancoding.com/sketch -->
    <title>duplicate-icon</title>
    <desc>Created with Sketch.</desc>
    <g id="Editor" stroke="none" stroke-width="1" fill="none" fill-rule="evenodd">
        <g id="Flows-More-Button" transform="translate(-1159.000000, -278.000000)" fill="#202842">
            <g id="Group" transform="translate(20.000000, 183.000000)">
                <g id="Group-7" transform="translate(1124.000000, 28.000000)">
                    <g id="Group-6-Copy" transform="translate(0.000000, 51.000000)">
                        <g id="Group-29">
                            <g id="duplicate-icon" transform="translate(15.000000, 16.000000)">
                                <path d="M14.4,0 L0.8,0 C0.358398437,0 0,0.358398437 0,0.8 L0,14.4 C0,14.8416016 0.358398437,15.2 0.8,15.2 L14.4,15.2 C14.8416016,15.2 15.2,14.8416016 15.2,14.4 L15.2,0.8 C15.2,0.358398437 14.8416016,0 14.4,0 Z M13.6,13.6 L1.6,13.6 L1.6,1.6 L13.6,1.6 L13.6,13.6 Z" id="Shape" fill-rule="nonzero"></path>
                                <path d="M18.4,16.4 L18.4,18.4 L16.4,18.4 L16.4,20 L19.2,20 C19.6416016,20 20,19.6416016 20,19.2 L20,16.4 L18.4,16.4 Z" id="Path"></path>
                                <rect id="Rectangle" x="10.2480078" y="18.4" width="4.30398437" height="1.6"></rect>
                                <path d="M6.4,18.4 L6.4,16.4 L4.8,16.4 L4.8,19.2 C4.8,19.6416016 5.15839844,20 5.6,20 L8.4,20 L8.4,18.4 L6.4,18.4 Z" id="Path"></path>
                                <path d="M19.2,4.8 L16.4,4.8 L16.4,6.4 L18.4,6.4 L18.4,8.4 L20,8.4 L20,5.6 C20,5.15839844 19.6416016,4.8 19.2,4.8 Z" id="Path"></path>
                                <rect id="Rectangle" x="18.4" y="10.2480078" width="1.6" height="4.30398437"></rect>
                            </g>
                        </g>
                    </g>
                </g>
            </g>
        </g>
    </g>
</svg>