<?xml version="1.0" encoding="UTF-8"?>
<svg width="20px" height="19px" viewBox="0 0 20 19" version="1.1" xmlns="http://www.w3.org/2000/svg" xmlns:xlink="http://www.w3.org/1999/xlink">
    <!-- Generator: Sketch 52.6 (67491) - http://www.bohemiancoding.com/sketch -->
    <title>edit-icon</title>
    <desc>Created with Sketch.</desc>
    <g id="Editor" stroke="none" stroke-width="1" fill="none" fill-rule="evenodd">
        <g id="Flows-More-Button" transform="translate(-1159.000000, -227.000000)" fill="#202842" fill-rule="nonzero">
            <g id="Group" transform="translate(20.000000, 183.000000)">
                <g id="Group-7" transform="translate(1124.000000, 28.000000)">
                    <g id="Group-6">
                        <g id="Group-29">
                            <g id="edit-icon" transform="translate(15.000000, 16.000000)">
                                <path d="M18.9551515,1.0224375 C18.2836364,0.36278125 17.3878788,0 16.4369697,0 C15.4860606,0 14.5915152,0.3621875 13.9193939,1.02125 L3.20848485,11.4540312 C3.14484848,11.5157812 3.09636364,11.59 3.06606061,11.6719375 L0.641818182,18.2031875 C0.563636364,18.4139688 0.613939394,18.6520625 0.772121212,18.8153438 C0.888484848,18.9352812 1.04787879,19 1.21212121,19 C1.27151515,19 1.33090909,18.9916875 1.38969697,18.973875 L7.41939394,17.16175 C7.51393939,17.1338438 7.6,17.0827813 7.67030303,17.0145 L18.9557576,5.95828125 C19.629697,5.2998125 20,4.42225 20,3.4900625 C19.9993939,2.55846875 19.629697,1.6815 18.9551515,1.0224375 Z M6.72242424,16.1292187 L4.46545455,16.8084687 C4.33393939,16.43025 4.12909091,16.095375 3.84969697,15.8216563 C3.60666667,15.58475 3.32484848,15.4006875 3.02787879,15.2510625 L4.06060606,12.46875 L5.45454545,12.46875 L5.45454545,13.65625 C5.45454545,13.9845938 5.72545455,14.25 6.06060606,14.25 L7.13030303,14.25 L6.72242424,16.1292187 Z M15.6436364,7.52340625 L8.25939394,14.7576563 L8.47151515,13.77975 C8.50909091,13.604 8.46424242,13.4217188 8.34909091,13.2827813 C8.23393939,13.14325 8.06121212,13.0625 7.87878788,13.0625 L6.66666667,13.0625 L6.66666667,11.875 C6.66666667,11.54725 6.39515152,11.28125 6.06060606,11.28125 L5.10424242,11.28125 L12.3121212,4.26015625 L12.3193939,4.2666875 C12.7630303,3.83146875 13.3539394,3.5921875 13.9812121,3.5921875 C14.6084848,3.5921875 15.2,3.83146875 15.6430303,4.2666875 C16.0860606,4.70190625 16.3327273,5.28021875 16.3327273,5.89534375 C16.3327273,6.51046875 16.0884848,7.0881875 15.6436364,7.52340625 Z M18.0981818,5.11871875 L17.5333333,5.6726875 C17.4787879,4.82421875 17.1193939,4.03334375 16.5012121,3.427125 C15.8824242,2.8203125 15.0745455,2.4688125 14.2060606,2.41596875 L14.7745455,1.8631875 L14.7757576,1.862 C15.2181818,1.42678125 15.8090909,1.1875 16.4369697,1.1875 C17.0648485,1.1875 17.6551515,1.42678125 18.0981818,1.862 C18.5430303,2.29721875 18.7878788,2.87553125 18.7878788,3.4900625 C18.7878788,4.10578125 18.5442424,4.68409375 18.0981818,5.11871875 Z M14.1169697,4.92396875 L8.05636364,10.8614687 C7.81939394,11.093625 7.81939394,11.468875 8.05636364,11.7010312 C8.17393939,11.8168125 8.32969697,11.875 8.48484848,11.875 C8.64,11.875 8.79454545,11.8168125 8.91333333,11.7010312 L14.9739394,5.76353125 C15.2109091,5.531375 15.2109091,5.156125 14.9739394,4.92396875 C14.7363636,4.6918125 14.3539394,4.6918125 14.1169697,4.92396875 Z" id="Shape"></path>
                            </g>
                        </g>
                    </g>
                </g>
            </g>
        </g>
    </g>
</svg>