<?xml version="1.0" encoding="UTF-8"?>
<svg width="60px" height="80px" viewBox="0 0 60 80" version="1.1" xmlns="http://www.w3.org/2000/svg" xmlns:xlink="http://www.w3.org/1999/xlink">
    <!-- Generator: Sketch 52.6 (67491) - http://www.bohemiancoding.com/sketch -->
    <title>error-icon-password-reset</title>
    <desc>Created with Sketch.</desc>
    <g id="Authentication" stroke="none" stroke-width="1" fill="none" fill-rule="evenodd">
        <g id="Failed-password-reset" transform="translate(-638.000000, -204.000000)">
            <g id="Group-2" transform="translate(264.000000, 100.000000)">
                <g id="Group-3" transform="translate(245.000000, 104.000000)">
                    <g id="error-icon-password-reset" transform="translate(129.000000, 0.000000)">
                        <g id="Group" transform="translate(44.709677, 0.000000)" fill="#FEB63E">
                            <path d="M6.79412903,9.88524272 C6.41148387,9.88524272 6.02864516,9.73864078 5.73658065,9.44582524 C5.15264516,8.85980583 5.15264516,7.91009709 5.73658065,7.3238835 L8.69690323,4.35398058 C9.28103226,3.76834951 10.2276774,3.76834951 10.812,4.35398058 C11.3959355,4.94 11.3959355,5.88970874 10.812,6.47592233 L7.85167742,9.44582524 C7.55941935,9.73883495 7.17658065,9.88524272 6.79412903,9.88524272 Z" id="Path"></path>
                            <path d="M1.61748387,7.68174757 C0.791419355,7.68174757 0.122129032,7.01009709 0.122129032,6.1815534 L0.122129032,1.54 C0.122129032,0.711262136 0.791612903,0.0398058252 1.61748387,0.0398058252 C2.44335484,0.0398058252 3.11283871,0.711456311 3.11283871,1.54 L3.11283871,6.18135922 C3.11283871,7.01009709 2.44354839,7.68174757 1.61748387,7.68174757 Z" id="Path"></path>
                            <path d="M13.6170968,15.0786408 L8.99070968,15.0786408 C8.16464516,15.0786408 7.49535484,14.4069903 7.49535484,13.5784466 C7.49535484,12.7497087 8.16483871,12.0782524 8.99070968,12.0782524 L13.6170968,12.0782524 C14.4431613,12.0782524 15.1124516,12.7499029 15.1124516,13.5784466 C15.1124516,14.4069903 14.4431613,15.0786408 13.6170968,15.0786408 Z" id="Path"></path>
                        </g>
                        <path d="M18.4184516,65.3757282 C15.7910323,65.3757282 13.3428387,63.9576699 12.0292258,61.6747573 L1.02832258,42.5592233 C-0.285096774,40.2763107 -0.285096774,37.4407767 1.02812903,35.1582524 L12.0294194,16.0419417 C13.3424516,13.7594175 15.7906452,12.3413592 18.4184516,12.3413592 L40.4202581,12.3413592 C43.0480645,12.3413592 45.4962581,13.7596117 46.8096774,16.0427184 L57.8103871,35.1578641 C59.1238065,37.4407767 59.1238065,40.2763107 57.8105806,42.558835 L46.8092903,61.6751456 C45.495871,63.9578641 43.0476774,65.3757282 40.4202581,65.3757282 L18.4184516,65.3757282 Z" id="Path" fill="#EBEEF2"></path>
                        <path d="M57.8103871,35.1580583 L46.8096774,16.0429126 C45.4962581,13.7596117 43.0480645,12.3415534 40.4202581,12.3415534 L34.3457419,12.3415534 C36.5783226,12.3415534 38.6581935,13.7598058 39.774,16.0429126 L49.1196774,35.1580583 C50.2354839,37.4409709 50.2354839,40.2765049 49.119871,42.5590291 L39.7736129,61.6753398 C38.6578065,63.9580583 36.5779355,65.3759223 34.3457419,65.3759223 L40.4202581,65.3759223 C43.0476774,65.3759223 45.495871,63.9578641 46.8092903,61.6753398 L57.8105806,42.5590291 C59.1238065,40.2765049 59.1238065,37.4407767 57.8103871,35.1580583 Z" id="Path" fill="#C9CDD3"></path>
                        <path d="M53.5845806,37.6161165 L42.5836774,18.5001942 C42.0494839,17.5718447 41.062,17 39.9936129,17 L17.9916129,17 C16.9230323,17 15.9357419,17.5718447 15.4015484,18.5001942 L4.40064516,37.6161165 C3.86645161,38.544466 3.86645161,39.6883495 4.40064516,40.616699 L15.4015484,59.7326214 C15.9357419,60.6609709 16.9232258,61.2328155 17.9916129,61.2328155 L39.9936129,61.2328155 C41.0621935,61.2328155 42.0494839,60.6609709 42.5836774,59.7326214 L53.5845806,40.616699 C54.1187742,39.6881553 54.1187742,38.544466 53.5845806,37.6161165 Z" id="Path" fill="#EA4D67"></path>
                        <text id="ERR" font-family="CircularStd-Bold, Circular Std" font-size="14" font-weight="bold" fill="#FFFFFF">
                            <tspan x="16.176" y="44">ERR</tspan>
                        </text>
                        <path d="M54.0114194,37.3584466 L43.0105161,18.2425243 C42.4763226,17.3141748 41.4888387,16.7423301 40.4204516,16.7423301 L40.116,16.7423301 L49.119871,35.1580583 C50.2356774,37.4409709 50.2356774,40.2765049 49.1200645,42.5590291 L40.1161935,60.9751456 L40.4206452,60.9751456 C41.4892258,60.9751456 42.4765161,60.403301 43.0107097,59.4749515 L54.0116129,40.3590291 C54.5456129,39.4304854 54.5456129,38.2867961 54.0114194,37.3584466 Z" id="Path" fill="#BC4142"></path>
                        <rect id="Rectangle" fill="#52668D" x="25.8069677" y="65.3757282" width="7.22477419" height="14.4640777"></rect>
                        <rect id="Rectangle" fill="#243B5D" x="25.8069677" y="65.3757282" width="7.22477419" height="4.8007767"></rect>
                    </g>
                </g>
            </g>
        </g>
    </g>
</svg>