<?xml version="1.0" encoding="UTF-8"?>
<svg width="15px" height="15px" viewBox="0 0 15 15" version="1.1" xmlns="http://www.w3.org/2000/svg" xmlns:xlink="http://www.w3.org/1999/xlink">
    <!-- Generator: Sketch 52.6 (67491) - http://www.bohemiancoding.com/sketch -->
    <title>icons/gift-white</title>
    <desc>Created with Sketch.</desc>
    <g id="icons/gift-white" stroke="none" stroke-width="1" fill="none" fill-rule="evenodd">
        <path d="M8.38988591,8.97994904 L14.6147478,8.97994904 L14.6147478,13.834238 C14.6147478,14.4782689 14.0836078,15 13.4287092,15 L8.38988591,15 L8.38988591,8.97994904 Z M6.60831069,8.97994904 L6.60831069,15 L1.57174166,15 C0.916918183,15 0.385627873,14.4782689 0.385627873,13.834238 L0.385627873,8.97994904 L6.60831069,8.97994904 Z M2.00264249,13.77667 C2.24854413,13.77667 2.44804569,13.5805546 2.44804569,13.3389461 L2.44804569,10.9100107 C2.44804569,10.6684391 2.24850656,10.4722868 2.00264249,10.4722868 C1.75677842,10.4722868 1.55723929,10.6683653 1.55723929,10.9100107 L1.55723929,13.3389461 C1.55723929,13.5805546 1.75674085,13.77667 2.00264249,13.77667 Z M13.8144873,4.41505114 C14.4692733,4.41505114 14.9999624,4.93674532 15,5.58025922 L15,6.57180311 C15,7.21539086 14.4693108,7.73690041 13.8145249,7.73690041 L8.38988591,7.73690041 L8.38988591,4.46128282 L6.60831069,4.46128282 L6.60831069,7.73690041 L1.18547508,7.73690041 C0.530614034,7.73690041 -5.68434189e-14,7.21546472 -5.68434189e-14,6.57184004 L-5.68434189e-14,5.58029615 C-5.68434189e-14,4.93674532 0.530614034,4.41505114 1.18547508,4.41505114 L3.46298639,4.41505114 C3.13116006,4.26295189 2.85460056,4.10450131 2.69045323,3.94246889 C1.77289634,3.04080352 1.77289634,1.57841291 2.69045323,0.676230568 C3.14923167,0.22539788 3.75066688,7.10542736e-14 4.35210209,7.10542736e-14 C4.95413844,7.10542736e-14 5.55497251,0.225360954 6.01375095,0.676230568 C6.39832684,1.05394926 6.76832521,1.99106385 7.06874225,2.95240205 C7.20786735,2.91499575 7.35176395,2.88855655 7.50257361,2.88855655 C7.65390925,2.88855655 7.79776829,2.91495883 7.93753209,2.95266054 C8.23678443,1.99992615 8.60332628,1.07536649 8.98433293,0.700786529 C9.4430738,0.249916916 10.0445842,0.0245190355 10.6460569,0.0245190355 C11.247417,0.0245190355 11.8488146,0.249916916 12.3081566,0.700786529 C13.2257511,1.60263653 13.2257511,3.06532255 12.3081566,3.96702485 C12.1521998,4.12015804 11.8942754,4.2700048 11.5867951,4.41505114 L13.8144873,4.41505114 Z M9.82426831,1.52623611 C9.60267505,1.75647133 9.26277098,2.63180828 8.93913512,3.73047524 C8.99646833,3.83198552 9.04181643,3.9391086 9.07540483,4.05232451 C10.263322,3.72216683 11.2242357,3.36771168 11.4696114,3.140209 C11.6877106,2.925889 11.8083508,2.6391566 11.8083508,2.33392415 C11.8083508,2.0286917 11.6877106,1.74192238 11.4685218,1.52623611 C11.2486568,1.31066061 10.9568435,1.19179499 10.6460569,1.19179499 C10.3356836,1.19179499 10.043457,1.31066061 9.82426831,1.52623611 Z M3.5302759,1.50171707 C3.07728337,1.94719545 3.07728337,2.67172556 3.53023832,3.11720394 C3.77561397,3.34459584 4.7424639,3.70086038 5.93601673,4.03142425 C5.96971784,3.92574129 6.01254869,3.8253388 6.06650052,3.73017983 C5.74057283,2.62010265 5.39668625,1.73342934 5.17332716,1.50112625 C4.95473957,1.28599387 4.66296384,1.16742365 4.35213966,1.16742365 C4.0418039,1.16742365 3.74953976,1.28628928 3.5302759,1.50171707 Z" fill="#FFFFFF"></path>
    </g>
</svg>