<?xml version="1.0" encoding="UTF-8"?>
<svg width="38px" height="38px" viewBox="0 0 38 38" version="1.1" xmlns="http://www.w3.org/2000/svg" xmlns:xlink="http://www.w3.org/1999/xlink">
    <!-- Generator: Sketch 52.6 (67491) - http://www.bohemiancoding.com/sketch -->
    <title>hotspot-question-icon</title>
    <desc>Created with Sketch.</desc>
    <g id="Themes" stroke="none" stroke-width="1" fill="none" fill-rule="evenodd">
        <g id="Themes-Tooltip-&amp;-Hotspot" transform="translate(-898.000000, -812.000000)" fill-rule="nonzero">
            <g id="Group-14" transform="translate(866.000000, 780.000000)">
                <g id="Group-7" transform="translate(34.000000, 34.000000)">
                    <g id="hotspot-question-icon">
                        <circle id="Oval" stroke="#A6B3E5" stroke-width="3" opacity="0.5" cx="17" cy="17" r="17"></circle>
                        <path d="M16.6613636,10 C19.1268182,10 21.5540909,11.092875 21.5540909,13.7069375 C21.5540909,16.1175625 18.6840909,17.044625 18.0677273,17.9156875 C17.605,18.563625 17.7595455,19.4740625 16.4881818,19.4740625 C15.66,19.4740625 15.2554545,18.8256875 15.2554545,18.2324375 C15.2554545,16.0248125 18.6254545,15.5251875 18.6254545,13.707375 C18.6254545,12.7068125 17.9336364,12.1135625 16.7772727,12.1135625 C14.3118182,12.1135625 15.2745455,14.5600625 13.4072727,14.5600625 C12.7331818,14.5600625 12.1545455,14.1706875 12.1545455,13.4295625 C12.1540909,11.6113125 14.3109091,10 16.6613636,10 Z M16.5654545,20.677625 C17.4309091,20.677625 18.145,21.36275 18.145,22.198375 C18.145,23.034 17.4322727,23.719125 16.5654545,23.719125 C15.6986364,23.719125 14.9854545,23.034875 14.9854545,22.198375 C14.9854545,21.3631875 15.6986364,20.677625 16.5654545,20.677625 Z" id="Shape" fill="#A6B3E5"></path>
                    </g>
                </g>
            </g>
        </g>
    </g>
</svg>