<?xml version="1.0" encoding="UTF-8"?>
<svg width="37px" height="32px" viewBox="0 0 37 32" version="1.1" xmlns="http://www.w3.org/2000/svg" xmlns:xlink="http://www.w3.org/1999/xlink">
    <!-- Generator: Sketch 52.6 (67491) - http://www.bohemiancoding.com/sketch -->
    <title>image-placeholder</title>
    <desc>Created with Sketch.</desc>
    <g id="Editor" stroke="none" stroke-width="1" fill="none" fill-rule="evenodd">
        <g id="Edit-Tooltip-Content" transform="translate(-981.000000, -966.000000)">
            <g id="tooltip-panel" transform="translate(928.000000, 148.000000)">
                <g id="Group" transform="translate(0.000000, 306.000000)">
                    <g id="Group-12" transform="translate(21.000000, 493.000000)">
                        <g id="image-placeholder" transform="translate(33.000000, 20.000000)">
                            <path d="M28.9590072,29.9464438 L2.16960905,29.9464438 C0.97145084,29.9464438 -2.84217094e-14,28.9821656 -2.84217094e-14,27.7925268 L-2.84217094e-14,6.15234373 C-2.84217094e-14,4.96270507 0.97145084,3.99816176 2.16960905,3.99816176 L28.9590072,3.99816176 C30.1571655,3.99816176 31.1286164,4.96270507 31.1286164,6.15234373 L31.1286164,27.7925268 C31.1286164,28.9821656 30.1571655,29.9464438 28.9590072,29.9464438 Z" id="Path" stroke="#EBF0F9" fill="#FFFFFF"></path>
                            <path d="M31.1283493,6.15260891 L31.1283493,27.792792 C31.1283493,28.9824307 30.1574325,29.9464438 28.9592743,29.9464438 L26.8112946,29.9464438 C28.0094528,29.9464438 28.9811707,28.9824307 28.9811707,27.792792 L28.9811707,6.15260891 C28.9811707,4.96297018 28.0094528,3.99816176 26.8112946,3.99816176 L28.9592743,3.99816176 C30.1574325,3.99816176 31.1283493,4.96297018 31.1283493,6.15260891 Z" id="Path" fill="#EBF0F9"></path>
                            <path d="M32.8303909,25.9485471 L6.04099275,25.9485471 C4.84283447,25.9485471 3.87138363,24.9840038 3.87138363,23.7943651 L3.87138363,2.15444715 C3.87138363,0.964543303 4.84283447,0.00026513009 6.04099275,0.00026513009 L32.830658,0.00026513009 C34.0288162,0.00026513009 35,0.964543303 35,2.15444715 L35,23.7943651 C35,24.9840038 34.0285492,25.9485471 32.8303909,25.9485471 Z" id="Path" stroke="#EBF0F9" fill="#FFFFFF"></path>
                            <path d="M34.999733,2.15444715 L34.999733,23.7946302 C34.999733,24.9842689 34.0288162,25.948282 32.830658,25.948282 L30.6826782,25.948282 C31.8808365,25.948282 32.8525544,24.9842689 32.8525544,23.7946302 L32.8525544,2.15444715 C32.8525544,0.964808416 31.8808365,0 30.6826782,0 L32.830658,0 C34.0288162,0 34.999733,0.964808416 34.999733,2.15444715 Z" id="Path"></path>
                            <path d="M35,20.5725042 L27.0206452,11.6439833 C26.8857956,11.4931243 26.6508102,11.4859657 26.5071488,11.6286058 L21.735878,16.3638292 L15.5805969,9.47680995 C15.4457474,9.32595095 15.2110291,9.31879242 15.0673675,9.46143244 L3.87138363,20.5725042 L3.87138363,23.7943651 C3.87138363,24.9840038 4.84283447,25.9485471 6.04099275,25.9485471 L32.830658,25.9485471 C34.0288162,25.9485471 35,24.9840038 35,23.7943651 L35,20.5725042 Z" id="Path" fill="#869FFD"></path>
                            <path d="M34.999733,20.5725042 L34.999733,23.7946302 C34.999733,24.9842689 34.0288162,25.948282 32.830658,25.948282 L30.6826782,25.948282 C31.8808365,25.948282 32.8525544,24.9842689 32.8525544,23.7946302 L32.8525544,18.1701605 L34.999733,20.5725042 Z" id="Path" fill="#6B85E5"></path>
                            <path d="M31.8087387,6.52432127 C31.8087387,8.22778208 30.4177856,9.60884471 28.7018586,9.60884471 C26.9861984,9.60884471 25.5952454,8.22778208 25.5952454,6.52432127 C25.5952454,4.82059534 26.9861984,3.43953265 28.7018586,3.43953265 C30.4177856,3.43953265 31.8087387,4.82059534 31.8087387,6.52432127 Z" id="Path" fill="#FFE08D"></path>
                            <path d="M31.8084717,6.52458638 C31.8084717,8.22778208 30.4175186,9.60884471 28.7018586,9.60884471 C27.8302765,9.60884471 27.0425415,9.25250986 26.4780426,8.67797301 C26.8420029,8.82724127 27.2412109,8.90890127 27.6596451,8.90890127 C29.3753052,8.90890127 30.7662582,7.52810376 30.7662582,5.82464294 C30.7662582,4.98656674 30.4298019,4.22696905 29.883728,3.67072609 C31.0132599,4.13231756 31.8084717,5.23605414 31.8084717,6.52458638 Z" id="Path" fill="#FFB509"></path>
                        </g>
                    </g>
                </g>
            </g>
        </g>
    </g>
</svg>