<?xml version="1.0" encoding="UTF-8"?>
<svg width="7px" height="10px" viewBox="0 0 7 10" version="1.1" xmlns="http://www.w3.org/2000/svg" xmlns:xlink="http://www.w3.org/1999/xlink">
    <!-- Generator: Sketch 52.6 (67491) - http://www.bohemiancoding.com/sketch -->
    <title>info-icon</title>
    <desc>Created with Sketch.</desc>
    <g id="Editor" stroke="none" stroke-width="1" fill="none" fill-rule="evenodd">
        <g id="Add-New-Flow-Group" transform="translate(-705.000000, -352.000000)" fill="#869FFD" fill-rule="nonzero">
            <g id="Group-29" transform="translate(394.000000, 82.000000)">
                <g id="Group-10" transform="translate(305.000000, 266.000000)">
                    <g id="question-mark" transform="translate(6.000000, 4.000000)">
                        <path d="M3.26295455,0 C4.98877273,0 6.68786364,0.780625 6.68786364,2.6478125 C6.68786364,4.3696875 4.67886364,5.031875 4.24740909,5.6540625 C3.9235,6.116875 4.03168182,6.7671875 3.14172727,6.7671875 C2.562,6.7671875 2.27881818,6.3040625 2.27881818,5.8803125 C2.27881818,4.3034375 4.63781818,3.9465625 4.63781818,2.648125 C4.63781818,1.9334375 4.15354545,1.5096875 3.34409091,1.5096875 C1.61827273,1.5096875 2.29218182,3.2571875 0.985090909,3.2571875 C0.513227273,3.2571875 0.108181818,2.9790625 0.108181818,2.4496875 C0.107863636,1.1509375 1.61763636,0 3.26295455,0 Z M3.19581818,7.626875 C3.80163636,7.626875 4.3015,8.11625 4.3015,8.713125 C4.3015,9.31 3.80259091,9.799375 3.19581818,9.799375 C2.58904545,9.799375 2.08981818,9.310625 2.08981818,8.713125 C2.08981818,8.1165625 2.58904545,7.626875 3.19581818,7.626875 Z" id="info-icon"></path>
                    </g>
                </g>
            </g>
        </g>
    </g>
</svg>