<?xml version="1.0" encoding="UTF-8"?>
<svg width="11px" height="14px" viewBox="0 0 11 14" version="1.1" xmlns="http://www.w3.org/2000/svg" xmlns:xlink="http://www.w3.org/1999/xlink">
    <!-- Generator: Sketch 52.6 (67491) - http://www.bohemiancoding.com/sketch -->
    <title>bold</title>
    <desc>Created with Sketch.</desc>
    <g id="Editor" stroke="none" stroke-width="1" fill="none" fill-rule="evenodd">
        <g id="Editor-link-Selected" transform="translate(-427.000000, -488.000000)" fill="#FFFFFF" fill-rule="nonzero">
            <g id="Group-2" transform="translate(411.000000, 473.000000)">
                <g id="bold" transform="translate(16.000000, 15.000000)">
                    <path d="M10.3314563,7.43829297 C9.98444903,6.89100781 9.52263592,6.43505078 8.98117961,6.10189453 C9.25310922,5.52732031 9.39533495,4.89567969 9.39533495,4.25203516 C9.39533495,1.90747266 7.53283738,0 5.24352913,0 L0.00122815534,0 L0.00122815534,14 L6.84696602,14 C9.13627427,14 10.9987718,12.0925273 10.9987718,9.74796484 C10.9987718,8.92549219 10.7680121,8.12680859 10.3314563,7.43829297 Z M5.24352913,5.49590234 L2.93849515,5.49590234 L2.93849515,3.00819531 L5.24352913,3.00819531 C5.91322087,3.00819531 6.45806796,3.56617188 6.45806796,4.2520625 C6.45806796,4.93795313 5.91324757,5.49590234 5.24352913,5.49590234 Z M8.06150485,9.74796484 C8.06150485,10.4338281 7.51665777,10.991832 6.84696602,10.991832 L2.93849515,10.991832 L2.93849515,8.504125 L6.84696602,8.504125 C7.51665777,8.50409766 8.06150485,9.06207422 8.06150485,9.74796484 Z" id="Shape"></path>
                </g>
            </g>
        </g>
    </g>
</svg>