<?xml version="1.0" encoding="UTF-8"?>
<svg width="12px" height="12px" viewBox="0 0 12 12" version="1.1" xmlns="http://www.w3.org/2000/svg" xmlns:xlink="http://www.w3.org/1999/xlink">
    <!-- Generator: Sketch 52.6 (67491) - http://www.bohemiancoding.com/sketch -->
    <title>close</title>
    <desc>Created with Sketch.</desc>
    <g id="Editor" stroke="none" stroke-width="1" fill="none" fill-rule="evenodd">
        <g id="Editor---Paste-link" transform="translate(-677.000000, -488.000000)" fill="#FFFFFF">
            <g id="Group-2" transform="translate(411.000000, 473.000000)">
                <g id="Group-11">
                    <path d="M273.061266,21.0001251 L277.780117,16.2810774 C278.073294,15.9881382 278.073294,15.5128312 277.780117,15.219892 C277.48694,14.9267027 277.012153,14.9267027 276.718976,15.219892 L272.000125,19.9389397 L267.281024,15.219892 C266.987847,14.9267027 266.51306,14.9267027 266.219883,15.219892 C265.926706,15.5128312 265.926706,15.9881382 266.219883,16.2810774 L270.938984,21.0001251 L266.219883,25.7191728 C265.926706,26.012112 265.926706,26.487419 266.219883,26.7803581 C266.366471,26.9267027 266.558587,27 266.750453,27 C266.942319,27 267.134435,26.9267027 267.281024,26.780108 L272.000125,22.0610603 L276.718976,26.780108 C276.865565,26.9267027 277.057681,27 277.249547,27 C277.441413,27 277.633529,26.9267027 277.780117,26.780108 C278.073294,26.4871688 278.073294,26.0118618 277.780117,25.7189226 L273.061266,21.0001251 Z" id="close"></path>
                </g>
            </g>
        </g>
    </g>
</svg>