<?xml version="1.0" encoding="UTF-8"?>
<svg width="12px" height="9px" viewBox="0 0 12 9" version="1.1" xmlns="http://www.w3.org/2000/svg" xmlns:xlink="http://www.w3.org/1999/xlink">
    <!-- Generator: Sketch 52.6 (67491) - http://www.bohemiancoding.com/sketch -->
    <title>checkmark</title>
    <desc>Created with Sketch.</desc>
    <g id="Editor" stroke="none" stroke-width="1" fill="none" fill-rule="evenodd">
        <g id="Editor---Paste-link" transform="translate(-634.000000, -490.000000)" fill="#FFFFFF">
            <g id="Group-2" transform="translate(411.000000, 473.000000)">
                <g id="Group-11">
                    <path d="M234.78323,18.2423831 L233.730345,17.2120922 C233.585977,17.0707151 233.410396,17 233.204012,17 C232.997437,17 232.821857,17.0707151 232.677488,17.2120922 L227.598708,22.1893991 L225.322566,19.9545106 C225.178034,19.8130804 225.002563,19.742445 224.796178,19.742445 C224.589658,19.742445 224.414186,19.8130804 224.269654,19.9545106 L223.21677,20.984828 C223.072239,21.1262317 223,21.297991 223,21.5000531 C223,21.7019559 223.072239,21.8738745 223.21677,22.0152516 L226.0193,24.7575904 L227.072266,25.7878813 C227.216716,25.9293645 227.392242,26 227.598708,26 C227.805092,26 227.980618,25.9291788 228.12515,25.7878813 L229.178088,24.7575904 L234.78323,19.2727535 C234.927626,19.1313234 235,18.9595905 235,18.7575285 C235.000108,18.5555726 234.927626,18.3838132 234.78323,18.2423831 Z" id="checkmark"></path>
                </g>
            </g>
        </g>
    </g>
</svg>