<?xml version="1.0" encoding="UTF-8"?>
<svg width="14px" height="14px" viewBox="0 0 14 14" version="1.1" xmlns="http://www.w3.org/2000/svg" xmlns:xlink="http://www.w3.org/1999/xlink">
    <!-- Generator: Sketch 52.6 (67491) - http://www.bohemiancoding.com/sketch -->
    <title>link</title>
    <desc>Created with Sketch.</desc>
    <g id="Editor" stroke="none" stroke-width="1" fill="none" fill-rule="evenodd">
        <g id="Editor-link-Selected" transform="translate(-555.000000, -488.000000)" fill="#FFFFFF" fill-rule="nonzero">
            <g id="Group-2" transform="translate(411.000000, 473.000000)">
                <g id="link" transform="translate(144.000000, 15.000000)">
                    <path d="M13.2778283,8.54312446 L11.4936094,6.75908584 C11.0134034,6.27884979 10.4302103,6.03859657 9.74396996,6.03859657 C9.04628326,6.03859657 8.45173391,6.29020601 7.95987124,6.79342489 L7.20504292,6.03859657 C7.70829185,5.54685408 7.95987124,4.94936052 7.95987124,4.24590558 C7.95987124,3.55969528 7.72259227,2.97938627 7.24791416,2.50467811 L5.48093991,0.72923176 C5.00632189,0.243197425 4.42306867,9.01287554e-05 3.73118026,9.01287554e-05 C3.04496996,9.01287554e-05 2.46457082,0.23748927 1.98995279,0.712107296 L0.729051502,1.96438627 C0.242987124,2.43912446 0,3.01943348 0,3.70558369 C0,4.39179399 0.240223176,4.97513734 0.72048927,5.45543348 L2.50458798,7.2394721 C2.98497425,7.71979828 3.56822747,7.95996137 4.25443777,7.95996137 C4.95200429,7.95996137 5.54673391,7.70838197 6.03847639,7.205103 L6.79330472,7.95996137 C6.29008584,8.45179399 6.03847639,9.04925751 6.03847639,9.7526824 C6.03847639,10.4389528 6.27575536,11.0191116 6.75040343,11.4939099 L8.5175279,13.2692661 C8.99223605,13.7552704 9.57527897,13.9984077 10.2671674,13.9984077 C10.9534678,13.9984077 11.5335966,13.7611588 12.0083948,13.2864506 L13.2693863,12.0342017 C13.7553906,11.5594034 13.9985579,10.9791545 13.9985579,10.2929742 C13.9984077,9.60685408 13.7582446,9.02366094 13.2778283,8.54312446 Z M6.03859657,4.87230043 C6.02144206,4.85514592 5.96847639,4.80085837 5.87996996,4.70934764 C5.79140343,4.61783691 5.72990558,4.5563691 5.69562661,4.52488412 C5.66128755,4.49342918 5.60693991,4.45055794 5.53261373,4.39612017 C5.45816738,4.34177253 5.38534335,4.30466953 5.31390129,4.2846309 C5.24239914,4.26462232 5.16374678,4.25464807 5.07794421,4.25464807 C4.84928755,4.25464807 4.65481974,4.33474249 4.49469099,4.49478112 C4.33456223,4.65481974 4.25458798,4.84925751 4.25458798,5.07803433 C4.25458798,5.16374678 4.26456223,5.24239914 4.28457082,5.31390129 C4.3045794,5.38546352 4.34174249,5.45834764 4.39606009,5.53264378 C4.45040773,5.60696996 4.49330901,5.6613176 4.52473391,5.69565665 C4.55609871,5.72993562 4.61756652,5.79143348 4.70907725,5.88009013 C4.80058798,5.96871674 4.85487554,6.02156223 4.87203004,6.03874678 C4.70045494,6.21593991 4.49460086,6.30456652 4.25449785,6.30456652 C4.02004292,6.30456652 3.82557511,6.22741631 3.67124464,6.07308584 L1.88699571,4.28895708 C1.72695708,4.12882833 1.6468927,3.93439056 1.6468927,3.70561373 C1.6468927,3.48266524 1.72686695,3.29114163 1.88699571,3.13101288 L3.14792704,1.87861373 C3.31385408,1.72419313 3.50817167,1.64713305 3.73127039,1.64713305 C3.95992704,1.64713305 4.15436481,1.72713734 4.31452361,1.88726609 L6.08143777,3.66271245 C6.24156652,3.8228412 6.32154077,4.01724893 6.32154077,4.24596567 C6.32157082,4.48603863 6.22723605,4.69480687 6.03859657,4.87230043 Z M12.1117124,10.867485 L10.850721,12.1198541 C10.6905322,12.2684163 10.4962146,12.3428627 10.2673476,12.3428627 C10.0327425,12.3428627 9.83863519,12.2657725 9.68421459,12.1113219 L7.91730043,10.3357554 C7.75714163,10.1755665 7.67725751,9.98124893 7.67725751,9.75262232 C7.67725751,9.51245923 7.77153219,9.30375107 7.96029185,9.12649785 C7.97756652,9.14353219 8.03041202,9.19803004 8.11903863,9.28933047 C8.20766524,9.3808412 8.26913305,9.44233906 8.30350215,9.47379399 C8.3378412,9.5053691 8.39209871,9.54824034 8.46633476,9.60261803 C8.54078112,9.65702575 8.61354506,9.69421888 8.6851073,9.71416738 C8.75666953,9.73420601 8.83523176,9.74418026 8.92097425,9.74418026 C9.1498412,9.74418026 9.3441588,9.66411588 9.50434764,9.50401717 C9.66429614,9.3439485 9.74451073,9.14951073 9.74451073,8.92088412 C9.74451073,8.83514163 9.73432618,8.75648927 9.71446781,8.68501717 C9.69433906,8.61345494 9.65732618,8.54054077 9.60270815,8.46624464 C9.54830043,8.39200858 9.50566953,8.33754077 9.47409442,8.30317167 C9.44263948,8.26904292 9.38114163,8.20754506 9.28966094,8.11870815 C9.19815021,8.03011159 9.14386266,7.97723605 9.12658798,7.96020172 C9.29828326,7.77718026 9.5041073,7.68566953 9.74409013,7.68566953 C9.97292704,7.68566953 10.1672446,7.76567382 10.3272232,7.92583262 L12.111412,9.7098412 C12.2716009,9.87003004 12.3516052,10.0645579 12.3516052,10.2931845 C12.3516052,10.5159828 12.2716009,10.7077468 12.1117124,10.867485 Z" id="Shape"></path>
                </g>
            </g>
        </g>
    </g>
</svg>