<?xml version="1.0" encoding="UTF-8"?>
<svg width="20px" height="4px" viewBox="0 0 20 4" version="1.1" xmlns="http://www.w3.org/2000/svg" xmlns:xlink="http://www.w3.org/1999/xlink">
    <!-- Generator: Sketch 52.6 (67491) - http://www.bohemiancoding.com/sketch -->
    <title>more-icon-white</title>
    <desc>Created with Sketch.</desc>
    <g id="Symbols" stroke="none" stroke-width="1" fill="none" fill-rule="evenodd">
        <g id="icons/more-white" fill="#FFFFFF">
            <path d="M2.04545818,4 C0.91578282,4 0,3.1045695 0,2 C0,0.8954305 0.91578282,0 2.04545818,0 C3.17513353,0 4.09091635,0.8954305 4.09091635,2 C4.09091635,3.1045695 3.17513353,4 2.04545818,4 Z M10,4 C8.87032464,4 7.95454182,3.1045695 7.95454182,2 C7.95454182,0.8954305 8.87032464,0 10,0 C11.1296754,0 12.0454582,0.8954305 12.0454582,2 C12.0454582,3.1045695 11.1296754,4 10,4 Z M17.9545418,4 C16.8248665,4 15.9090836,3.1045695 15.9090836,2 C15.9090836,0.8954305 16.8248665,0 17.9545418,0 C19.0842172,0 20,0.8954305 20,2 C20,3.1045695 19.0842172,4 17.9545418,4 Z"></path>
        </g>
    </g>
</svg>