<?xml version="1.0" encoding="UTF-8"?>
<svg width="15px" height="15px" viewBox="0 0 15 15" version="1.1" xmlns="http://www.w3.org/2000/svg" xmlns:xlink="http://www.w3.org/1999/xlink">
    <!-- Generator: Sketch 52.6 (67491) - http://www.bohemiancoding.com/sketch -->
    <title>move-icon</title>
    <desc>Created with Sketch.</desc>
    <g id="Editor" stroke="none" stroke-width="1" fill="none" fill-rule="evenodd">
        <g id="Flows" transform="translate(-918.000000, -189.000000)" fill="#5D698D">
            <g id="Group" transform="translate(20.000000, 183.000000)">
                <g id="move-option" transform="translate(898.000000, 6.000000)">
                    <path d="M14.8408606,7.12338527 L12.6979909,4.98050299 C12.5920348,4.87445687 12.4664355,4.82147779 12.3213103,4.82147779 C12.1762436,4.82147779 12.0507323,4.87445687 11.9446589,4.98050299 C11.8387321,5.08660776 11.7856368,5.21218021 11.7856368,5.35724966 L11.7856368,6.4287641 L8.57133224,6.4287641 L8.57133224,3.21439671 L9.64288437,3.21439671 C9.78795099,3.21439671 9.9135503,3.16135899 10.0195357,3.0553715 C10.1254918,2.94932537 10.1784699,2.8238702 10.1784699,2.67871279 C10.1784699,2.53352606 10.1254918,2.40795361 10.0195357,2.3019368 L7.87663669,0.159025208 C7.77070991,0.0530084028 7.64516923,0 7.49998534,0 C7.35480145,0 7.22931941,0.0530377216 7.12324604,0.159025208 L4.98043497,2.3019368 C4.8743616,2.40804156 4.82141287,2.53361401 4.82141287,2.67871279 C4.82141287,2.82372361 4.87439091,2.94929606 4.98043497,3.0553715 C5.08653765,3.16135899 5.21199038,3.21439671 5.35717427,3.21439671 L6.42860912,3.21439671 L6.42860912,6.42879341 L3.21433388,6.42879341 L3.21433388,5.35727898 C3.21433388,5.21209225 3.1612972,5.08654912 3.05525314,4.98053231 C2.94915046,4.87448619 2.82358046,4.8215071 2.67851384,4.8215071 C2.53347654,4.8215071 2.40790654,4.87448619 2.30186249,4.98053231 L0.1590221,7.12338527 C0.0530366849,7.22943139 0,7.3549452 0,7.50004398 C0,7.64514275 0.0530366849,7.77074452 0.1590221,7.87670269 L2.30186249,10.0195263 C2.40790654,10.1254552 2.53338858,10.1787568 2.67851384,10.1787568 C2.82369773,10.1787568 2.94923841,10.1254845 3.05525314,10.0195263 C3.1612972,9.91368543 3.21433388,9.78796639 3.21433388,9.64286761 L3.21433388,8.57129454 L6.42860912,8.57129454 L6.42860912,11.7856912 L5.35726222,11.7856912 C5.21207833,11.7856912 5.08650834,11.8387876 4.9804936,11.9447165 C4.87444955,12.0507626 4.8214715,12.1762764 4.8214715,12.3213752 C4.8214715,12.4664739 4.87444955,12.5920757 4.9804936,12.6982391 L7.12333399,14.8409748 C7.22949532,14.946933 7.35500667,15 7.50010261,15 C7.64516923,15 7.77088582,14.946933 7.87675396,14.8409748 L10.0195357,12.6982391 C10.125697,12.592105 10.1786751,12.4664739 10.1786751,12.3213752 C10.1786751,12.1762764 10.125697,12.0507919 10.0195357,11.9447165 C9.91357962,11.8387876 9.78798031,11.7856912 9.64288437,11.7856912 L8.57153747,11.7856912 L8.57153747,8.5713825 L11.7857834,8.5713825 L11.7857834,9.64307285 C11.7857834,9.7881423 11.8387614,9.91374407 11.9446882,10.0197316 C12.0508495,10.1256604 12.1764489,10.178874 12.3215448,10.178874 C12.4664941,10.178874 12.5920348,10.1256897 12.6981961,10.0197316 L14.8409779,7.87679065 C14.947022,7.77074452 15,7.64514275 15,7.50004398 C15,7.3549452 14.947022,7.22943139 14.8408606,7.12338527 Z" id="move-icon"></path>
                </g>
            </g>
        </g>
    </g>
</svg>