<?xml version="1.0" encoding="UTF-8"?>
<svg width="554px" height="303px" viewBox="0 0 554 303" version="1.1" xmlns="http://www.w3.org/2000/svg" xmlns:xlink="http://www.w3.org/1999/xlink">
    <!-- Generator: Sketch 52.6 (67491) - http://www.bohemiancoding.com/sketch -->
    <title>no-projects-search-result</title>
    <desc>Created with Sketch.</desc>
    <defs>
        <linearGradient x1="6.67626709%" y1="-23.9873289%" x2="84.183352%" y2="97.25077%" id="linearGradient-1">
            <stop stop-color="#F4F6FB" offset="0%"></stop>
            <stop stop-color="#E6EAF6" offset="100%"></stop>
        </linearGradient>
        <linearGradient x1="55.4961862%" y1="15.5264318%" x2="5.2576552%" y2="76.2802732%" id="linearGradient-2">
            <stop stop-color="#FEFFFF" offset="0%"></stop>
            <stop stop-color="#E9ECF6" offset="100%"></stop>
        </linearGradient>
        <linearGradient x1="50%" y1="-2.48949813e-15%" x2="50%" y2="100%" id="linearGradient-3">
            <stop stop-color="#DFE1EE" offset="0%"></stop>
            <stop stop-color="#BDC1D8" offset="100%"></stop>
        </linearGradient>
        <linearGradient x1="84.183352%" y1="97.25077%" x2="6.67626709%" y2="-23.9873289%" id="linearGradient-4">
            <stop stop-color="#FFFFFF" offset="0%"></stop>
            <stop stop-color="#EEF1FB" offset="100%"></stop>
        </linearGradient>
        <ellipse id="path-5" cx="39.62424" cy="44.2037037" rx="39.6031096" ry="44.03516"></ellipse>
        <linearGradient x1="10.2775147%" y1="-22.5045802%" x2="126.281822%" y2="150.101333%" id="linearGradient-7">
            <stop stop-color="#F8FAFF" offset="0%"></stop>
            <stop stop-color="#CAD2E9" offset="100%"></stop>
        </linearGradient>
        <linearGradient x1="50%" y1="-2.48949813e-15%" x2="50%" y2="100%" id="linearGradient-8">
            <stop stop-color="#FFFFFF" offset="0%"></stop>
            <stop stop-color="#DADDED" offset="100%"></stop>
        </linearGradient>
        <ellipse id="path-9" cx="39.62424" cy="44.2037037" rx="39.6031096" ry="44.03516"></ellipse>
    </defs>
    <g id="Editor" stroke="none" stroke-width="1" fill="none" fill-rule="evenodd">
        <g id="No-search-results" transform="translate(-391.000000, -199.000000)">
            <g id="no-projects-search-result" transform="translate(391.000000, 199.000000)">
                <g id="bubbles" fill-rule="nonzero">
                    <rect id="bg-safespace" fill="#F7F9FD" x="0" y="0" width="554" height="303"></rect>
                    <circle id="bubble-5" fill="#E6EAF6" cx="478" cy="214" r="5"></circle>
                    <circle id="bubble-4" stroke="#E6EAF6" stroke-width="4" fill="#E6EAF6" cx="421" cy="50" r="13"></circle>
                    <circle id="bubble-3" stroke="#E6EAF6" stroke-width="4" fill="#E6EAF6" cx="394" cy="77" r="7"></circle>
                    <circle id="bubble-2" stroke="#E6EAF6" stroke-width="4" fill="#E6EAF6" cx="128" cy="123" r="5"></circle>
                    <circle id="bubble-1" fill="#E6EAF6" cx="97" cy="263" r="5"></circle>
                </g>
                <path d="M163,165.382752 C132.333333,135.856292 137.166667,111.788179 177.5,93.1784135 C217.833333,74.568648 256.333333,76.5257635 293,99.0497602 C349.333333,85.0165867 391,90 418,114 C445,138 442.666667,166.03876 411,198.116279 C455,212.65579 475.5,232.098048 472.5,256.443054 C469.5,280.788059 407,285.182986 285,269.627832 C187.333333,291.080115 129.5,284.487726 111.5,249.850665 C93.5,215.213603 110.666667,187.057632 163,165.382752 Z" id="bg-shape" fill="url(#linearGradient-1)" fill-rule="nonzero"></path>
                <g id="bucket" transform="translate(232.000000, 143.000000)">
                    <path d="M1.00210367,57.4373156 C1.00070274,57.3410839 1,57.2446933 1,57.1481481 C1,46.1489009 10.1213839,37.1565938 21.6271454,36.5177738 L53.3388418,29.0102897 C58.3841277,26.6912195 64.0745249,25.2827071 70.1168942,25.0382235 L70.2783505,25 L70.2783505,25.031971 C70.8526047,25.0107293 71.4300079,25 72.0103093,25 C94.0106008,25 111.845361,40.4213031 111.845361,59.4444444 C111.845361,78.4675858 94.0106008,93.8888889 72.0103093,93.8888889 C71.4300079,93.8888889 70.8526047,93.8781596 70.2783505,93.8569179 L70.2783505,93.8888889 L70.1604939,93.8524091 C61.9380389,93.5274275 54.3656879,91.0470032 48.181502,87.0493206 L19.4742268,78.1636476 L19.4742268,77.6329135 C9.04218837,76.3073477 1,67.8982011 1,57.7222222 C1,57.6270975 1.00070276,57.5321272 1.00210367,57.4373156 Z" id="Combined-Shape" fill="#DCE1F3" fill-rule="nonzero" opacity="0.719517299"></path>
                    <path d="M7.0016762,57.2517109 C7.00055988,57.1679369 7,57.0840322 7,57 C7,46.5065898 15.7304474,38 26.5,38 C26.9683857,38 27.4329144,38.0160904 27.8930357,38.0477349 L53.7166051,31.7357052 C58.2631924,29.5672318 63.4037364,28.2523706 68.8658923,28.0327798 L69,28 L69,28.027611 C69.497416,28.0092645 69.9974887,28 70.5,28 C90.1061086,28 106,42.1030304 106,59.5 C106,76.8969696 90.1061086,91 70.5,91 C69.9974887,91 69.497416,90.9907355 68.999987,90.9723885 L69,91 L68.9019081,90.968652 C61.4880921,90.6772112 54.6653664,88.3680416 49.1142115,84.6449497 L24,76.6190132 L24,75.8987293 C14.4466705,74.9256359 7,67.0595644 7,57.5 C7,57.4171085 7.00055989,57.3343443 7.0016762,57.2517109 Z" id="Combined-Shape" fill="#D4DAEF" fill-rule="nonzero" opacity="0.719517299"></path>
                    <g id="Group-5">
                        <g id="Group-4" fill="url(#linearGradient-2)" fill-rule="nonzero">
                            <path d="M19.361633,68.5034888 C8.50385418,67.2726196 0,55.9770235 0,42.2244334 C0,28.7666565 8.14316913,17.6616619 18.6666667,16.0383366 L18.6666667,15.4352398 L69.3333333,0 L69.3333333,88.4074074 L19.361633,68.5034888 Z" id="Combined-Shape"></path>
                        </g>
                        <path d="M51.9587629,80.3703704 L48.5,85 C37.103121,79.3302469 29.0189285,73.9598765 24.2474227,68.8888889 C10.5972791,54.381999 8.86756872,28.7496994 20.7835052,14.9259259 C34.6391753,-1.14814815 54.6133525,-1.72222222 68.1237113,4.37453345" id="Path-5" stroke="url(#linearGradient-3)" stroke-width="2.3" fill-rule="nonzero"></path>
                        <g id="Oval-Copy" transform="translate(31.821306, 0.000000)">
                            <g>
                                <mask id="mask-6" fill="white">
                                    <use xlink:href="#path-5"></use>
                                </mask>
                                <use id="Mask" fill="url(#linearGradient-4)" fill-rule="nonzero" xlink:href="#path-5"></use>
                                <ellipse fill="url(#linearGradient-7)" fill-rule="nonzero" opacity="0.900000036" mask="url(#mask-6)" cx="-9.82130584" cy="41.5646766" rx="22" ry="27.0500276"></ellipse>
                                <mask id="mask-10" fill="white">
                                    <use xlink:href="#path-9"></use>
                                </mask>
                                <use id="Mask" stroke="url(#linearGradient-8)" stroke-width="2.3" fill-rule="nonzero" xlink:href="#path-9"></use>
                            </g>
                        </g>
                    </g>
                </g>
            </g>
        </g>
    </g>
</svg>