<?xml version="1.0" encoding="UTF-8"?>
<svg width="12px" height="15px" viewBox="0 0 12 15" version="1.1" xmlns="http://www.w3.org/2000/svg" xmlns:xlink="http://www.w3.org/1999/xlink">
    <!-- Generator: Sketch 52.6 (67491) - http://www.bohemiancoding.com/sketch -->
    <title>icons/notification-white</title>
    <desc>Created with Sketch.</desc>
    <g id="icons/notification-white" stroke="none" stroke-width="1" fill="none" fill-rule="evenodd">
        <path d="M4.15874413,13.1906739 L7.81938279,13.1906739 C7.8194164,13.194587 7.81968531,13.1984674 7.81968531,13.2023804 C7.81968531,14.1831848 7.00008867,14.9782826 5.98906346,14.9782826 C4.97803825,14.9782826 4.15844161,14.1831848 4.15844161,13.2023804 C4.15844161,13.1984674 4.15871052,13.194587 4.15874413,13.1906739 Z M11.833803,10.9708043 C12.0073156,11.2181087 12.0257021,11.5382283 11.8814668,11.8027174 C11.7372651,12.0671413 11.4541727,12.2325652 11.1457693,12.2325652 L0.832290352,12.2325652 C0.52388699,12.2325652 0.240794553,12.0671739 0.0965928728,11.8027174 C-0.0476088078,11.5382609 -0.0292558667,11.2181413 0.144290352,10.970837 L1.79185338,8.62294565 C1.79185338,8.17470652 1.79185338,6.46705435 1.79185338,5.69370652 C1.79185338,3.71827174 3.24207186,2.07159783 5.16600464,1.70047826 L5.16600464,0.798423913 C5.16600464,0.35748913 5.53447523,4.52970994e-14 5.98902985,4.52970994e-14 C6.44358447,4.52970994e-14 6.81205506,0.35748913 6.81208867,0.798423913 L6.81208867,1.70044565 C8.73602144,2.07153261 10.1862399,3.71820652 10.1862399,5.69367391 C10.1862399,6.14797826 10.1862399,7.90418478 10.1862399,8.62291304 L11.833803,10.9708043 Z" fill="#FFFFFF"></path>
    </g>
</svg>