<?xml version="1.0" encoding="UTF-8"?>
<svg width="18px" height="12px" viewBox="0 0 18 12" version="1.1" xmlns="http://www.w3.org/2000/svg" xmlns:xlink="http://www.w3.org/1999/xlink">
    <!-- Generator: Sketch 52.6 (67491) - http://www.bohemiancoding.com/sketch -->
    <title>script-icon-white</title>
    <desc>Created with Sketch.</desc>
    <g id="script-icon-white" stroke="none" stroke-width="1" fill="none" fill-rule="evenodd">
        <path d="M17.898722,5.76313872 C18.0337593,5.89349408 18.0337593,6.10496686 17.898722,6.23548913 L13.7288158,10.2609827 C13.6639771,10.3235733 13.5757964,10.3589579 13.4843306,10.3589579 C13.392692,10.3589579 13.3046842,10.3235733 13.2398455,10.2609827 L12.3357348,9.38821941 C12.2006974,9.25786405 12.2006974,9.04655819 12.3357348,8.91620283 L15.3573909,5.99898011 L12.3355619,3.08225811 C12.2005245,2.95190276 12.2005245,2.74059689 12.3355619,2.61024153 L13.2396726,1.73747819 C13.36935,1.61229699 13.5987926,1.61229699 13.72847,1.73747819 L17.898722,5.76313872 Z M5.66426523,8.91620283 C5.79964843,9.04655819 5.79964843,9.25786405 5.66461104,9.3880525 L4.76050027,10.2608158 C4.69566157,10.3234064 4.60765385,10.358791 4.51601516,10.358791 C4.42437647,10.358791 4.33636874,10.3234064 4.27153005,10.2608158 L0.101278043,6.23532222 C-0.0337593476,6.10479995 -0.0337593476,5.89349408 0.101278043,5.76313872 L4.27170295,1.73781201 C4.33654165,1.67522141 4.42454937,1.64000376 4.51618806,1.64000376 C4.60782675,1.64000376 4.69583447,1.67522141 4.76067317,1.73781201 L5.66478394,2.61057535 C5.72979554,2.67316595 5.76610521,2.75812226 5.76610521,2.84658364 C5.76610521,2.93521193 5.72962264,3.02000133 5.66478394,3.08259193 L2.64295492,5.99931393 L5.66426523,8.91620283 Z M11.3714537,0.383184501 C11.4153711,0.460796846 11.4252266,0.552095669 11.3992911,0.637051978 L7.99672925,11.7604866 C7.95229313,11.9058637 7.81448929,12 7.66527384,12 C7.63294094,12 7.59991643,11.9954935 7.56723773,11.9861466 L6.83430111,11.7773444 C6.74646629,11.7521412 6.67229082,11.6945579 6.62854632,11.6166117 C6.58480181,11.5389994 6.57477342,11.4477005 6.6007089,11.3627442 L10.0032708,0.239476482 C10.0572165,0.0627206254 10.2498307,-0.0385926937 10.4327623,0.0138165027 L11.1656989,0.222618747 C11.2535337,0.247654987 11.3275363,0.305405248 11.3714537,0.383184501 Z" id="icons/trigger" fill="#FFFFFF"></path>
    </g>
</svg>