<?xml version="1.0" encoding="UTF-8"?>
<svg width="20px" height="14px" viewBox="0 0 20 14" version="1.1" xmlns="http://www.w3.org/2000/svg" xmlns:xlink="http://www.w3.org/1999/xlink">
    <!-- Generator: Sketch 52.6 (67491) - http://www.bohemiancoding.com/sketch -->
    <title>script-dark</title>
    <desc>Created with Sketch.</desc>
    <g id="Editor" stroke="none" stroke-width="1" fill="none" fill-rule="evenodd">
        <g id="Projects" transform="translate(-321.000000, -581.000000)" fill="#202842">
            <g id="Group-7" transform="translate(306.000000, 460.000000)">
                <g id="Group-6-Copy" transform="translate(0.000000, 102.000000)">
                    <g id="Group-29">
                        <g id="script-dark" transform="translate(15.000000, 19.000000)">
                            <path d="M19.8874688,6.40348747 C20.0375104,6.54832676 20.0375104,6.78329651 19.8874688,6.92832125 L15.2542397,11.4010919 C15.1821967,11.4706371 15.0842183,11.5099532 14.9825896,11.5099532 C14.8807688,11.5099532 14.7829825,11.4706371 14.7109395,11.4010919 L13.706372,10.4313549 C13.5563304,10.2865156 13.5563304,10.0517313 13.706372,9.90689203 L17.0637677,6.66553345 L13.7061798,3.42473124 C13.5561383,3.27989195 13.5561383,3.04510765 13.7061798,2.90026837 L14.7107474,1.93053133 C14.8548334,1.7914411 15.1097695,1.7914411 15.2538555,1.93053133 L19.8874688,6.40348747 Z M6.29362804,9.90689203 C6.44405381,10.0517313 6.44405381,10.2865156 6.29401227,10.4311694 L5.28944474,11.4009065 C5.21740175,11.4704516 5.11961539,11.5097678 5.01779462,11.5097678 C4.91597385,11.5097678 4.81818749,11.4704516 4.7461445,11.4009065 L0.112531159,6.9281358 C-0.0375103862,6.78311106 -0.0375103862,6.54832676 0.112531159,6.40348747 L4.74633661,1.93090223 C4.81837961,1.86135712 4.91616597,1.8222264 5.01798673,1.8222264 C5.1198075,1.8222264 5.21759386,1.86135712 5.28963686,1.93090223 L6.29420438,2.90063927 C6.36643949,2.97018439 6.40678357,3.06458028 6.40678357,3.16287071 C6.40678357,3.26134659 6.36624738,3.35555703 6.29420438,3.42510214 L2.93661657,6.66590436 L6.29362804,9.90689203 Z M12.6349485,0.425760557 C12.6837457,0.511996496 12.6946962,0.613439632 12.665879,0.707835531 L8.88525472,13.0672074 C8.83588125,13.2287375 8.68276587,13.3333333 8.51697093,13.3333333 C8.48104549,13.3333333 8.44435159,13.3283261 8.40804192,13.3179407 L7.5936679,13.0859382 C7.49607366,13.0579347 7.41365647,12.9939532 7.36505146,12.9073463 C7.31644646,12.8211104 7.30530381,12.7196673 7.334121,12.6252714 L11.1147453,0.26608498 C11.1746851,0.0696895838 11.3887008,-0.0428807708 11.5919581,0.0153516696 L12.4063321,0.247354163 C12.5039263,0.275172208 12.5861514,0.339339164 12.6349485,0.425760557 Z" id="icons/trigger"></path>
                        </g>
                    </g>
                </g>
            </g>
        </g>
    </g>
</svg>