<?xml version="1.0" encoding="UTF-8"?>
<svg width="46px" height="30px" viewBox="0 0 46 30" version="1.1" xmlns="http://www.w3.org/2000/svg" xmlns:xlink="http://www.w3.org/1999/xlink">
    <!-- Generator: Sketch 52.6 (67491) - http://www.bohemiancoding.com/sketch -->
    <title>snackbar-info-icon</title>
    <desc>Created with Sketch.</desc>
    <g id="Editor" stroke="none" stroke-width="1" fill="none" fill-rule="evenodd">
        <g id="snackbars" transform="translate(-912.000000, -469.000000)" fill-rule="nonzero">
            <g id="Group-18" transform="translate(68.000000, 424.000000)">
                <g id="Group-15-Copy-7" transform="translate(844.000000, 45.000000)">
                    <g id="Oval">
                        <g id="snackbar-info-icon" transform="translate(-28.000000, -10.000000)">
                            <path d="M32,64 C49.673112,64 74,49.673112 74,32 C74,14.326888 49.673112,3.55271368e-15 32,3.55271368e-15 C14.326888,3.55271368e-15 -6.39488462e-14,14.326888 -6.39488462e-14,32 C-6.39488462e-14,49.673112 14.326888,64 32,64 Z" id="Oval" fill="#869FFD"></path>
                            <g id="info-(1)" transform="translate(48.000000, 18.000000)" fill="#FFFFFF">
                                <path d="M6.71468,13.3307143 L6.49642,14.1842411 C5.84164,14.4314732 5.3186,14.6196429 4.92912,14.7490179 C4.53922,14.8787946 4.08618,14.9433482 3.57,14.9433482 C2.77732,14.9433482 2.16076,14.7575893 1.72102,14.3886161 C1.28128,14.0181696 1.06134,13.54875 1.06134,12.9792857 C1.06134,12.7588393 1.0773,12.5320982 1.11048,12.3010714 C1.14394,12.0697768 1.19714,11.8092857 1.26994,11.518125 L2.08824,8.74741071 C2.16104,8.48209821 2.22292,8.23071429 2.27248,7.99299107 C2.32274,7.75674107 2.34696,7.539375 2.34696,7.34370536 C2.34696,6.98986607 2.27038,6.74236607 2.11792,6.60321429 C1.96546,6.46446429 1.67454,6.39401786 1.24264,6.39401786 C1.0311,6.39401786 0.81368,6.42642857 0.59206,6.48910714 C0.36946,6.55205357 0.1792,6.61285714 0.01946,6.669375 L0.23828,5.81517857 C0.77434,5.60638393 1.28674,5.42758929 1.77688,5.27919643 C2.26702,5.13040179 2.73014,5.0559375 3.1682,5.0559375 C3.95542,5.0559375 4.56288,5.23794643 4.98946,5.60196429 C5.41604,5.96625 5.62926,6.43848214 5.62926,7.02040179 C5.62926,7.14080357 5.61526,7.35294643 5.58516,7.65616071 C5.55576,7.96004464 5.50102,8.23848214 5.42122,8.49174107 L4.60642,11.2513393 C4.53964,11.4729911 4.47958,11.7263839 4.42736,12.0115179 C4.37346,12.2947768 4.3477,12.5112054 4.3477,12.6563839 C4.3477,13.0228125 4.4331,13.2729911 4.60432,13.4059821 C4.7768,13.5389732 5.07388,13.6051339 5.49584,13.6051339 C5.69394,13.6051339 5.91934,13.5715179 6.1698,13.5054911 C6.41956,13.4394643 6.6017,13.3814732 6.71468,13.3307143 Z M6.92132,1.74508929 C6.92132,2.22589286 6.7319,2.63651786 6.35124,2.97415179 C5.97156,3.31299107 5.51404,3.48254464 4.97882,3.48254464 C4.44192,3.48254464 3.98328,3.31299107 3.59926,2.97415179 C3.21594,2.63638393 3.02386,2.22589286 3.02386,1.74508929 C3.02386,1.26522321 3.21594,0.853928571 3.59926,0.512008929 C3.98258,0.170625 4.44206,0 4.97882,0 C5.5139,0 5.97156,0.171026786 6.35124,0.512008929 C6.73218,0.853928571 6.92132,1.26535714 6.92132,1.74508929 Z" id="Shape"></path>
                            </g>
                        </g>
                    </g>
                </g>
            </g>
        </g>
    </g>
</svg>