<?xml version="1.0" encoding="UTF-8"?>
<svg width="46px" height="30px" viewBox="0 0 46 30" version="1.1" xmlns="http://www.w3.org/2000/svg" xmlns:xlink="http://www.w3.org/1999/xlink">
    <!-- Generator: Sketch 52.6 (67491) - http://www.bohemiancoding.com/sketch -->
    <title>snackbar-info-icon</title>
    <desc>Created with Sketch.</desc>
    <g id="Editor" stroke="none" stroke-width="1" fill="none" fill-rule="evenodd">
        <g id="snackbars" transform="translate(-68.000000, -424.000000)">
            <g id="Group-18" transform="translate(68.000000, 424.000000)">
                <g id="Group-15-Copy-4">
                    <g id="Oval">
                        <g id="snackbar-info-icon" transform="translate(-28.000000, -10.000000)">
                            <path d="M32,64 C49.673112,64 74,49.673112 74,32 C74,14.326888 49.673112,3.55271368e-15 32,3.55271368e-15 C14.326888,3.55271368e-15 -6.39488462e-14,14.326888 -6.39488462e-14,32 C-6.39488462e-14,49.673112 14.326888,64 32,64 Z" id="Oval" fill="#FBBE58" fill-rule="nonzero"></path>
                            <g id="error" transform="translate(44.000000, 17.000000)" fill="#FFFFFF">
                                <path d="M7.99096509,10.5397534 C8.44106776,10.5397534 8.81232033,10.9197982 8.7926078,11.4007399 C8.81232033,11.8379596 8.42135524,12.2213677 7.99096509,12.2213677 C7.54414784,12.2213677 7.16960986,11.8379596 7.16960986,11.3805605 C7.16960986,10.9231614 7.54414784,10.5397534 7.99096509,10.5397534 Z M15.5934292,13.519574 C15.0743326,14.4377354 14.1511294,14.9859417 13.1227926,14.9859417 L2.84599589,14.9859417 C1.82094456,14.9859417 0.904312115,14.4444619 0.391786448,13.5431166 C-0.127310062,12.6316816 -0.130595483,11.5386323 0.381930185,10.6204709 L5.53347023,1.48930493 C6.04271047,0.577869955 6.96262834,0.0296636771 7.99425051,0.0296636771 C9.02587269,0.0296636771 9.94579055,0.574506726 10.4550308,1.49266816 L15.6,10.6137444 C16.1125257,11.5218161 16.1092402,12.608139 15.5934292,13.519574 Z M14.476386,12.8603812 C14.7589322,12.3592601 14.7622177,11.7673318 14.4862423,11.2763004 L9.33798768,2.14849776 C9.0587269,1.64737668 8.55605749,1.34804933 7.99425051,1.34804933 C7.42915811,1.34804933 6.92977413,1.64401345 6.65051335,2.14513453 L1.49897331,11.2729372 C1.2164271,11.7774215 1.21971253,12.3760762 1.50225873,12.8771973 C1.78151951,13.3715919 2.28418891,13.6641928 2.84271047,13.6641928 L13.1195072,13.6641928 C13.6845996,13.6641928 14.1905544,13.3648655 14.476386,12.8603812 Z M7.78726899,4.637287 C8.17823409,4.54311659 8.56919918,4.73482063 8.73675565,5.11150224 C8.7926078,5.24603139 8.81232033,5.38056054 8.81232033,5.53190583 C8.7926078,5.95230942 8.75646817,6.372713 8.73675565,6.79311659 C8.70061602,7.44221973 8.66119097,8.09132287 8.62505133,8.74042601 C8.60533881,8.95230942 8.60533881,9.14401345 8.60533881,9.35253363 C8.5889117,9.69894619 8.32607803,9.96464126 7.99096509,9.96464126 C7.65585216,9.96464126 7.3963039,9.71576233 7.37659138,9.372713 C7.32073922,8.36038117 7.26488706,7.3682287 7.20903491,6.35589686 C7.18932238,6.09020179 7.17289528,5.8211435 7.15318275,5.55544843 C7.15318275,5.11486547 7.3963039,4.75163677 7.78726899,4.637287 Z" id="Combined-Shape"></path>
                            </g>
                        </g>
                    </g>
                </g>
            </g>
        </g>
    </g>
</svg>