<?xml version="1.0" encoding="UTF-8"?>
<svg width="46px" height="30px" viewBox="0 0 46 30" version="1.1" xmlns="http://www.w3.org/2000/svg" xmlns:xlink="http://www.w3.org/1999/xlink">
    <!-- Generator: Sketch 52.6 (67491) - http://www.bohemiancoding.com/sketch -->
    <title>snackbar-error-icon</title>
    <desc>Created with Sketch.</desc>
    <g id="Editor" stroke="none" stroke-width="1" fill="none" fill-rule="evenodd">
        <g id="snackbars" transform="translate(-68.000000, -469.000000)">
            <g id="Group-18" transform="translate(68.000000, 424.000000)">
                <g id="Group-15-Copy-5" transform="translate(0.000000, 45.000000)">
                    <g id="Oval">
                        <g id="snackbar-error-icon" transform="translate(-28.000000, -10.000000)">
                            <path d="M32,64 C49.673112,64 74,49.673112 74,32 C74,14.326888 49.673112,3.55271368e-15 32,3.55271368e-15 C14.326888,3.55271368e-15 -6.39488462e-14,14.326888 -6.39488462e-14,32 C-6.39488462e-14,49.673112 14.326888,64 32,64 Z" id="Oval" fill="#FD8694" fill-rule="nonzero"></path>
                            <path d="M51.7115203,25.5 L55.8242683,21.3868056 C55.9373984,21.2735788 55.9998211,21.1225202 56,20.9614446 C56,20.8002797 55.9375772,20.6490422 55.8242683,20.5359942 L55.4638618,20.1756537 C55.3505528,20.0621585 55.1995041,20 55.0382602,20 C54.8772846,20 54.7262358,20.0621585 54.6129268,20.1756537 L50.5001789,24.2885797 L46.387252,20.1756537 C46.274122,20.0621585 46.1229837,20 45.9618293,20 C45.8008537,20 45.6497154,20.0621585 45.5365854,20.1756537 L45.176,20.5359942 C44.9413333,20.7706761 44.9413333,21.152392 45.176,21.3868056 L49.2888374,25.5 L45.176,29.6130155 C45.0627805,29.7264212 45.0004472,29.8774798 45.0004472,30.0385554 C45.0004472,30.1996309 45.0627805,30.3506895 45.176,30.4640058 L45.5364959,30.8243463 C45.649626,30.937752 45.8008537,31 45.9617398,31 C46.1228943,31 46.2740325,30.937752 46.3871626,30.8243463 L50.5000894,26.7113308 L54.6128374,30.8243463 C54.7261463,30.937752 54.8771951,31 55.0381707,31 L55.0383496,31 C55.1994146,31 55.3504634,30.937752 55.4637724,30.8243463 L55.8241789,30.4640058 C55.9373089,30.3507789 55.9997317,30.1996309 55.9997317,30.0385554 C55.9997317,29.8774798 55.9373089,29.7264212 55.8241789,29.6131049 L51.7115203,25.5 Z" id="Path" fill="#FFFFFF"></path>
                        </g>
                    </g>
                </g>
            </g>
        </g>
    </g>
</svg>