<?xml version="1.0" encoding="UTF-8"?>
<svg width="91px" height="54px" viewBox="0 0 91 54" version="1.1" xmlns="http://www.w3.org/2000/svg" xmlns:xlink="http://www.w3.org/1999/xlink">
    <!-- Generator: Sketch 52.6 (67491) - http://www.bohemiancoding.com/sketch -->
    <title>text-only-icon</title>
    <desc>Created with Sketch.</desc>
    <defs>
        <path d="M18.919029,31.6514097 L13.4968748,37 L8.07472053,31.6514097 L3.69142647,31.6514097 C1.65270793,31.6514097 -1.08259662e-15,29.9987017 -1.33226763e-15,27.9599832 L-1.33226763e-15,3.69142647 C-1.58193864e-15,1.65270793 1.65270793,5.23329441e-14 3.69142647,5.19584376e-14 L69.3085735,5.2846616e-14 C71.3472921,5.24721095e-14 73,1.65270793 73,3.69142647 L73,27.9599832 C73,29.9987017 71.3472921,31.6514097 69.3085735,31.6514097 L18.919029,31.6514097 Z" id="path-1"></path>
        <filter x="-19.9%" y="-33.8%" width="139.7%" height="178.4%" filterUnits="objectBoundingBox" id="filter-2">
            <feOffset dx="0" dy="2" in="SourceAlpha" result="shadowOffsetOuter1"></feOffset>
            <feGaussianBlur stdDeviation="4.5" in="shadowOffsetOuter1" result="shadowBlurOuter1"></feGaussianBlur>
            <feColorMatrix values="0 0 0 0 0.203921569   0 0 0 0 0.341176471   0 0 0 0 0.862745098  0 0 0 0.131453804 0" type="matrix" in="shadowBlurOuter1"></feColorMatrix>
        </filter>
    </defs>
    <g id="Editor" stroke="none" stroke-width="1" fill="none" fill-rule="evenodd">
        <g id="Edit-Tooltip-Configuration--Text-Only" transform="translate(-963.000000, -547.000000)" fill-rule="nonzero">
            <g id="properties-panel" transform="translate(928.000000, 148.000000)">
                <g id="components/templates" transform="translate(21.000000, 364.000000)">
                    <g id="Group-22" transform="translate(0.000000, 19.000000)">
                        <g id="text-only-icon" transform="translate(23.000000, 23.000000)">
                            <g id="Combined-Shape">
                                <use fill="black" fill-opacity="1" filter="url(#filter-2)" xlink:href="#path-1"></use>
                                <use fill="#FFFFFF" xlink:href="#path-1"></use>
                            </g>
                            <g id="Group-14" transform="translate(6.200000, 8.200000)" fill-opacity="0.33">
                                <rect id="Rectangle" fill="#5D698D" x="1" y="7" width="59" height="2" rx="1"></rect>
                                <rect id="Rectangle-Copy" fill="#001F7D" x="1" y="0.2" width="39" height="3" rx="1.5"></rect>
                                <rect id="Rectangle-Copy-6" fill="#5D698D" x="0.8" y="12.8" width="34" height="2" rx="1"></rect>
                            </g>
                            <g id="Group-13" transform="translate(26.200000, 24.300000)" fill="#DCDFF1" opacity="0">
                                <rect id="Rectangle-Copy-7" x="0" y="0.0214285714" width="14.1041096" height="3.46428571" rx="1.73214286"></rect>
                            </g>
                        </g>
                    </g>
                </g>
            </g>
        </g>
    </g>
</svg>