<?xml version="1.0" encoding="UTF-8"?>
<svg width="23px" height="16px" viewBox="0 0 23 16" version="1.1" xmlns="http://www.w3.org/2000/svg" xmlns:xlink="http://www.w3.org/1999/xlink">
    <!-- Generator: Sketch 52.6 (67491) - http://www.bohemiancoding.com/sketch -->
    <title>behance-logo</title>
    <desc>Created with Sketch.</desc>
    <g id="V4" stroke="none" stroke-width="1" fill="none" fill-rule="evenodd">
        <g id="Landing-Page" transform="translate(-1447.000000, -5258.000000)" fill="#F7F9FD" fill-rule="nonzero">
            <g id="Group-25" transform="translate(0.000000, 4550.000000)">
                <g id="Group-17" transform="translate(297.000000, 705.000000)">
                    <g id="Group-15" transform="translate(1150.000000, 2.000000)">
                        <g id="behance-logo" transform="translate(0.000000, 1.800000)">
                            <path d="M20.2777726,2.04823881 L14.6515719,2.04823881 L14.6515719,0.609850746 L20.2782425,0.609850746 L20.2782425,2.04823881 L20.2777726,2.04823881 Z M10.9060789,7.94659701 C11.2691067,8.52533731 11.4505162,9.22803582 11.4505162,10.0530269 C11.4505162,10.9061731 11.2459803,11.6715224 10.8298608,12.3475701 C10.5651334,12.7949373 10.2364559,13.1728299 9.84153132,13.4770567 C9.39675174,13.8288896 8.87016821,14.0701433 8.26480858,14.1990448 C7.6575174,14.3281612 7.00021462,14.393391 6.29216937,14.393391 L0,14.393391 L0,0.0132716418 L6.74738979,0.0132716418 C8.44814965,0.0417492537 9.65390951,0.548919403 10.3659223,1.54493731 C10.7931613,2.15580896 11.0048492,2.88881194 11.0048492,3.74082985 C11.0048492,4.61998209 10.7906032,5.32343284 10.3591879,5.85789851 C10.1192053,6.15755821 9.76468677,6.43013731 9.29537123,6.67617313 C10.0062355,6.94402388 10.545609,7.36581493 10.9060789,7.94659701 Z M3.22214617,5.68262687 L6.17857309,5.68262687 C6.78612529,5.68262687 7.27726218,5.56377313 7.65553364,5.32617313 C8.03354408,5.08894925 8.22215777,4.66726567 8.22215777,4.0618209 C8.22215777,3.3929194 7.97241299,2.94893731 7.47172274,2.73524776 C7.04135151,2.58678806 6.49070186,2.51032836 5.8225406,2.51032836 L3.22214617,2.51032836 L3.22214617,5.68262687 Z M8.50682715,9.84761194 C8.50682715,9.10063881 8.21020302,8.58422687 7.61815545,8.30713433 C7.28707657,8.14964776 6.8199536,8.06915821 6.22101508,8.06340896 L3.22214617,8.06340896 L3.22214617,11.8956358 L6.17460557,11.8956358 C6.78116589,11.8956358 7.25063805,11.8139104 7.58944316,11.6434209 C8.20044084,11.3299522 8.50682715,10.7333731 8.50682715,9.84761194 Z M22.365261,7.50820299 C22.4332309,7.97867463 22.4639791,8.66127761 22.4515023,9.55348657 L15.1649478,9.55348657 C15.205145,10.5886746 15.552355,11.312597 16.2108585,11.7268657 C16.6079756,11.9866567 17.0894548,12.1135164 17.6532599,12.1135164 C18.247761,12.1135164 18.7323202,11.9588239 19.105319,11.6408418 C19.3085499,11.4722866 19.487819,11.2343642 19.6428132,10.9341672 L22.3135789,10.9341672 C22.2436253,11.5455761 21.9220476,12.1656896 21.3441473,12.7958507 C20.4487935,13.7974567 19.1930742,14.2996836 17.5803828,14.2996836 C16.2481323,14.2996836 15.0740081,13.8761194 14.0548782,13.0320537 C13.0391415,12.1850328 12.5290023,10.8113373 12.5290023,8.90575522 C12.5290023,7.11881194 12.9869896,5.7510806 13.9060441,4.79906866 C14.8284919,3.84528358 16.0189559,3.37056716 17.4863631,3.37056716 C18.3561369,3.37056716 19.1401914,3.5305791 19.8396752,3.85226866 C20.5369664,4.1742806 21.1132483,4.68107463 21.5671114,5.37759403 C21.9778538,5.99099104 22.242007,6.70024478 22.365261,7.50820299 Z M19.7364153,7.77653731 C19.6874478,7.06072836 19.4552436,6.51895522 19.0371404,6.14869254 C18.6224826,5.77740896 18.1044606,5.59101493 17.4863631,5.59101493 C16.8136601,5.59101493 16.2942285,5.79025075 15.925145,6.18184478 C15.5535557,6.57263284 15.3223434,7.10392836 15.2275928,7.77659104 L19.7364153,7.77659104 L19.7364153,7.77653731 Z" id="Behance"></path>
                        </g>
                    </g>
                </g>
            </g>
        </g>
    </g>
</svg>