<?xml version="1.0" encoding="UTF-8"?>
<svg width="160px" height="34px" viewBox="0 0 160 34" version="1.1" xmlns="http://www.w3.org/2000/svg" xmlns:xlink="http://www.w3.org/1999/xlink">
    <!-- Generator: Sketch 52.6 (67491) - http://www.bohemiancoding.com/sketch -->
    <title>boardme-blue</title>
    <desc>Created with Sketch.</desc>
    <g id="V4" stroke="none" stroke-width="1" fill="none" fill-rule="evenodd">
        <g id="Landing-Page" transform="translate(-60.000000, -60.000000)" fill="#3457DC" fill-rule="nonzero">
            <g id="Group-8" transform="translate(60.000000, 60.000000)">
                <g id="boardme-blue">
                    <path d="M44.7599277,10.4257543 C46.0650314,10.4257543 47.2526578,10.7274566 48.3228429,11.3308704 C49.3930278,11.9342841 50.2326319,12.7825486 50.8416802,13.8756894 C51.4507284,14.9688302 51.7552482,16.241227 51.7552482,17.692918 C51.7552482,19.144609 51.4507284,20.4170058 50.8416802,21.5101466 C50.2326319,22.6032874 49.3930278,23.4515519 48.3228429,24.0549656 C47.2526578,24.6583794 46.0650314,24.9600817 44.7599277,24.9600817 C42.8283745,24.9600817 41.3579797,24.347932 40.3486997,23.1236143 L40.3486997,24.7501997 L36.4595104,24.7501997 L36.4595104,5.28364571 L40.5314133,5.28364571 L40.5314133,12.1310454 C41.5580948,10.994179 42.9675854,10.4257543 44.7599277,10.4257543 Z M44.0551753,21.6019699 C45.0992582,21.6019699 45.9562634,21.2477976 46.6262165,20.5394424 C47.2961699,19.8310872 47.6311412,18.8822552 47.6311412,17.692918 C47.6311412,16.5035808 47.2961699,15.5547488 46.6262165,14.8463936 C45.9562634,14.1380384 45.0992582,13.7838661 44.0551753,13.7838661 C43.0110924,13.7838661 42.1540872,14.1380384 41.4841341,14.8463936 C40.8141809,15.5547488 40.4792093,16.5035808 40.4792093,17.692918 C40.4792093,18.8822552 40.8141809,19.8310872 41.4841341,20.5394424 C42.1540872,21.2477976 43.0110924,21.6019699 44.0551753,21.6019699 Z M61.1519473,24.9600817 C59.6728298,24.9600817 58.3459941,24.6496344 57.171401,24.0287304 C55.9968078,23.4078264 55.0788987,22.5464444 54.4176461,21.4445584 C53.7563938,20.3426725 53.4257724,19.0921382 53.4257724,17.692918 C53.4257724,16.2936978 53.7563938,15.0431635 54.4176461,13.9412775 C55.0788987,12.8393916 55.9968078,11.9780096 57.171401,11.3571056 C58.3459941,10.7362016 59.6728298,10.4257543 61.1519473,10.4257543 C62.6310644,10.4257543 63.9535497,10.7362016 65.1194423,11.3571056 C66.2853348,11.9780096 67.1988936,12.8393916 67.8601461,13.9412775 C68.5213987,15.0431635 68.8520199,16.2936978 68.8520199,17.692918 C68.8520199,19.0921382 68.5213987,20.3426725 67.8601461,21.4445584 C67.1988936,22.5464444 66.2853348,23.4078264 65.1194423,24.0287304 C63.9535497,24.6496344 62.6310644,24.9600817 61.1519473,24.9600817 Z M61.1519473,21.6019699 C62.1960301,21.6019699 63.0530353,21.2477976 63.7229885,20.5394424 C64.3929416,19.8310872 64.7279132,18.8822552 64.7279132,17.692918 C64.7279132,16.5035808 64.3929416,15.5547488 63.7229885,14.8463936 C63.0530353,14.1380384 62.1960301,13.7838661 61.1519473,13.7838661 C60.1078641,13.7838661 59.2465088,14.1380384 58.5678548,14.8463936 C57.8892011,15.5547488 57.5498793,16.5035808 57.5498793,17.692918 C57.5498793,18.8822552 57.8892011,19.8310872 58.5678548,20.5394424 C59.2465088,21.2477976 60.1078641,21.6019699 61.1519473,21.6019699 Z M85.8182819,10.6356363 L85.8182819,24.7501997 L81.9290926,24.7501997 L81.9290926,23.1236143 C80.9198126,24.347932 79.4581183,24.9600817 77.5439666,24.9600817 C76.2214614,24.9600817 75.0251345,24.6627519 73.9549496,24.0680832 C72.8847644,23.4734146 72.0451604,22.6251501 71.4361121,21.5232642 C70.8270638,20.4213783 70.522544,19.144609 70.522544,17.692918 C70.522544,16.241227 70.8270638,14.9644577 71.4361121,13.8625718 C72.0451604,12.7606859 72.8847644,11.9124213 73.9549496,11.3177527 C75.0251345,10.7230841 76.2214614,10.4257543 77.5439666,10.4257543 C79.3363089,10.4257543 80.7370989,10.994179 81.7463789,12.1310454 L81.7463789,10.6356363 L85.8182819,10.6356363 Z M78.2487189,21.6019699 C79.2754004,21.6019699 80.1280551,21.2477976 80.8067092,20.5394424 C81.4853632,19.8310872 81.8246849,18.8822552 81.8246849,17.692918 C81.8246849,16.5035808 81.4853632,15.5547488 80.8067092,14.8463936 C80.1280551,14.1380384 79.2754004,13.7838661 78.2487189,13.7838661 C77.2046361,13.7838661 76.3432805,14.1380384 75.6646267,14.8463936 C74.9859727,15.5547488 74.646651,16.5035808 74.646651,17.692918 C74.646651,18.8822552 74.9859727,19.8310872 75.6646267,20.5394424 C76.3432805,21.2477976 77.2046361,21.6019699 78.2487189,21.6019699 Z M93.4661508,12.4983389 C93.9533894,11.816219 94.6102819,11.3002643 95.4368473,10.9504593 C96.263413,10.6006542 97.2161244,10.4257543 98.2950102,10.4257543 L98.2950102,14.20363 C97.8425742,14.1686495 97.5380544,14.1511595 97.3814421,14.1511595 C96.2155495,14.1511595 95.3019908,14.4790968 94.6407382,15.1349813 C93.9794856,15.7908658 93.6488645,16.7746777 93.6488645,18.0864467 L93.6488645,24.7501997 L89.5769615,24.7501997 L89.5769615,10.6356363 L93.4661508,10.6356363 L93.4661508,12.4983389 Z M115.130762,5.28364571 L115.130762,24.7501997 L111.241573,24.7501997 L111.241573,23.1236143 C110.232293,24.347932 108.770599,24.9600817 106.856447,24.9600817 C105.533942,24.9600817 104.337615,24.6627519 103.26743,24.0680832 C102.197245,23.4734146 101.357641,22.6251501 100.748593,21.5232642 C100.139544,20.4213783 99.8350246,19.144609 99.8350246,17.692918 C99.8350246,16.241227 100.139544,14.9644577 100.748593,13.8625718 C101.357641,12.7606859 102.197245,11.9124213 103.26743,11.3177527 C104.337615,10.7230841 105.533942,10.4257543 106.856447,10.4257543 C108.648789,10.4257543 110.049579,10.994179 111.05886,12.1310454 L111.05886,5.28364571 L115.130762,5.28364571 Z M107.561199,21.6019699 C108.587881,21.6019699 109.440536,21.2477976 110.119189,20.5394424 C110.797843,19.8310872 111.137165,18.8822552 111.137165,17.692918 C111.137165,16.5035808 110.797843,15.5547488 110.119189,14.8463936 C109.440536,14.1380384 108.587881,13.7838661 107.561199,13.7838661 C106.517116,13.7838661 105.655761,14.1380384 104.977107,14.8463936 C104.298453,15.5547488 103.959131,16.5035808 103.959131,17.692918 C103.959131,18.8822552 104.298453,19.8310872 104.977107,20.5394424 C105.655761,21.2477976 106.517116,21.6019699 107.561199,21.6019699 Z M136.87368,10.4257543 C138.631219,10.4257543 140.027659,10.9460815 141.063042,11.9867516 C142.098424,13.0274216 142.616107,14.5884032 142.616107,16.6697433 L142.616107,24.7501997 L138.544204,24.7501997 L138.544204,17.2993893 C138.544204,16.1800131 138.313639,15.3448661 137.852503,14.7939231 C137.391366,14.2429801 136.734474,13.9675128 135.881806,13.9675128 C134.92473,13.9675128 134.167781,14.2779601 133.610937,14.8988641 C133.054093,15.5197681 132.775675,16.4423651 132.775675,17.6666827 L132.775675,24.7501997 L128.703772,24.7501997 L128.703772,17.2993893 C128.703772,15.0781272 127.816315,13.9675128 126.041374,13.9675128 C125.101699,13.9675128 124.353451,14.2779601 123.796607,14.8988641 C123.239763,15.5197681 122.961345,16.4423651 122.961345,17.6666827 L122.961345,24.7501997 L118.889442,24.7501997 L118.889442,10.6356363 L122.778631,10.6356363 L122.778631,12.2622217 C123.300673,11.6675531 123.940164,11.2128133 124.697124,10.8979888 C125.454084,10.5831642 126.284987,10.4257543 127.189859,10.4257543 C128.181738,10.4257543 129.077896,10.6225167 129.878359,11.0160474 C130.678823,11.4095781 131.322664,11.9823753 131.809903,12.7344561 C132.384149,11.9998655 133.110646,11.4314408 133.989415,11.029165 C134.868185,10.6268892 135.829597,10.4257543 136.87368,10.4257543 Z M153.344005,21.6806757 C154.074863,21.6806757 154.723055,21.5713632 155.2886,21.3527351 C155.854144,21.1341069 156.380528,20.7886796 156.867767,20.3164428 L159.034228,22.6776151 C157.711723,24.1992671 155.780199,24.9600817 153.239597,24.9600817 C151.656071,24.9600817 150.255281,24.6496344 149.037184,24.0287304 C147.819088,23.4078264 146.879427,22.5464444 146.218175,21.4445584 C145.556922,20.3426725 145.226301,19.0921382 145.226301,17.692918 C145.226301,16.311188 145.552572,15.0650262 146.205124,13.9543952 C146.857676,12.8437641 147.753833,11.9780096 148.893624,11.3571056 C150.033414,10.7362016 151.316747,10.4257543 152.74366,10.4257543 C154.083567,10.4257543 155.301645,10.7099667 156.397932,11.2783999 C157.494219,11.8468331 158.368626,12.6688626 159.021177,13.7445132 C159.673729,14.8201637 160,16.0925605 160,17.5617418 L149.611427,19.5818558 C149.907251,20.281466 150.372731,20.8061657 151.007881,21.1559707 C151.643032,21.5057758 152.421732,21.6806757 153.344005,21.6806757 Z M152.74366,13.5215136 C151.716979,13.5215136 150.881725,13.8538234 150.237874,14.518453 C149.594023,15.1830826 149.254701,16.1013071 149.219898,17.273154 L156.058607,15.9351564 C155.867192,15.2005658 155.475666,14.6146511 154.88402,14.1773948 C154.292372,13.7401385 153.578926,13.5215136 152.74366,13.5215136 Z" id="boardme"></path>
                    <path d="M25.7874848,30.5885714 L23.5333148,33.5871897 C23.3326723,33.854095 22.9547493,33.9069811 22.6892001,33.705314 C22.6448463,33.6716302 22.6053429,33.6319402 22.5718135,33.5873726 L20.315732,30.5885714 L1.20527307,30.5885714 C0.539619134,30.5885714 8.1519096e-17,30.0461964 0,29.3771429 L0,1.21142857 C-8.1519096e-17,0.542375046 0.539619134,5.6966322e-14 1.20527307,5.68434189e-14 L29.2278719,5.68434189e-14 C29.8935259,5.67205157e-14 30.433145,0.542375046 30.433145,1.21142857 L30.433145,29.3771429 C30.433145,30.0461964 29.8935259,30.5885714 29.2278719,30.5885714 L25.7874848,30.5885714 Z M10.2448211,23.8421688 C10.5035253,23.9932168 10.7740199,24.1286228 11.0563059,24.2483873 C11.9053862,24.6086235 12.8120538,24.7887388 13.7763359,24.7887388 C14.7491515,24.7887388 15.6600858,24.6129119 16.5091661,24.2612528 C17.3582464,23.9095937 18.0985138,23.4142763 18.7299906,22.775286 C19.3614674,22.1362956 19.8606679,21.3708053 20.2276071,20.4787918 C20.5945463,19.5867785 20.7780132,18.6004323 20.7780132,17.5197238 C20.7780132,16.4647464 20.5945463,15.4934099 20.2276071,14.605685 C19.8606679,13.7179601 19.3614674,12.9481813 18.7299906,12.2963253 C18.0985138,11.6444694 17.3582464,11.1362867 16.5091661,10.771762 C15.6600858,10.4072373 14.7491515,10.2249777 13.7763359,10.2249777 C13.4605975,10.2249777 13.1363305,10.2571412 12.8035252,10.321469 C12.4707198,10.3857969 12.1485862,10.4779988 11.8371145,10.5980776 C11.5256429,10.7181563 11.2355092,10.8725409 10.9667049,11.061236 C10.6979006,11.2499312 10.4696337,11.4643543 10.2818974,11.7045117 L10.2818974,5.27175503 L10.2448211,5.27175503 L10.2448211,5.14857143 L6.62900188,5.14857143 L6.62900188,24.8342857 L10.2448211,24.8342857 L10.2448211,23.8421688 Z M17.2579743,17.5197238 C17.2579743,18.051501 17.1662409,18.5446741 16.9827713,18.9992578 C16.7993017,19.4538416 16.5497014,19.84838 16.233963,20.1828851 C15.9182246,20.5173901 15.5491576,20.7811305 15.1267508,20.9741141 C14.704344,21.1670978 14.2542103,21.2635882 13.7763359,21.2635882 C13.2984616,21.2635882 12.8483278,21.1670978 12.425921,20.9741141 C12.0035142,20.7811305 11.6344472,20.5173901 11.3187088,20.1828851 C11.0029704,19.84838 10.7555035,19.4538416 10.5763006,18.9992578 C10.3970977,18.5446741 10.3074976,18.051501 10.3074976,17.5197238 C10.3074976,17.0394089 10.3970977,16.5741108 10.5763006,16.1238156 C10.7555035,15.6735203 11.0029704,15.2746934 11.3187088,14.9273228 C11.6344472,14.5799522 12.0035142,14.3012022 12.425921,14.0910645 C12.8483278,13.8809267 13.2984616,13.7758594 13.7763359,13.7758594 C14.2542103,13.7758594 14.704344,13.8702055 15.1267508,14.0589007 C15.5491576,14.2475958 15.9182246,14.509192 16.233963,14.843697 C16.5497014,15.178202 16.7993017,15.5748847 16.9827713,16.033757 C17.1662409,16.4926293 17.2579743,16.9879466 17.2579743,17.5197238 Z M22.2975518,25.7428571 C23.2960327,25.7428571 24.1054614,24.9292946 24.1054614,23.9257143 C24.1054614,22.922134 23.2960327,22.1085714 22.2975518,22.1085714 C21.2990709,22.1085714 20.4896422,22.922134 20.4896422,23.9257143 C20.4896422,24.9292946 21.2990709,25.7428571 22.2975518,25.7428571 Z" id="Combined-Shape"></path>
                </g>
            </g>
        </g>
    </g>
</svg>