<?xml version="1.0" encoding="utf-8"?>
<!-- Generator: Adobe Illustrator 22.1.0, SVG Export Plug-In . SVG Version: 6.00 Build 0)  -->
<svg version="1.1" id="Layer_1" xmlns="http://www.w3.org/2000/svg" xmlns:xlink="http://www.w3.org/1999/xlink" x="0px" y="0px"
	 viewBox="0 0 300 215" style="enable-background:new 0 0 300 215;" xml:space="preserve">
<style type="text/css">
	.st0{opacity:0;fill:#FFFFFF;}
	.st1{opacity:0.5317;fill:url(#bg1_1_);enable-background:new    ;}
	.st2{opacity:0.1;fill:url(#bg2_1_);enable-background:new    ;}
	.st3{fill:#E6EAF6;}
	.st4{opacity:0.2;fill:none;stroke:#FFB740;stroke-width:3.9;enable-background:new    ;}
	.st5{filter:url(#filter-4);}
	.st6{fill:#FFB740;}
	.st7{fill:#FFFFFF;}
	.st8{fill:#FBBE58;}
	.st9{fill:#DCDFF1;}
</style>
<filter  filterUnits="objectBoundingBox" height="359.9%" id="filter-4" width="358.7%" x="-129.3%" y="-93.9%">
	<feMorphology  in="SourceAlpha" operator="dilate" radius="0.3125" result="shadowSpreadOuter1"></feMorphology>
	<feOffset  dx="0" dy="3" in="shadowSpreadOuter1" result="shadowOffsetOuter1"></feOffset>
	<feGaussianBlur  in="shadowOffsetOuter1" result="shadowBlurOuter1" stdDeviation="3"></feGaussianBlur>
	<feComposite  in="shadowBlurOuter1" in2="SourceAlpha" operator="out" result="shadowBlurOuter1"></feComposite>
	
		<feColorMatrix  in="shadowBlurOuter1" type="matrix" values="0 0 0 0 0.525490196   0 0 0 0 0.623529412   0 0 0 0 0.992156863  0 0 0 0.15 0">
		</feColorMatrix>
</filter>
<title>card-hotspots-icon</title>
<desc>Created with Sketch.</desc>
<g>
	<rect x="-0.3" y="0.5" class="st0" width="300.1" height="214.6"/>
	<g id="hotspot_1_">
		<g id="card-hotspots-icon">
			<g id="bg-scale-1" transform="translate(51.000000, 0.000000)">
				
					<linearGradient id="bg1_1_" gradientUnits="userSpaceOnUse" x1="-577.7619" y1="489.5037" x2="-576.8167" y2="489.0068" gradientTransform="matrix(113.3818 0 0 -115 65570.5234 56362)">
					<stop  offset="0" style="stop-color:#EBF0FA"/>
					<stop  offset="1" style="stop-color:#FFFFFF;stop-opacity:0.5218"/>
				</linearGradient>
				<path id="bg1" class="st1" d="M103.9,147.5c29.7,0,56.4-25.7,56.4-55.7s-26.7-59.3-56.4-59.3S47,66.7,47,96.5
					S74.2,147.5,103.9,147.5z"/>
				
					<linearGradient id="bg2_1_" gradientUnits="userSpaceOnUse" x1="-578.825" y1="490.1893" x2="-577.8712" y2="489.4398" gradientTransform="matrix(137.3817 0 0 -139 79578.5547 68193)">
					<stop  offset="0" style="stop-color:#5D7BEE"/>
					<stop  offset="1" style="stop-color:#5373F0"/>
				</linearGradient>
				<path id="bg2" class="st2" d="M132,182.5c36,0,68.4-31.1,68.4-67.3S168,43.5,132,43.5s-69,41.4-69,77.3S96,182.5,132,182.5z"/>
			</g>
			<ellipse id="dot-1" class="st3" cx="50.5" cy="132" rx="4.5" ry="4.5"/>
			<ellipse id="dot-3" class="st3" cx="246.5" cy="57" rx="7.5" ry="7.5"/>
			<ellipse id="dot-2" class="st3" cx="88.2" cy="61.3" rx="2.8" ry="2.8"/>
			<g id="Group-23" transform="translate(21.000000, 38.000000)">
				<g id="Group-11" transform="translate(6.238268, 71.126029)">
					<ellipse id="Oval" class="st4" cx="60.6" cy="47.1" rx="12.7" ry="12.6"/>
					<g id="Oval_1_">
						<g class="st5">
							<ellipse id="path-3_2_" cx="60.6" cy="47.1" rx="4.2" ry="4.2"/>
						</g>
						<g>
							<ellipse id="path-3_1_" class="st6" cx="60.6" cy="47.1" rx="4.2" ry="4.2"/>
						</g>
					</g>
				</g>
				<g id="Group-13" transform="translate(0.236267, 0.175347)">
					<g id="hotspot">
						<g>
							
								<image style="overflow:visible;opacity:0.15;" width="179" height="96" xlink:href="317B29BD46EDDB5.png"  transform="matrix(1 0 0 1 30.7637 22.3247)">
							</image>
							<g>
								<g>
									<path id="path-5_13_" class="st7" d="M74.5,91.5l-5.6,5.6c-0.9,0.9-2.3,0.9-3.2,0L60,91.5H49.8c-2.1,0-3.8-1.7-3.8-3.8
										V36.2c0-2.1,1.7-3.8,3.8-3.8h141.1c2.1,0,3.8,1.7,3.8,3.8v51.5c0,2.1-1.7,3.8-3.8,3.8H74.5z"/>
								</g>
							</g>
						</g>
					</g>
					<path id="btn-1" class="st8" d="M142.2,65.5H179c1.2,0,2.2,1,2.2,2.2v11.2c0,1.2-1,2.2-2.2,2.2h-36.8c-1.2,0-2.2-1-2.2-2.2
						V67.8C140,66.5,141,65.5,142.2,65.5z"/>
					<path id="line-1" class="st9" d="M62.5,45.9h105.8c1.6,0,3,1.3,3,3l0,0c0,1.6-1.3,3-3,3H62.5c-1.6,0-3-1.3-3-3l0,0
						C59.5,47.3,60.8,45.9,62.5,45.9z"/>
				</g>
			</g>
		</g>
	</g>
</g>
</svg>
