<?xml version="1.0" encoding="utf-8"?>
<!-- Generator: Adobe Illustrator 22.1.0, SVG Export Plug-In . SVG Version: 6.00 Build 0)  -->
<svg version="1.1" id="Layer_1" xmlns="http://www.w3.org/2000/svg" xmlns:xlink="http://www.w3.org/1999/xlink" x="0px" y="0px"
	 viewBox="0 0 300 215" style="enable-background:new 0 0 300 215;" xml:space="preserve">
<style type="text/css">
	.st0{opacity:0;fill:#DCDFF1;}
	.st1{opacity:0.5317;fill:url(#bg6_1_);enable-background:new    ;}
	.st2{opacity:0.1;fill:url(#bg5_1_);enable-background:new    ;}
	.st3{fill:#E6EAF6;}
	.st4{filter:url(#filter-4);}
	.st5{fill:#FFFFFF;}
	.st6{fill:#DCDFF1;}
	.st7{fill:#FD8694;}
</style>
<filter  filterUnits="objectBoundingBox" height="140.4%" id="filter-4" width="130.2%" x="-15.1%" y="-14.9%">
	<feOffset  dx="0" dy="5" in="SourceAlpha" result="shadowOffsetOuter1"></feOffset>
	<feGaussianBlur  in="shadowOffsetOuter1" result="shadowBlurOuter1" stdDeviation="5.5"></feGaussianBlur>
	
		<feColorMatrix  in="shadowBlurOuter1" type="matrix" values="0 0 0 0 0.525490196   0 0 0 0 0.623529412   0 0 0 0 0.992156863  0 0 0 0.146427763 0">
		</feColorMatrix>
</filter>
<title>card-modal-icon</title>
<desc>Created with Sketch.</desc>
<g>
	<rect id="main-bg-2" x="0.6" y="0.3" class="st0" width="299.5" height="215.1"/>
	<g id="modal_1_">
		<g id="card-modal-icon" transform="translate(-14.000000, -17.000000)">
			<g id="Group-22">
				<g id="bg-scale-3">
					
						<linearGradient id="bg6_1_" gradientUnits="userSpaceOnUse" x1="-512.4803" y1="505.6605" x2="-513.4255" y2="506.1574" gradientTransform="matrix(119.9787 0 0 -122 61729.4648 61868)">
						<stop  offset="0" style="stop-color:#EBF0FA"/>
						<stop  offset="1" style="stop-color:#FFFFFF;stop-opacity:0.5218"/>
					</linearGradient>
					<path id="bg6" class="st1" d="M172.8,200c31.4,0,59.7-27.3,59.7-59.1S204.2,78,172.8,78s-60.3,36.3-60.3,67.9
						S141.3,200,172.8,200z"/>
					
						<linearGradient id="bg5_1_" gradientUnits="userSpaceOnUse" x1="-513.6144" y1="507.9279" x2="-512.6607" y2="507.1785" gradientTransform="matrix(127.8273 36.6539 37.4867 -130.7316 46702.7578 85272.2109)">
						<stop  offset="0" style="stop-color:#5D7BEE"/>
						<stop  offset="1" style="stop-color:#5373F0"/>
					</linearGradient>
					<path id="bg5" class="st2" d="M123.7,181.9c33.5,9.6,72-11,81.8-45.1c9.8-34.1-10.8-76-44.3-85.7s-75.4,20.5-85,54.3
						S90.2,172.3,123.7,181.9z"/>
				</g>
				<ellipse id="dot-7" class="st3" cx="83.3" cy="74.8" rx="2.8" ry="2.8"/>
				<ellipse id="dot-9" class="st3" cx="247" cy="179.5" rx="7.5" ry="7.5"/>
				<ellipse id="dot-8" class="st3" cx="202.5" cy="70" rx="4" ry="4"/>
				<g id="Group-21" transform="translate(41.951923, 52.443350)">
					<g id="modal">
						<g class="st4">
							<path id="path-3_2_" d="M62.5,32.6h120c1.7,0,3,1.3,3,3v88c0,1.7-1.3,3-3,3h-120c-1.7,0-3-1.3-3-3v-88
								C59.5,33.9,60.9,32.6,62.5,32.6z"/>
						</g>
						<g>
							
								<image style="overflow:visible;opacity:0.15;" width="156" height="124" xlink:href="E22BF6B180D59003.png"  transform="matrix(1 0 0 1 44.5481 22.5566)">
							</image>
							<g>
								<g>
									<path id="path-3_14_" class="st5" d="M62.5,32.6h120c1.7,0,3,1.3,3,3v88c0,1.7-1.3,3-3,3h-120c-1.7,0-3-1.3-3-3v-88
										C59.5,33.9,60.9,32.6,62.5,32.6z"/>
								</g>
							</g>
						</g>
					</g>
					<path id="close-modal-icon-card" class="st6" d="M178.9,42.7l-1.5-1.5c-0.1-0.1-0.1-0.1,0-0.2l1.5-1.5c0.3-0.3,0.3-0.7,0-0.9
						c-0.3-0.3-0.7-0.3-0.9,0l-1.5,1.5c-0.1,0.1-0.1,0.1-0.2,0l-1.5-1.5c-0.3-0.3-0.7-0.3-0.9,0c-0.3,0.3-0.3,0.7,0,0.9l1.5,1.5
						c0.1,0.1,0.1,0.1,0,0.2l-1.5,1.5c-0.3,0.3-0.3,0.7,0,0.9c0.3,0.3,0.7,0.3,0.9,0l1.5-1.5c0.1-0.1,0.1-0.1,0.2,0l1.5,1.5
						c0.3,0.3,0.7,0.3,0.9,0S179.2,42.9,178.9,42.7z"/>
					<path id="btn3" class="st7" d="M104.3,99h36.6c1,0,1.8,0.8,1.8,1.8v9c0,1-0.8,1.8-1.8,1.8h-36.6c-1,0-1.8-0.8-1.8-1.8v-9
						C102.5,99.8,103.3,99,104.3,99z"/>
					<path id="line-5" class="st6" d="M84.9,73h75.5c1.3,0,2.4,1.1,2.4,2.4v0c0,1.3-1.1,2.4-2.4,2.4H84.9c-1.3,0-2.4-1.1-2.4-2.4v0
						C82.5,74.1,83.6,73,84.9,73z"/>
					<path id="line-4" class="st6" d="M91.9,51h61.7c1.3,0,2.4,1.1,2.4,2.4v0c0,1.3-1.1,2.4-2.4,2.4H91.9c-1.3,0-2.4-1.1-2.4-2.4v0
						C89.5,52.1,90.6,51,91.9,51z"/>
					<path id="line-6" class="st6" d="M101.9,84h41.4c1.3,0,2.4,1.1,2.4,2.4v0c0,1.3-1.1,2.4-2.4,2.4h-41.4c-1.3,0-2.4-1.1-2.4-2.4
						v0C99.5,85.1,100.6,84,101.9,84z"/>
				</g>
			</g>
		</g>
	</g>
</g>
</svg>
