<?xml version="1.0" encoding="UTF-8"?>
<svg width="24px" height="23px" viewBox="0 0 24 23" version="1.1" xmlns="http://www.w3.org/2000/svg" xmlns:xlink="http://www.w3.org/1999/xlink">
    <!-- Generator: Sketch 52.6 (67491) - http://www.bohemiancoding.com/sketch -->
    <title>close-cookie-banner-icon</title>
    <desc>Created with Sketch.</desc>
    <g id="V4" stroke="none" stroke-width="1" fill="none" fill-rule="evenodd">
        <g id="Cookies" transform="translate(-1622.000000, -5447.000000)" fill="#FFFFFF">
            <path d="M1635.82596,5458.28706 L1645.06547,5449.40988 C1645.63951,5448.85882 1645.63951,5447.96471 1645.06547,5447.41365 C1644.49143,5446.86212 1643.5618,5446.86212 1642.98776,5447.41365 L1633.74824,5456.29082 L1624.50824,5447.41365 C1623.9342,5446.86212 1623.00457,5446.86212 1622.43053,5447.41365 C1621.85649,5447.96471 1621.85649,5448.85882 1622.43053,5449.40988 L1631.67053,5458.28706 L1622.43053,5467.16424 C1621.85649,5467.71529 1621.85649,5468.60941 1622.43053,5469.16047 C1622.71755,5469.43576 1623.09371,5469.57365 1623.46939,5469.57365 C1623.84506,5469.57365 1624.22122,5469.43576 1624.50824,5469.16 L1633.74824,5460.28282 L1642.98776,5469.16 C1643.27478,5469.43576 1643.65094,5469.57365 1644.02661,5469.57365 C1644.40229,5469.57365 1644.77845,5469.43576 1645.06547,5469.16 C1645.63951,5468.60894 1645.63951,5467.71482 1645.06547,5467.16376 L1635.82596,5458.28706 Z" id="close-cookie-banner-icon"></path>
        </g>
    </g>
</svg>