<?xml version="1.0" encoding="UTF-8"?>
<svg width="2111px" height="969px" viewBox="0 0 2111 969" version="1.1" xmlns="http://www.w3.org/2000/svg" xmlns:xlink="http://www.w3.org/1999/xlink">
    <!-- Generator: Sketch 52.6 (67491) - http://www.bohemiancoding.com/sketch -->
    <title>contact-bg</title>
    <desc>Created with Sketch.</desc>
    <defs>
        <linearGradient x1="2.11346233%" y1="2.69824783%" x2="97.4882976%" y2="77.6440416%" id="linearGradient-1">
            <stop stop-color="#F0F4FD" offset="0%"></stop>
            <stop stop-color="#F0F4FD" offset="100%"></stop>
        </linearGradient>
    </defs>
    <g id="V4" stroke="none" stroke-width="1" fill="none" fill-rule="evenodd">
        <g id="contact-bg" transform="translate(1088.251113, 562.865292) rotate(65.000000) translate(-1088.251113, -562.865292) translate(495.251113, -481.634708)" fill-rule="nonzero">
            <path d="M339.78222,2088.13198 C517.095485,2088.13198 676.544812,1934.97607 676.544812,1756.73887 C676.544812,1578.50168 517.095485,1404 339.78222,1404 C162.468955,1404 -4.43378667e-12,1607.65422 -4.43378667e-12,1784.48838 C-4.43378667e-12,1961.32254 162.468955,2088.13198 339.78222,2088.13198 Z" id="Mask" fill="url(#linearGradient-1)"></path>
            <path d="M697.462326,936.868587 C905.177625,936.868587 1091.96605,757.520009 1091.96605,548.800758 C1091.96605,340.081506 905.177625,135.73661 697.462326,135.73661 C489.747027,135.73661 299.421234,374.219696 299.421234,581.29597 C299.421234,788.372245 489.747027,936.868587 697.462326,936.868587 Z" id="Mask-Copy" fill="url(#linearGradient-1)" transform="translate(695.693640, 536.302599) rotate(75.000000) translate(-695.693640, -536.302599) "></path>
            <path d="M402.766708,1765.83198 C520.232231,1765.83198 624.244812,1664.13096 624.244812,1547.60393 C624.244812,1428.55646 517.793143,1315.3 402.766708,1315.3 C347.316432,1315.3 291.110332,1345.92353 247.321727,1396.91857 C204.974968,1446.23447 179.3,1509.01356 179.3,1565.90257 C179.3,1621.80203 204.057696,1672.4175 247.289495,1709.51777 C289.059429,1745.36351 345.099279,1765.83198 402.766708,1765.83198 Z" id="Mask-Copy-2" stroke="#DCDFF1" stroke-width="0.6"></path>
            <path d="M697.094652,826.831977 C912.509051,826.831977 1103.24481,640.256692 1103.24481,426.469763 C1103.24481,321.829671 1057.534,214.779519 980.353107,132.630408 C902.217134,49.4647357 799.97101,0.3 697.094652,0.3 C595.391711,0.3 492.317936,56.4826975 412.022954,150.031402 C334.37736,240.493405 287.3,355.652899 287.3,460.019578 C287.3,562.58422 332.706566,655.453976 411.99073,723.521936 C488.587591,789.282761 591.348953,826.831977 697.094652,826.831977 Z" id="Mask-Copy-3" stroke="#DCDFF1" stroke-width="0.6"></path>
        </g>
    </g>
</svg>