<?xml version="1.0" encoding="UTF-8"?>
<svg width="15px" height="8px" viewBox="0 0 15 8" version="1.1" xmlns="http://www.w3.org/2000/svg" xmlns:xlink="http://www.w3.org/1999/xlink">
    <!-- Generator: Sketch 52.6 (67491) - http://www.bohemiancoding.com/sketch -->
    <title>light-dd-arrow-up</title>
    <desc>Created with Sketch.</desc>
    <g id="V4" stroke="none" stroke-width="1" fill="none" fill-rule="evenodd">
        <g id="Contact" transform="translate(-1605.000000, -1528.000000)" fill="#869FFD">
            <g id="Group-5" transform="translate(0.000000, 1120.000000)">
                <g id="Group-16" transform="translate(294.000000, 292.000000)">
                    <g id="Group-13-Copy" transform="translate(0.000000, 80.000000)">
                        <path d="M1322.28279,39.4146999 L1316.22295,32.7396322 C1316.0828,32.5851213 1315.8957,32.5 1315.6962,32.5 C1315.49671,32.5 1315.30961,32.5851213 1315.16945,32.7396322 L1314.72319,33.2310916 C1314.4328,33.5513329 1314.4328,34.0718165 1314.72319,34.39157 L1319.81178,39.9968903 L1314.71754,45.60843 C1314.57739,45.762941 1314.5,45.9689149 1314.5,46.1885472 C1314.5,46.4084235 1314.57739,46.6143974 1314.71754,46.7690303 L1315.16381,47.2603678 C1315.30407,47.4148787 1315.49106,47.5 1315.69056,47.5 C1315.89005,47.5 1316.07715,47.4148787 1316.21731,47.2603678 L1322.28279,40.5792026 C1322.42328,40.4242039 1322.50044,40.2172543 1322.5,39.9972561 C1322.50044,39.7764043 1322.42328,39.5695767 1322.28279,39.4146999 Z" id="light-dd-arrow-up" transform="translate(1318.500000, 40.000000) scale(1, -1) rotate(-270.000000) translate(-1318.500000, -40.000000) "></path>
                    </g>
                </g>
            </g>
        </g>
    </g>
</svg>