<svg version="1.1" id="el_nCQM-_lBn" xmlns="http://www.w3.org/2000/svg" xmlns:xlink="http://www.w3.org/1999/xlink" x="0px" y="0px" viewBox="0 0 430 315" style="enable-background:new 0 0 430 315;" xml:space="preserve"><style>@-webkit-keyframes kf_el_4_Lhq5VJhvC_an_fvwepH4U5{0%{-webkit-transform: translate(-49.5px, 49.96249961853027px) rotate(0deg) translate(49.5px, -49.96249961853027px);transform: translate(-49.5px, 49.96249961853027px) rotate(0deg) translate(49.5px, -49.96249961853027px);}25%{-webkit-transform: translate(-49.5px, 49.96249961853027px) rotate(10deg) translate(49.5px, -49.96249961853027px);transform: translate(-49.5px, 49.96249961853027px) rotate(10deg) translate(49.5px, -49.96249961853027px);}75%{-webkit-transform: translate(-49.5px, 49.96249961853027px) rotate(-10deg) translate(49.5px, -49.96249961853027px);transform: translate(-49.5px, 49.96249961853027px) rotate(-10deg) translate(49.5px, -49.96249961853027px);}100%{-webkit-transform: translate(-49.5px, 49.96249961853027px) rotate(0deg) translate(49.5px, -49.96249961853027px);transform: translate(-49.5px, 49.96249961853027px) rotate(0deg) translate(49.5px, -49.96249961853027px);}}@keyframes kf_el_4_Lhq5VJhvC_an_fvwepH4U5{0%{-webkit-transform: translate(-49.5px, 49.96249961853027px) rotate(0deg) translate(49.5px, -49.96249961853027px);transform: translate(-49.5px, 49.96249961853027px) rotate(0deg) translate(49.5px, -49.96249961853027px);}25%{-webkit-transform: translate(-49.5px, 49.96249961853027px) rotate(10deg) translate(49.5px, -49.96249961853027px);transform: translate(-49.5px, 49.96249961853027px) rotate(10deg) translate(49.5px, -49.96249961853027px);}75%{-webkit-transform: translate(-49.5px, 49.96249961853027px) rotate(-10deg) translate(49.5px, -49.96249961853027px);transform: translate(-49.5px, 49.96249961853027px) rotate(-10deg) translate(49.5px, -49.96249961853027px);}100%{-webkit-transform: translate(-49.5px, 49.96249961853027px) rotate(0deg) translate(49.5px, -49.96249961853027px);transform: translate(-49.5px, 49.96249961853027px) rotate(0deg) translate(49.5px, -49.96249961853027px);}}@-webkit-keyframes kf_el_kVncz3ecgI_an_Yge5TtYo2{0%{-webkit-transform: translate(-49.5px, 50px) scale(1, 1) translate(49.5px, -50px);transform: translate(-49.5px, 50px) scale(1, 1) translate(49.5px, -50px);}50%{-webkit-transform: translate(-49.5px, 50px) scale(1.3, 1.3) translate(49.5px, -50px);transform: translate(-49.5px, 50px) scale(1.3, 1.3) translate(49.5px, -50px);}100%{-webkit-transform: translate(-49.5px, 50px) scale(1, 1) translate(49.5px, -50px);transform: translate(-49.5px, 50px) scale(1, 1) translate(49.5px, -50px);}}@keyframes kf_el_kVncz3ecgI_an_Yge5TtYo2{0%{-webkit-transform: translate(-49.5px, 50px) scale(1, 1) translate(49.5px, -50px);transform: translate(-49.5px, 50px) scale(1, 1) translate(49.5px, -50px);}50%{-webkit-transform: translate(-49.5px, 50px) scale(1.3, 1.3) translate(49.5px, -50px);transform: translate(-49.5px, 50px) scale(1.3, 1.3) translate(49.5px, -50px);}100%{-webkit-transform: translate(-49.5px, 50px) scale(1, 1) translate(49.5px, -50px);transform: translate(-49.5px, 50px) scale(1, 1) translate(49.5px, -50px);}}#el_nCQM-_lBn *{-webkit-animation-duration: 4s;animation-duration: 4s;-webkit-animation-iteration-count: infinite;animation-iteration-count: infinite;-webkit-animation-timing-function: cubic-bezier(0, 0, 1, 1);animation-timing-function: cubic-bezier(0, 0, 1, 1);}#el_T4WmpGsyXR{-webkit-transform: translate(83px, 0px);transform: translate(83px, 0px);}#el_QtKgvN9HM5{fill: #E6EAF6;}#el_sJTiVNyebp{fill: #E6EAF6;stroke: #E6EAF6;stroke-width: 4;}#el_kNkJA51IHt{fill: #E6EAF6;stroke: #E6EAF6;stroke-width: 4;}#el_DeTh0Jytwd{fill: #E6EAF6;stroke: #E6EAF6;stroke-width: 4;}#el_inHsOrocmk{fill: #E6EAF6;}#el_aCeaNNwxMa{fill: url(#error-bubble-bg-shape_1_);}#el_gUbIwCgJ61{fill: #DCE1F3;}#el_oO4VeK26P5{-webkit-transform: translate(151px, 121px);transform: translate(151px, 121px);}#el_DIlMZqT-xC{-webkit-transform: translate(0px, 10px);transform: translate(0px, 10px);}#el_nm6iibGq5U{fill-rule: evenodd;clip-rule: evenodd;fill: url(#env-bg_1_);}#el_sX7KJ-tQb_{fill: url(#bot-env_1_);}#el_nL6_DIaW_l{fill: url(#top-env_1_);}#el_oyFUyGwptE{-webkit-transform: translate(69px, 0px);transform: translate(69px, 0px);}#el_kVncz3ecgI{fill-rule: evenodd;clip-rule: evenodd;fill: #EA4D67;}#el_4_Lhq5VJhvC{fill-rule: evenodd;clip-rule: evenodd;fill: #FFFFFF;}#el_kVncz3ecgI_an_Yge5TtYo2{-webkit-animation-fill-mode: backwards;animation-fill-mode: backwards;-webkit-transform: translate(-49.5px, 50px) scale(1, 1) translate(49.5px, -50px);transform: translate(-49.5px, 50px) scale(1, 1) translate(49.5px, -50px);-webkit-animation-name: kf_el_kVncz3ecgI_an_Yge5TtYo2;animation-name: kf_el_kVncz3ecgI_an_Yge5TtYo2;-webkit-animation-timing-function: cubic-bezier(0.42, 0, 0.58, 1);animation-timing-function: cubic-bezier(0.42, 0, 0.58, 1);}#el_4_Lhq5VJhvC_an_fvwepH4U5{-webkit-animation-fill-mode: backwards;animation-fill-mode: backwards;-webkit-transform: translate(-49.5px, 49.96249961853027px) rotate(0deg) translate(49.5px, -49.96249961853027px);transform: translate(-49.5px, 49.96249961853027px) rotate(0deg) translate(49.5px, -49.96249961853027px);-webkit-animation-name: kf_el_4_Lhq5VJhvC_an_fvwepH4U5;animation-name: kf_el_4_Lhq5VJhvC_an_fvwepH4U5;-webkit-animation-timing-function: cubic-bezier(0, 0, 0.58, 1);animation-timing-function: cubic-bezier(0, 0, 0.58, 1);}</style>

<g id="el_T4WmpGsyXR">
	<circle id="el_QtKgvN9HM5" cx="322.5" cy="213" r="5"/>
	<circle id="el_sJTiVNyebp" cx="265.5" cy="49" r="13"/>
	<circle id="el_kNkJA51IHt" cx="238.5" cy="76" r="7"/>
	<circle id="el_DeTh0Jytwd" cx="-27.5" cy="122" r="5"/>
	<circle id="el_inHsOrocmk" cx="-58.5" cy="262" r="5"/>
	
		<linearGradient id="error-bubble-bg-shape_1_" gradientUnits="userSpaceOnUse" x1="-549.1915" y1="540.8971" x2="-548.4164" y2="539.6847" gradientTransform="matrix(368.1971 0 0 -201.3857 202154.625 108970.625)">
		<stop offset="0" style="stop-color:#F4F6FB"/>
		<stop offset="1" style="stop-color:#E6EAF6"/>
	</linearGradient>
	<path id="el_aCeaNNwxMa" d="M7.5,164.4c-30.7-29.5-25.8-53.6,14.5-72.2s78.8-16.7,115.5,5.9&#10;&#9;&#9;c56.3-14,98-9,125,15s24.7,52-7,84.1c44,14.5,64.5,34,61.5,58.3s-65.5,28.7-187.5,13.2C31.8,290.1-26,283.5-44,248.9&#10;&#9;&#9;S-44.8,186.1,7.5,164.4z"/>
	<ellipse id="el_gUbIwCgJ61" cx="133.5" cy="229" rx="58" ry="5"/>
	<g id="el_oO4VeK26P5">
		<g id="el_DIlMZqT-xC">
			
				<linearGradient id="env-bg_1_" gradientUnits="userSpaceOnUse" x1="-694.9572" y1="406.2333" x2="-695.9572" y2="406.2333" gradientTransform="matrix(87.8621 0 0 -60.9375 61084.7422 24821.3125)">
				<stop offset="0" style="stop-color:#F8F9FD"/>
				<stop offset="0.4682" style="stop-color:#E4EAFA"/>
				<stop offset="1" style="stop-color:#F9FAFD"/>
			</linearGradient>
			<polygon id="el_nm6iibGq5U" points="-63.5,36 -63.5,96.9 -19.6,96.9 24.4,96.9 24.4,36 &#9;&#9;&#9;"/>
			
				<linearGradient id="bot-env_1_" gradientUnits="userSpaceOnUse" x1="-695.4572" y1="401.1187" x2="-695.4572" y2="402.1187" gradientTransform="matrix(87.8621 0 0 -29.275 61084.7422 11839.6875)">
				<stop offset="0" style="stop-color:#FFFFFF"/>
				<stop offset="1" style="stop-color:#F3F6FD"/>
			</linearGradient>
			<path id="el_sX7KJ-tQb_" d="M-14.9,70.5c-2.6,2.3-6.7,2.3-9.3,0l-3.3-2.9c-10.2,9.1-36,29.3-36,29.3h33.9h20.1h33.9&#10;&#9;&#9;&#9;&#9;c0,0-25.8-20.2-36-29.3L-14.9,70.5z"/>
			
				<linearGradient id="top-env_1_" gradientUnits="userSpaceOnUse" x1="-695.4572" y1="402.8287" x2="-695.4572" y2="403.8287" gradientTransform="matrix(87.8621 0 0 -36.2555 61084.7422 14676.9971)">
				<stop offset="0" style="stop-color:#FFFFFF"/>
				<stop offset="1" style="stop-color:#F3F6FD"/>
			</linearGradient>
			<path id="el_nL6_DIaW_l" d="M-63.5,36l39.3,34.5c2.6,2.3,6.7,2.3,9.3,0L24.4,36H-63.5z"/>
		</g>
		<g id="el_oyFUyGwptE">
			<g id="el_kVncz3ecgI_an_Yge5TtYo2" data-animator-group="true" data-animator-type="2"><circle id="el_kVncz3ecgI" cx="-49.5" cy="50" r="14"/></g>
			<g id="el_4_Lhq5VJhvC_an_fvwepH4U5" data-animator-group="true" data-animator-type="1"><path id="el_4_Lhq5VJhvC" d="M-47.9,50l4.1-4.1c0.5-0.5,0.5-1.2,0-1.6c-0.5-0.5-1.2-0.5-1.6,0l-4.1,4.1l-4.1-4.1&#10;&#9;&#9;&#9;&#9;c-0.5-0.5-1.2-0.5-1.6,0c-0.5,0.5-0.5,1.2,0,1.6l4.1,4.1l-4.1,4.1c-0.5,0.5-0.5,1.2,0,1.6c0.2,0.2,0.5,0.3,0.8,0.3&#10;&#9;&#9;&#9;&#9;c0.3,0,0.6-0.1,0.8-0.3l4.1-4.1l4.1,4.1c0.2,0.2,0.5,0.3,0.8,0.3c0.3,0,0.6-0.1,0.8-0.3c0.5-0.5,0.5-1.2,0-1.6L-47.9,50z"/></g>
		</g>
	</g>
</g>
</svg>