<?xml version="1.0" encoding="UTF-8"?>
<svg width="80px" height="23px" viewBox="0 0 80 23" version="1.1" xmlns="http://www.w3.org/2000/svg" xmlns:xlink="http://www.w3.org/1999/xlink">
    <!-- Generator: Sketch 52.6 (67491) - http://www.bohemiancoding.com/sketch -->
    <title>planeeet-white-logo</title>
    <desc>Created with Sketch.</desc>
    <g id="V4" stroke="none" stroke-width="1" fill="none" fill-rule="evenodd">
        <g id="Landing-Page" transform="translate(-969.000000, -5255.000000)" fill="#F7F9FD" fill-rule="nonzero">
            <g id="Group-25" transform="translate(0.000000, 4550.000000)">
                <g id="Group-17" transform="translate(297.000000, 705.000000)">
                    <g id="Group-12" transform="translate(597.000000, 0.000000)">
                        <path d="M98.9822222,15.0905556 C98.7651416,15.0929356 98.5571738,15.005157 98.4097778,14.8489394 C98.2557664,14.6987233 98.1702742,14.4938517 98.1727407,14.2809091 L98.1727407,5.60712121 C98.1736471,5.38203651 98.2578743,5.1649242 98.4097778,4.99611111 C98.552489,4.82228161 98.7623216,4.71419455 98.9893333,4.69757576 C99.8094815,4.62013468 100.599605,4.58141414 101.359704,4.58141414 C102.80958,4.58141414 103.896,4.86291246 104.618963,5.42590909 C105.341926,5.98890572 105.704198,6.80513468 105.705778,7.87459596 C105.705778,9.05867003 105.355753,9.95311448 104.655704,10.5579293 C103.955654,11.1627441 102.919802,11.4667003 101.548148,11.469798 C101.232099,11.469798 100.812148,11.4508249 100.288296,11.4128788 C100.2555,11.4075763 100.222107,11.4180948 100.198603,11.4411312 C100.1751,11.4641676 100.164368,11.4968964 100.169778,11.5290404 L100.169778,14.2832323 C100.162787,14.7294435 99.7954129,15.089512 99.3401481,15.0963636 L98.9822222,15.0905556 Z M100.167407,6.34474747 L100.167407,9.76686869 C100.167407,9.83308081 100.206519,9.87489899 100.285926,9.89464646 C100.639578,9.940512 100.99586,9.96417976 101.352593,9.96550505 C102.134815,9.96550505 102.731358,9.79745791 103.142222,9.46136364 C103.553086,9.12526936 103.759704,8.64319865 103.762074,8.01515152 C103.762074,6.75673401 102.960494,6.12752525 101.357333,6.12752525 C101.00058,6.12827579 100.644261,6.15194607 100.290667,6.19838384 C100.216503,6.20689946 100.162833,6.27187858 100.169778,6.34474747 L100.167407,6.34474747 Z M107.615111,15.0905556 C107.159846,15.0837039 106.792472,14.7236354 106.785481,14.2774242 L106.785481,5.25166667 C106.792472,4.80545549 107.159846,4.44538697 107.615111,4.43853535 L107.992,4.43853535 C108.447789,4.44417095 108.81588,4.80494181 108.82163,5.25166667 L108.82163,14.2809091 C108.81588,14.7276339 108.447789,15.0884048 107.992,15.0940404 L107.615111,15.0905556 Z M112.264593,15.2322727 C111.655699,15.2509911 111.065971,15.0223127 110.634963,14.6003535 C110.205926,14.1798485 109.991012,13.6331145 109.990222,12.9601515 C109.990222,12.1377273 110.311407,11.4992256 110.953778,11.0446465 C111.596148,10.5900673 112.578667,10.3627778 113.901333,10.3627778 L114.493926,10.3627778 C114.529527,10.3664829 114.56493,10.3542164 114.590246,10.3294042 C114.615561,10.304592 114.628077,10.2698936 114.624296,10.235 L114.624296,10.1188384 C114.624296,9.68323232 114.518815,9.37888889 114.306667,9.20348485 C114.094519,9.02808081 113.714074,8.9409596 113.176,8.9409596 C112.480934,8.95950307 111.790614,9.05933448 111.119704,9.23833333 C110.955901,9.28609228 110.778609,9.25177339 110.64563,9.14656566 C110.503388,9.04637472 110.420869,8.88374974 110.425185,8.71212121 C110.425588,8.50191823 110.496835,8.29773442 110.627852,8.13131313 C110.752828,7.96257158 110.939813,7.84802972 111.149333,7.81186869 C111.828825,7.6574107 112.523538,7.57638852 113.221037,7.57025253 C114.45679,7.57025253 115.321185,7.78786195 115.814222,8.22308081 C116.307259,8.65829966 116.553383,9.42031987 116.552593,10.5091414 L116.552593,14.2855556 C116.555468,14.4985743 116.469913,14.7035959 116.315556,14.8535859 C116.168336,15.0100476 115.960252,15.0978754 115.743111,15.095202 L115.584296,15.095202 C115.362813,15.0996255 115.148975,15.0157912 114.991704,14.8628788 C114.828122,14.7118753 114.734035,14.5022936 114.730963,14.2820707 L114.730963,14.0834343 C114.731335,14.0796374 114.729956,14.0758763 114.727204,14.0731791 C114.724452,14.0704819 114.720615,14.0691308 114.716741,14.0694949 C114.696593,14.0694949 114.687111,14.0694949 114.687111,14.0834343 C114.096099,14.8493266 113.288593,15.2322727 112.264593,15.2322727 Z M113.901333,11.5406566 C112.520198,11.5406566 111.830025,11.9572896 111.830815,12.7905556 C111.819245,13.061154 111.91527,13.3255933 112.098667,13.5281818 C112.274492,13.7167613 112.525557,13.8207055 112.786074,13.8127778 C113.28264,13.8333537 113.765596,13.6507449 114.119407,13.3086364 C114.45758,12.9733165 114.626272,12.5117677 114.625481,11.9239899 L114.625481,11.6684343 C114.629262,11.6335408 114.616746,11.5988423 114.591431,11.5740301 C114.566115,11.549218 114.530713,11.5369514 114.495111,11.5406566 L113.901333,11.5406566 Z M119.020148,15.0905556 C118.564359,15.08492 118.196268,14.7241491 118.190519,14.2774242 L118.190519,8.5169697 C118.196268,8.07024484 118.564359,7.70947399 119.020148,7.70383838 L119.207407,7.70383838 C119.427254,7.69883245 119.639482,7.78287596 119.794074,7.93616162 C119.95174,8.08817655 120.042726,8.29444897 120.047704,8.51116162 L120.047704,8.61106061 C120.047332,8.61485756 120.048711,8.61861868 120.051463,8.62131585 C120.054215,8.62401302 120.058052,8.62536419 120.061926,8.625 C120.073211,8.62406818 120.083755,8.6191079 120.091556,8.61106061 C120.748148,7.91409091 121.515753,7.56367003 122.39437,7.55979798 C123.272988,7.55592593 123.912593,7.79986532 124.313185,8.29161616 C124.713778,8.77794613 124.914469,9.59107744 124.915259,10.7310101 L124.915259,14.2797475 C124.908269,14.7259587 124.540894,15.0860272 124.08563,15.0928788 L123.839111,15.0928788 C123.62209,15.0949677 123.414238,15.0072377 123.266667,14.8512626 C123.112655,14.7010465 123.027163,14.4961749 123.02963,14.2832323 L123.02963,10.8738889 C123.02963,10.1637542 122.93521,9.67858586 122.74637,9.41838384 C122.557531,9.15818182 122.222123,9.02808081 121.740148,9.02808081 C121.345086,9.02808081 120.978074,9.19380471 120.639111,9.52525253 C120.300148,9.85670034 120.131062,10.2113805 120.131852,10.5892929 L120.131852,14.2809091 C120.126102,14.7276339 119.758011,15.0884048 119.302222,15.0940404 L119.020148,15.0905556 Z M130.094519,15.2322727 C128.830321,15.2322727 127.857284,14.9081818 127.175407,14.26 C126.493531,13.6118182 126.152988,12.6581313 126.153778,11.3989394 C126.153778,10.1505892 126.457975,9.19961279 127.06637,8.5460101 C127.674765,7.89240741 128.553778,7.56560606 129.703407,7.56560606 C131.846222,7.56560606 132.946864,8.75819865 133.005333,11.1433838 C133.019735,11.3603325 132.928259,11.5711108 132.758815,11.7114141 C132.593659,11.8618064 132.376248,11.9448812 132.150815,11.9437374 L128.197037,11.9437374 C128.109333,11.9437374 128.078519,11.9855556 128.095111,12.0703535 C128.163062,12.704596 128.377975,13.1661448 128.739852,13.455 C129.101333,13.7442424 129.631111,13.8882828 130.32563,13.8882828 C130.814868,13.8785466 131.300651,13.8055073 131.77037,13.6710606 C131.936885,13.6219241 132.117319,13.6534114 132.256296,13.7558586 C132.40038,13.8505752 132.484919,14.0110294 132.480296,14.1810101 C132.484791,14.3908338 132.41577,14.5958281 132.284741,14.7618182 C132.159552,14.9242749 131.975357,15.0332597 131.77037,15.0661616 C131.219309,15.1794008 130.657554,15.2350821 130.094519,15.2322727 Z M129.731852,8.88636364 C129.239605,8.88636364 128.860741,9.02111111 128.595259,9.29060606 C128.329778,9.56010101 128.163457,9.99299663 128.096296,10.5892929 C128.090311,10.6215468 128.100853,10.654626 128.124505,10.677807 C128.148156,10.700988 128.181907,10.7113203 128.214815,10.7054545 L131.053333,10.7054545 C131.086242,10.7113203 131.119992,10.700988 131.143643,10.677807 C131.167295,10.654626 131.177837,10.6215468 131.171852,10.5892929 C131.129185,9.45478114 130.649185,8.88713805 129.731852,8.88636364 Z M137.872889,15.2322727 C136.608691,15.2322727 135.635654,14.9081818 134.953778,14.26 C134.271901,13.6118182 133.931358,12.6581313 133.932148,11.3989394 C133.932148,10.1505892 134.236346,9.19961279 134.844741,8.5460101 C135.453136,7.89240741 136.332148,7.56560606 137.481778,7.56560606 C139.624593,7.56560606 140.725235,8.75819865 140.783704,11.1433838 C140.798105,11.3603325 140.70663,11.5711108 140.537185,11.7114141 C140.372029,11.8618064 140.154619,11.9448812 139.929185,11.9437374 L135.974222,11.9437374 C135.887704,11.9437374 135.855704,11.9855556 135.873481,12.0703535 C135.941432,12.704596 136.156346,13.1661448 136.518222,13.455 C136.880099,13.7438552 137.408691,13.8882828 138.104,13.8882828 C138.59422,13.8803643 139.081215,13.808885 139.552296,13.6757071 C139.71881,13.6265706 139.899245,13.6580578 140.038222,13.7605051 C140.182306,13.8552217 140.266845,14.0156759 140.262222,14.1856566 C140.266717,14.3954803 140.197696,14.6004746 140.066667,14.7664646 C139.941312,14.9287411 139.757197,15.0376785 139.552296,15.0708081 C138.999892,15.1826713 138.436941,15.2367955 137.872889,15.2322727 Z M137.510222,8.88636364 C137.017185,8.88636364 136.638321,9.02111111 136.37363,9.29060606 C136.108938,9.56010101 135.942222,9.99299663 135.873481,10.5892929 C135.867497,10.6215468 135.878039,10.654626 135.90169,10.677807 C135.925341,10.700988 135.959092,10.7113203 135.992,10.7054545 L138.830519,10.7054545 C138.863427,10.7113203 138.897177,10.700988 138.920828,10.677807 C138.94448,10.654626 138.955022,10.6215468 138.949037,10.5892929 C138.904,9.45478114 138.424395,8.88713805 137.510222,8.88636364 Z M145.651259,15.2322727 C144.387062,15.2322727 143.414025,14.9081818 142.732148,14.26 C142.050272,13.6118182 141.709728,12.6581313 141.710519,11.3989394 C141.710519,10.1505892 142.014716,9.19961279 142.623111,8.5460101 C143.231506,7.89240741 144.110519,7.56560606 145.260148,7.56560606 C147.402963,7.56560606 148.503605,8.75819865 148.562074,11.1433838 C148.576476,11.3603325 148.485,11.5711108 148.315556,11.7114141 C148.150399,11.8618064 147.932989,11.9448812 147.707556,11.9437374 L143.752593,11.9437374 C143.666074,11.9437374 143.634074,11.9855556 143.651852,12.0703535 C143.719802,12.704596 143.934716,13.1661448 144.296593,13.455 C144.658469,13.7438552 145.187062,13.8882828 145.88237,13.8882828 C146.372591,13.8803643 146.859585,13.808885 147.330667,13.6757071 C147.497181,13.6265706 147.677615,13.6580578 147.816593,13.7605051 C147.960677,13.8552217 148.045215,14.0156759 148.040593,14.1856566 C148.045087,14.3954803 147.976067,14.6004746 147.845037,14.7664646 C147.719682,14.9287411 147.535567,15.0376785 147.330667,15.0708081 C146.778263,15.1826713 146.215312,15.2367955 145.651259,15.2322727 Z M145.288593,8.88636364 C144.795556,8.88636364 144.416691,9.02111111 144.152,9.29060606 C143.887309,9.56010101 143.720593,9.99299663 143.651852,10.5892929 C143.645867,10.6215468 143.656409,10.654626 143.68006,10.677807 C143.703712,10.700988 143.737462,10.7113203 143.77037,10.7054545 L146.608889,10.7054545 C146.641797,10.7113203 146.675548,10.700988 146.699199,10.677807 C146.72285,10.654626 146.733392,10.6215468 146.727407,10.5892929 C146.685531,9.45478114 146.205926,8.88713805 145.288593,8.88636364 Z M149.666667,9.36843434 C149.480056,9.37128855 149.300933,9.29659063 149.17363,9.16282828 C149.041303,9.03295787 148.968203,8.85614703 148.970963,8.67262626 C148.970328,8.49169997 149.04346,8.31802133 149.174102,8.19019548 C149.304744,8.06236963 149.482071,7.9909887 149.666667,7.99191919 L150.36237,7.99191919 C150.397777,7.99524791 150.432838,7.98281459 150.457874,7.95805106 C150.48291,7.93328753 150.495275,7.89881239 150.491556,7.86414141 L150.491556,6.10313131 C150.48941,5.89059023 150.574877,5.6861965 150.728593,5.53626263 C150.875989,5.38004501 151.083956,5.29226641 151.301037,5.29464646 L151.590222,5.29464646 C152.045487,5.30149809 152.412861,5.6615666 152.419852,6.10777778 L152.419852,7.86414141 C152.416072,7.89903497 152.428587,7.93373344 152.453903,7.95854562 C152.479218,7.98335779 152.514621,7.99562432 152.550222,7.99191919 L154.201185,7.99191919 C154.388379,7.98947897 154.568676,8.06108497 154.701333,8.19055556 C154.837501,8.31505427 154.913687,8.49012922 154.911111,8.67262626 C154.911111,9.057552 154.592736,9.36959596 154.2,9.36959596 L152.545481,9.36959596 C152.458963,9.36959596 152.415111,9.40792929 152.415111,9.48575758 L152.415111,12.3537879 C152.415111,12.9733165 152.482667,13.3709764 152.617778,13.5467677 C152.752889,13.7256566 153.032593,13.8162626 153.458074,13.8162626 C153.63241,13.8200262 153.806777,13.810316 153.979556,13.7872222 C154.15907,13.765012 154.340472,13.8107068 154.486815,13.915 C154.627707,14.0122718 154.709219,14.1724888 154.703704,14.3413131 C154.70459,14.5469213 154.630151,14.7460118 154.493926,14.9023737 C154.368501,15.0598735 154.182483,15.1598549 153.979556,15.1788384 C153.554074,15.2160101 153.235259,15.2357576 153.023111,15.2357576 C152.086815,15.2357576 151.430222,15.0394444 151.053333,14.6468182 C150.676444,14.2541919 150.488,13.5514141 150.488,12.5384848 L150.488,9.48227273 C150.488,9.40676768 150.445333,9.36611111 150.358815,9.36611111 L149.666667,9.36843434 Z M91.2085926,3.18515152 C93.1757767,5.44838473 93.8555978,8.52690042 93.0193096,11.3848397 C92.1830214,14.242779 89.9418024,16.5001998 87.0497778,17.3975253 C86.958019,17.4273345 86.8620011,17.4426271 86.7653333,17.4428283 C86.3123375,17.4428188 85.9266239,17.1199091 85.8557916,16.6813829 C85.7849593,16.2428568 86.0500473,15.8189667 86.4808889,15.6818182 C89.4832209,14.7408625 91.5218286,12.0071348 91.525037,8.91772727 C91.5245411,7.29158416 90.9486012,5.71594846 89.8954074,4.45944444 L76.8868148,17.0757576 C76.6601802,17.3304653 76.3073532,17.4397385 75.9725422,17.3589147 C75.6377313,17.2780909 75.3770422,17.0207141 75.2970245,16.6919801 C75.2170069,16.3632461 75.3310696,16.0182424 75.5925926,15.7979798 L88.5561481,3.21767677 C87.2923808,2.30117946 85.7620283,1.80609208 84.1899259,1.80515152 C80.1354074,1.80515152 76.8417778,4.99611111 76.8417778,8.91772727 C76.8409551,9.60953453 76.9443923,10.2976673 77.1487407,10.9598485 C77.2440116,11.2686126 77.1639795,11.603738 76.938792,11.8389862 C76.7136044,12.0742344 76.3774726,12.1738657 76.0570142,12.1003498 C75.7365558,12.026834 75.480456,11.7913398 75.3851852,11.4825758 C75.1288664,10.6508289 74.9990755,9.78658528 75,8.91772727 C75,4.00060606 79.1197037,1.73372428e-12 84.184,1.73372428e-12 C86.2504883,0.00048099137 88.2564362,0.683935404 89.8776296,1.93989899 L91.2915556,0.569191919 C91.51951,0.319665387 91.8696999,0.214376822 92.2012043,0.295695776 C92.5327086,0.377014731 92.79101,0.631567967 92.8721646,0.956919796 C92.9533191,1.28227162 92.8439805,1.62491659 92.5881481,1.8469697 L91.2085926,3.18515152 Z M80.8133333,8.19520202 L80.8133333,8.18939394 C80.5853789,8.43892047 80.235189,8.54420904 79.9036846,8.46289008 C79.5721803,8.38157113 79.3138788,8.12701789 79.2327243,7.80166606 C79.1515698,7.47631423 79.2609084,7.13366927 79.5167407,6.91161616 L82.5567407,3.96808081 C82.7846951,3.71855428 83.1348851,3.61326571 83.4663894,3.69458467 C83.7978938,3.77590362 84.0561952,4.03045686 84.1373498,4.35580868 C84.2185043,4.68116051 84.1091657,5.02380548 83.8533333,5.24585859 L80.8133333,8.19520202 Z M89.2577778,9.41954545 C89.429595,9.58974129 89.5253762,9.81987384 89.5240425,10.0592973 C89.5227089,10.2987208 89.4243697,10.5278146 89.2506667,10.6961616 L76.9425185,22.6364141 C76.5808743,22.9870173 75.9977169,22.9838969 75.64,22.6294444 C75.2822831,22.274992 75.2854669,21.7034315 75.6471111,21.3528283 L87.9540741,9.41257576 C88.3163577,9.06240278 88.8994131,9.06551984 89.2577778,9.41954545 Z" id="planeeet-white-logo"></path>
                    </g>
                </g>
            </g>
        </g>
    </g>
</svg>