<?xml version="1.0" encoding="UTF-8"?>
<svg width="1631px" height="838px" viewBox="0 0 1631 838" version="1.1" xmlns="http://www.w3.org/2000/svg" xmlns:xlink="http://www.w3.org/1999/xlink">
    <!-- Generator: Sketch 52.6 (67491) - http://www.bohemiancoding.com/sketch -->
    <title>pricing-bg</title>
    <desc>Created with Sketch.</desc>
    <defs>
        <linearGradient x1="2.11346233%" y1="2.69824783%" x2="97.4882976%" y2="77.6440416%" id="linearGradient-1">
            <stop stop-color="#F0F4FD" offset="0%"></stop>
            <stop stop-color="#F0F4FD" offset="100%"></stop>
        </linearGradient>
    </defs>
    <g id="V4" stroke="none" stroke-width="1" fill="none" fill-rule="evenodd">
        <g id="Pricing" transform="translate(-152.000000, -386.000000)" fill-rule="nonzero">
            <g id="bg">
                <g id="pricing-bg" transform="translate(152.000000, 386.000000)">
                    <path d="M1230.77673,764 C1428.96088,764 1607.17839,592.964119 1607.17839,393.918877 C1607.17839,194.873635 1428.96088,-1.13686838e-13 1230.77673,-1.13686838e-13 C1032.59257,-1.13686838e-13 851,227.42954 851,424.907956 C851,622.386372 1032.59257,764 1230.77673,764 Z" id="Mask" fill="url(#linearGradient-1)"></path>
                    <path d="M286.863869,838 C436.562017,838 571.178393,708.827613 571.178393,558.50156 C571.178393,408.175507 436.562017,261 286.863869,261 C137.165721,261 0,432.762886 0,581.905616 C0,731.048347 137.165721,838 286.863869,838 Z" id="Mask-Copy" fill="url(#linearGradient-1)"></path>
                    <path d="M436.718702,820.7 C629.331282,820.7 799.878393,654.018643 799.878393,463.028861 C799.878393,369.546817 759.005747,273.910741 689.99371,200.52045 C620.127942,126.222267 528.704573,82.3 436.718702,82.3 C345.783026,82.3 253.619725,132.491838 181.823198,216.066281 C112.394986,296.883895 70.3,399.765729 70.3,493.0039 C70.3,584.630469 110.899597,667.596067 181.790959,728.405405 C250.280342,787.154369 342.16527,820.7 436.718702,820.7 Z" id="Mask-Copy-2" stroke="#DCDFF1" stroke-width="0.6"></path>
                    <path d="M1346.36164,744.7 C1496.73211,744.7 1629.87839,614.586817 1629.87839,465.50156 C1629.87839,313.194197 1493.61235,168.3 1346.36164,168.3 C1275.37321,168.3 1203.42238,207.479641 1147.36984,272.719788 C1093.16485,335.809562 1060.3,416.123244 1060.3,488.905616 C1060.3,560.426444 1091.99443,625.186742 1147.3376,672.653616 C1200.80729,718.513628 1272.54277,744.7 1346.36164,744.7 Z" id="Mask-Copy-3" stroke="#DCDFF1" stroke-width="0.6"></path>
                    <path d="M598.060473,393 C653.40748,393 703.178393,345.315913 703.178393,289.822933 C703.178393,234.329953 653.40748,180 598.060473,180 C542.713467,180 492,243.406403 492,298.462559 C492,353.518714 542.713467,393 598.060473,393 Z" id="Mask-Copy-2" fill="url(#linearGradient-1)" opacity="0.788574219"></path>
                </g>
            </g>
        </g>
    </g>
</svg>