<?xml version="1.0" encoding="UTF-8"?>
<svg width="284px" height="213px" viewBox="0 0 284 213" version="1.1" xmlns="http://www.w3.org/2000/svg" xmlns:xlink="http://www.w3.org/1999/xlink">
    <!-- Generator: Sketch 52.6 (67491) - http://www.bohemiancoding.com/sketch -->
    <title>star-illustration</title>
    <desc>Created with Sketch.</desc>
    <defs>
        <linearGradient x1="2.11346233%" y1="2.69824783%" x2="97.4882976%" y2="77.6440416%" id="linearGradient-1">
            <stop stop-color="#5776EC" offset="0%"></stop>
            <stop stop-color="#4869E7" offset="100%"></stop>
        </linearGradient>
    </defs>
    <g id="V4" stroke="none" stroke-width="1" fill="none" fill-rule="evenodd">
        <g id="Subscribe-confirmation" transform="translate(-297.000000, -179.000000)">
            <g id="Group-21">
                <g id="Group-20" transform="translate(60.000000, 60.000000)">
                    <g id="star-illustration" transform="translate(237.000000, 119.000000)">
                        <g id="Group-28" fill="url(#linearGradient-1)" fill-rule="nonzero">
                            <circle id="bubble-5" cx="279.5" cy="150.5" r="4.5"></circle>
                            <circle id="bubble-4" cx="261" cy="11" r="11"></circle>
                            <circle id="bubble-3" cx="238" cy="34" r="6"></circle>
                            <circle id="bubble-2" cx="20.5" cy="74.5" r="4.5"></circle>
                            <circle id="bubble-1" cx="4.5" cy="192.5" r="4.5"></circle>
                            <path d="M52.7058997,109.099432 C29.7592237,84.0050895 33.3758194,63.5497599 63.5556867,47.7334435 C93.7355541,31.917127 122.543609,33.5804666 149.979852,52.7234621 C192.131898,40.796761 223.309447,45.0321309 243.512499,65.4295719 C263.715551,85.8270129 261.969608,109.656969 238.274671,136.91944 C260.172222,146.967288 266.244829,165.178724 256.492492,191.553749 C246.740155,217.928773 209.240578,219.976402 143.993763,197.696636 C70.9135883,215.928789 27.6391504,210.325961 14.1704492,180.888152 C0.701748119,151.450343 13.5468983,127.520769 52.7058997,109.099432 Z" id="bubble-bg-shape"></path>
                        </g>
                        <g id="star" transform="translate(147.000000, 125.000000) rotate(-72.000000) translate(-147.000000, -125.000000) translate(95.000000, 75.000000)">
                            <path d="M91.9567187,30.0684959 L64.7905781,27.5473577 L53.9993594,2.47357724 C53.2437344,0.717886179 50.7560625,0.717886179 50.0006406,2.47357724 L39.2094219,27.5471545 L12.0432813,30.0684959 C10.1410156,30.2449187 9.37239063,32.6123984 10.8074688,33.8739837 L31.3044063,51.8914634 L25.3059219,78.523374 C24.8858594,80.3882114 26.898625,81.8512195 28.5410938,80.8754065 L52,66.9371951 L75.4589063,80.8754065 C77.1015781,81.8514228 79.1139375,80.3882114 78.6940781,78.523374 L72.6953906,51.8914634 L93.1925313,33.8739837 C94.6276094,32.6123984 93.8587813,30.2449187 91.9567187,30.0684959 Z" id="Path" fill="#FFDC64"></path>
                            <g id="Group" fill="#FFF082">
                                <path d="M24.2283438,1.61036585 C25.61325,3.5351626 29.5221875,11.8014228 31.7569688,16.6189024 C32.108375,17.3762195 31.1587656,18.0603659 30.5524375,17.4865854 C26.6957031,13.8378049 20.10125,7.50609756 18.7163438,5.58109756 C17.6204844,4.05813008 17.966,1.93455285 19.4882188,0.83800813 C21.0102344,-0.258536585 23.1324844,0.087398374 24.2283438,1.61036585 Z" id="Path"></path>
                                <path d="M79.7716562,1.61036585 C78.38675,3.5351626 74.4778125,11.8014228 72.2430312,16.6189024 C71.891625,17.3762195 72.8412344,18.0603659 73.4475625,17.4865854 C77.3042969,13.8378049 83.8985469,7.50589431 85.2836562,5.58109756 C86.3795156,4.05813008 86.034,1.93455285 84.5117812,0.83800813 C82.9897656,-0.258536585 80.8675156,0.087398374 79.7716562,1.61036585 Z" id="Path"></path>
                                <path d="M101.656141,58.0546748 C99.4026719,57.3193089 90.3443125,56.1044715 85.0787031,55.4378049 C84.2509687,55.3329268 83.8881875,56.4461382 84.6184219,56.8497967 C89.2645,59.4178862 97.2966719,63.7804878 99.5501406,64.5158537 C101.333172,65.0977642 103.250062,64.1231707 103.831609,62.3388211 C104.413156,60.5544715 103.439172,58.6365854 101.656141,58.0546748 Z" id="Path"></path>
                                <path d="M2.34385937,58.0546748 C4.59732812,57.3193089 13.6556875,56.1044715 18.9212969,55.4378049 C19.7490312,55.3329268 20.1118125,56.4461382 19.3815781,56.8497967 C14.7355,59.4178862 6.70332812,63.7804878 4.44985937,64.5158537 C2.66682812,65.0977642 0.7499375,64.1231707 0.168390625,62.3388211 C-0.41315625,60.5544715 0.560828125,58.6365854 2.34385937,58.0546748 Z" id="Path"></path>
                                <path d="M48.7081563,96.4044715 C48.7081563,94.0327236 50.3626094,85.0388211 51.3619844,79.8227642 C51.519,79.0028455 52.6892031,79.0028455 52.8462187,79.8227642 C53.8455937,85.0388211 55.5000469,94.0327236 55.5000469,96.4044715 C55.5000469,98.2810976 53.9796562,99.802439 52.1042031,99.802439 C50.2285469,99.8026423 48.7081563,98.2810976 48.7081563,96.4044715 Z" id="Path"></path>
                            </g>
                            <path d="M57.9233281,11.5914634 L53.9991562,2.47357724 C53.2435312,0.717886179 50.7558594,0.717886179 50.0004375,2.47357724 L39.2092187,27.5471545 L12.0432812,30.0684959 C10.1410156,30.2449187 9.37239063,32.6123984 10.8074688,33.8739837 L31.3044062,51.8914634 L25.3059219,78.523374 C24.8858594,80.3882114 26.898625,81.8512195 28.5410937,80.8754065 L31.6633281,79.0203252 C36.781875,45.8658537 51.1716562,21.5280488 57.9233281,11.5914634 Z" id="Path" fill="#FFC850"></path>
                        </g>
                    </g>
                </g>
            </g>
        </g>
    </g>
</svg>