<?xml version="1.0" encoding="UTF-8"?>
<svg width="24px" height="40px" viewBox="0 0 24 40" version="1.1" xmlns="http://www.w3.org/2000/svg" xmlns:xlink="http://www.w3.org/1999/xlink">
    <!-- Generator: Sketch 52.6 (67491) - http://www.bohemiancoding.com/sketch -->
    <title>subscribe-close-icon</title>
    <desc>Created with Sketch.</desc>
    <g id="V4" stroke="none" stroke-width="1" fill="none" fill-rule="evenodd">
        <g id="Get-access2" transform="translate(-1858.000000, -60.000000)" fill="#DCDFF1">
            <g id="Group-21">
                <g id="Group-20" transform="translate(60.000000, 60.000000)">
                    <g id="subscribe-close-icon" transform="translate(1798.000000, 0.000000)">
                        <g id="Group-30">
                            <path d="M13.8259592,11.2875294 L23.0654694,2.41035294 C23.6395102,1.85929412 23.6395102,0.965176471 23.0654694,0.414117647 C22.4914286,-0.137411765 21.5617959,-0.137411765 20.9877551,0.414117647 L11.7482449,9.29129412 L2.5082449,0.414117647 C1.93420408,-0.137411765 1.00457143,-0.137411765 0.430530612,0.414117647 C-0.143510204,0.965176471 -0.143510204,1.85929412 0.430530612,2.41035294 L9.67053061,11.2875294 L0.430530612,20.1647059 C-0.143510204,20.7157647 -0.143510204,21.6098824 0.430530612,22.1609412 C0.71755102,22.4362353 1.09371429,22.5741176 1.46938776,22.5741176 C1.84506122,22.5741176 2.22122449,22.4362353 2.5082449,22.1604706 L11.7482449,13.2832941 L20.9877551,22.1604706 C21.2747755,22.4362353 21.6509388,22.5741176 22.0266122,22.5741176 C22.4022857,22.5741176 22.778449,22.4362353 23.0654694,22.1604706 C23.6395102,21.6094118 23.6395102,20.7152941 23.0654694,20.1642353 L13.8259592,11.2875294 Z" id="Path"></path>
                            <path d="M5.70612245,39.5294118 L0.0519183673,39.5294118 L0.0519183673,30.8545882 L5.70612245,30.8545882 L5.70612245,32.4451765 L1.80930612,32.4451765 L1.80930612,34.4272941 L5.33681633,34.4272941 L5.33681633,35.9322353 L1.80930612,35.9322353 L1.80930612,37.9388235 L5.70612245,37.9388235 L5.70612245,39.5294118 Z M13.7828571,32.9223529 L12.2037551,33.3872941 C12.1146122,32.9101176 11.707102,32.1637647 10.5609796,32.1637647 C9.7077551,32.1637647 9.14742857,32.6898824 9.14742857,33.2649412 C9.14742857,33.7421176 9.46579592,34.1214118 10.128,34.2437647 L11.3887347,34.4762353 C13.0315102,34.7821176 13.9102041,35.8098824 13.9102041,37.0334118 C13.9102041,38.3670588 12.7513469,39.7129412 10.6501224,39.7129412 C8.256,39.7129412 7.19902041,38.2324706 7.05893878,36.9967059 L8.68897959,36.5807059 C8.76538776,37.4371765 9.38938776,38.208 10.6628571,38.208 C11.6052245,38.208 12.1273469,37.7552941 12.1273469,37.1435294 C12.1273469,36.6418824 11.7325714,36.2503529 11.0321633,36.1157647 L9.77142857,35.8710588 C8.33240816,35.5896471 7.40277551,34.6964706 7.40277551,33.3872941 C7.40277551,31.8456471 8.84179592,30.6710588 10.5482449,30.6710588 C12.7386122,30.6710588 13.579102,31.9435294 13.7828571,32.9223529 Z M19.732898,39.7129412 C17.2114286,39.7129412 15.1102041,37.9632941 15.1102041,35.1981176 C15.1102041,32.4329412 17.2878367,30.6710588 19.7074286,30.6710588 C22.2034286,30.6710588 23.4896327,32.1392941 23.8462041,33.5463529 L22.1906939,34.048 C21.9742041,33.216 21.2737959,32.2983529 19.7074286,32.2983529 C18.357551,32.2983529 16.9312653,33.2282353 16.9312653,35.1981176 C16.9312653,37.0456471 18.2811429,38.0611765 19.732898,38.0611765 C21.2737959,38.0611765 22.0251429,37.0945882 22.267102,36.2870588 L23.9098776,36.7642353 C23.5660408,38.0978824 22.267102,39.7129412 19.732898,39.7129412 Z" id="ESC"></path>
                        </g>
                    </g>
                </g>
            </g>
        </g>
    </g>
</svg>