<?xml version="1.0" encoding="UTF-8"?>
<svg width="284px" height="213px" viewBox="0 0 284 213" version="1.1" xmlns="http://www.w3.org/2000/svg" xmlns:xlink="http://www.w3.org/1999/xlink">
    <!-- Generator: Sketch 52.6 (67491) - http://www.bohemiancoding.com/sketch -->
    <title>subscribe-error-icon</title>
    <desc>Created with Sketch.</desc>
    <defs>
        <linearGradient x1="2.11346233%" y1="2.69824783%" x2="97.4882976%" y2="77.6440416%" id="linearGradient-1">
            <stop stop-color="#5776EC" offset="0%"></stop>
            <stop stop-color="#4869E7" offset="100%"></stop>
        </linearGradient>
    </defs>
    <g id="V5" stroke="none" stroke-width="1" fill="none" fill-rule="evenodd">
        <g id="Subscribe-error-notification" transform="translate(-297.000000, -179.000000)">
            <g id="Group-21">
                <g id="Group-20" transform="translate(60.000000, 60.000000)">
                    <g id="subscribe-error-icon" transform="translate(237.000000, 119.000000)">
                        <g id="Group-28" fill="url(#linearGradient-1)" fill-rule="nonzero">
                            <circle id="bubble-5" cx="279.5" cy="150.5" r="4.5"></circle>
                            <circle id="bubble-4" cx="261" cy="11" r="11"></circle>
                            <circle id="bubble-3" cx="238" cy="34" r="6"></circle>
                            <circle id="bubble-2" cx="20.5" cy="74.5" r="4.5"></circle>
                            <circle id="bubble-1" cx="4.5" cy="192.5" r="4.5"></circle>
                            <path d="M52.7058997,109.099432 C29.7592237,84.0050895 33.3758194,63.5497599 63.5556867,47.7334435 C93.7355541,31.917127 122.543609,33.5804666 149.979852,52.7234621 C192.131898,40.796761 223.309447,45.0321309 243.512499,65.4295719 C263.715551,85.8270129 261.969608,109.656969 238.274671,136.91944 C260.172222,146.967288 266.244829,165.178724 256.492492,191.553749 C246.740155,217.928773 209.240578,219.976402 143.993763,197.696636 C70.9135883,215.928789 27.6391504,210.325961 14.1704492,180.888152 C0.701748119,151.450343 13.5468983,127.520769 52.7058997,109.099432 Z" id="bubble-bg-shape"></path>
                        </g>
                        <g transform="translate(92.000000, 79.000000)">
                            <path d="M49.8351916,0 C22.3135889,0 0,22.3135889 0,49.8351916 C0,77.3599303 22.3135889,99.6703833 49.8351916,99.6703833 C77.3567944,99.6703833 99.6703833,77.3599303 99.6703833,49.8351916 C99.6703833,22.3135889 77.3567944,0 49.8351916,0 Z M49.8351916,90.3261324 C27.471777,90.3261324 9.34425087,72.1986063 9.34425087,49.8351916 C9.34425087,27.471777 27.471777,9.34425087 49.8351916,9.34425087 C72.1986063,9.34425087 90.3261324,27.471777 90.3261324,49.8351916 C90.3261324,72.1986063 72.1986063,90.3261324 49.8351916,90.3261324 Z" id="Shape" fill="#D8E0FF" fill-rule="nonzero"></path>
                            <path d="M49.8351916,93.3261324 C25.8148571,93.3261324 6.34425087,73.8555261 6.34425087,49.8351916 C6.34425087,25.8148571 25.8148571,6.34425087 49.8351916,6.34425087 C73.8555261,6.34425087 93.3261324,25.8148571 93.3261324,49.8351916 C93.3261324,73.8555261 73.8555261,93.3261324 49.8351916,93.3261324 Z" id="Path" fill="#FFFFFF"></path>
                            <path d="M58.6592334,49.8041812 L67.4707317,40.9926829 C68.6853659,39.7780488 68.6853659,37.8062718 67.4707317,36.5916376 L63.0634146,32.1843206 C61.8456446,30.9696864 59.8770035,30.9665505 58.6592334,32.1843206 L49.8477352,40.9958188 L41.0425087,32.1905923 C39.8247387,30.9696864 37.8498258,30.9696864 36.6320557,32.1843206 L32.2247387,36.5916376 C31.0101045,37.8062718 31.0101045,39.7780488 32.2278746,40.9989547 L41.033101,49.8041812 L32.2466899,58.5905923 C31.0289199,59.8083624 31.0289199,61.7770035 32.2466899,62.9979094 L36.6508711,67.4020906 C37.8686411,68.6167247 39.8404181,68.6167247 41.0550523,67.4020906 L49.8445993,58.6125436 L58.6965157,67.4675958 C59.9174216,68.6853659 61.8891986,68.6885017 63.1069686,67.4707317 L67.5111498,63.0665505 C68.7289199,61.8487805 68.725784,59.8770035 67.5080139,58.6592334 C67.5080139,58.6592334 58.6592334,49.8041812 58.6592334,49.8041812 Z" id="Path" fill="#EA4D67" fill-rule="nonzero"></path>
                        </g>
                    </g>
                </g>
            </g>
        </g>
    </g>
</svg>