<?xml version="1.0" encoding="UTF-8"?>
<svg width="771px" height="772px" viewBox="0 0 771 772" version="1.1" xmlns="http://www.w3.org/2000/svg" xmlns:xlink="http://www.w3.org/1999/xlink">
    <!-- Generator: Sketch 52.6 (67491) - http://www.bohemiancoding.com/sketch -->
    <title>themes-bg</title>
    <desc>Created with Sketch.</desc>
    <defs>
        <linearGradient x1="2.11346233%" y1="2.69824783%" x2="97.4882976%" y2="77.6440416%" id="linearGradient-1">
            <stop stop-color="#F0F4FD" offset="0%"></stop>
            <stop stop-color="#F0F4FD" offset="100%"></stop>
        </linearGradient>
        <linearGradient x1="87.2737768%" y1="-7.51627292%" x2="12.3279831%" y2="87.8585623%" id="linearGradient-2">
            <stop stop-color="#5D7BEE" offset="0%"></stop>
            <stop stop-color="#5373F0" offset="100%"></stop>
        </linearGradient>
    </defs>
    <g id="V4" stroke="none" stroke-width="1" fill="none" fill-rule="evenodd">
        <g id="Group-24" transform="translate(-516.000000, -1.000000)" fill-rule="nonzero">
            <g id="themes-bg" transform="translate(515.000000, 1.000000)">
                <path d="M367.711802,741.70373 C559.081705,741.70373 731.171493,575.816835 731.171493,382.763793 C731.171493,189.710751 559.081705,0.703730274 367.711802,0.703730274 C176.3419,0.703730274 0.993100126,221.28657 0.993100126,412.819955 C0.993100126,604.35334 176.3419,741.70373 367.711802,741.70373 Z" id="blue-circle" fill="url(#linearGradient-1)"></path>
                <path d="M407.711802,771.40373 C600.324205,771.40373 770.871493,604.2711 770.871493,412.763793 C770.871493,319.028361 729.998719,223.133158 660.986533,149.544089 C591.12076,75.0448222 499.697483,31.0037303 407.711802,31.0037303 C316.776332,31.0037303 224.6131,81.3313671 152.816559,165.13201 C83.3882046,246.168512 41.2931001,349.329071 41.2931001,442.819955 C41.2931001,534.694931 81.8928512,617.885379 152.784363,678.859418 C221.273721,737.767356 313.158529,771.40373 407.711802,771.40373 Z" id="blue-circle-outline" stroke="#DCDFF1" stroke-width="0.6"></path>
                <path d="M88.9818606,168.016147 L655.115351,97.9052599 C663.336816,96.8871002 670.827013,102.726534 671.845172,110.948 C671.865405,111.111376 671.882947,111.275075 671.897791,111.43903 L714.568472,582.749763 C715.315444,591.000289 709.232611,598.294202 700.982084,599.041173 C700.718834,599.065007 700.455,599.081878 700.190858,599.091769 L52.069428,623.360831 C43.7909586,623.67082 36.8286371,617.211091 36.5186479,608.932621 C36.4943965,608.284972 36.5121449,607.636432 36.5717815,606.991078 L75.8890404,181.52217 C76.5376754,174.503012 81.9862374,168.882496 88.9818606,168.016147 Z" id="blue-bg" fill="url(#linearGradient-2)"></path>
            </g>
        </g>
    </g>
</svg>