<?xml version="1.0" encoding="UTF-8"?>
<svg width="22px" height="18px" viewBox="0 0 22 18" version="1.1" xmlns="http://www.w3.org/2000/svg" xmlns:xlink="http://www.w3.org/1999/xlink">
    <!-- Generator: Sketch 52.6 (67491) - http://www.bohemiancoding.com/sketch -->
    <title>twitter-logo</title>
    <desc>Created with Sketch.</desc>
    <g id="V4" stroke="none" stroke-width="1" fill="none" fill-rule="evenodd">
        <g id="Landing-Page" transform="translate(-1533.000000, -5257.000000)" fill="#F7F9FD">
            <g id="Group-25" transform="translate(0.000000, 4550.000000)">
                <g id="Group-17" transform="translate(297.000000, 705.000000)">
                    <g id="Group-15" transform="translate(1150.000000, 2.000000)">
                        <g id="twitter-logo" transform="translate(86.400000, 0.000000)">
                            <path d="M21.2127766,2.11473684 C20.7338453,2.32742105 20.2366774,2.49521053 19.7265285,2.61668421 C20.288654,2.08173684 20.7112993,1.41263158 20.9497401,0.665789474 C21.0177985,0.452578947 20.7865577,0.268210526 20.5943124,0.382368421 C19.8846131,0.803947368 19.1201518,1.12021053 18.322108,1.32247368 C18.2758073,1.33421053 18.228035,1.34015789 18.1801051,1.34015789 C18.0347387,1.34015789 17.893419,1.28610526 17.7822657,1.188 C16.9331912,0.438578947 15.8411562,0.0258421053 14.7073927,0.0258421053 C14.2167942,0.0258421053 13.7214657,0.102421053 13.2351241,0.253473684 C11.7282745,0.721526316 10.5656058,1.96631579 10.2008234,3.50210526 C10.0639708,4.07815789 10.0269197,4.65473684 10.0906161,5.21578947 C10.0979212,5.28026316 10.067492,5.32526316 10.0487299,5.34636842 C10.0157781,5.38336842 9.96905693,5.40457895 9.92054891,5.40457895 C9.91513577,5.40457895 9.90956496,5.40431579 9.90404672,5.40378947 C6.60560584,5.09689474 3.63121752,3.50547368 1.52876496,0.922736842 C1.42155328,0.791 1.21595912,0.807157895 1.13050511,0.953947368 C0.718791241,1.66131579 0.501214599,2.47036842 0.501214599,3.29363158 C0.501214599,4.55531579 1.00736934,5.74431579 1.88655766,6.61110526 C1.51683504,6.52331579 1.15898978,6.38505263 0.826581022,6.20015789 C0.665763504,6.11068421 0.467894891,6.22568421 0.465635036,6.40989474 C0.442616058,8.28421053 1.53838248,9.952 3.17987737,10.703 C3.14682044,10.7037895 3.1137635,10.7041579 3.08065401,10.7041579 C2.82045547,10.7041579 2.55699854,10.679 2.29769343,10.6293684 C2.11658978,10.5947368 1.9644438,10.7667895 2.02067737,10.9426316 C2.55347737,12.6084737 3.98569927,13.8363684 5.6996146,14.1151579 C4.27716788,15.0714211 2.62069489,15.5758421 0.896636496,15.5758421 L0.359159124,15.5755263 C0.193559124,15.5755263 0.0535007299,15.6836316 0.0112992701,15.8442632 C-0.0302715328,16.0024737 0.0463007299,16.1693684 0.187515328,16.2516316 C2.13025401,17.3838947 4.34622482,17.9823158 6.5968292,17.9823158 C8.5668438,17.9823158 10.4096234,17.5907895 12.0740321,16.8186842 C13.599854,16.1108421 14.9481985,15.099 16.0815942,13.8112632 C17.137419,12.6116842 17.963054,11.2268947 18.5354803,9.69542105 C19.0811562,8.23557895 19.3695766,6.67789474 19.3695766,5.19073684 L19.3695766,5.11989474 C19.3695241,4.88110526 19.4773664,4.65642105 19.6655124,4.50347368 C20.3794686,3.92294737 21.0011912,3.23957895 21.5133372,2.47236842 C21.6485606,2.26978947 21.4352934,2.01589474 21.2127766,2.11473684 Z" id="Path"></path>
                        </g>
                    </g>
                </g>
            </g>
        </g>
    </g>
</svg>