<?xml version="1.0" encoding="UTF-8"?>
<svg width="160px" height="33px" viewBox="0 0 160 33" version="1.1" xmlns="http://www.w3.org/2000/svg" xmlns:xlink="http://www.w3.org/1999/xlink">
    <!-- Generator: Sketch 52.6 (67491) - http://www.bohemiancoding.com/sketch -->
    <title>boardme-white</title>
    <desc>Created with Sketch.</desc>
    <g id="boardme-logo" stroke="none" stroke-width="1" fill="none" fill-rule="evenodd">
        <g id="boardme-white">
            <path d="M44.7599278,10.372779 C46.0650314,10.372779 47.2526579,10.6729484 48.3228428,11.273296 C49.3930278,11.8736437 50.2326318,12.717598 50.8416802,13.8051844 C51.4507285,14.8927707 51.7552481,16.1587022 51.7552481,17.6030169 C51.7552481,19.0473315 51.4507285,20.313263 50.8416802,21.4008494 C50.2326318,22.4884357 49.3930278,23.3323901 48.3228428,23.9327377 C47.2526579,24.5330854 46.0650314,24.8332547 44.7599278,24.8332547 C42.8283745,24.8332547 41.3579798,24.2242155 40.3486997,23.0061188 L40.3486997,24.6244392 L36.4595104,24.6244392 L36.4595104,5.25679849 L40.5314132,5.25679849 L40.5314132,12.0694053 C41.5580948,10.9383155 42.9675855,10.372779 44.7599278,10.372779 Z M44.0551754,21.4922062 C45.0992583,21.4922062 45.9562634,21.1398335 46.6262166,20.4350775 C47.2961698,19.7303216 47.6311414,18.7863108 47.6311414,17.6030169 C47.6311414,16.4197229 47.2961698,15.4757122 46.6262166,14.7709562 C45.9562634,14.0662003 45.0992583,13.7138276 44.0551754,13.7138276 C43.0110925,13.7138276 42.1540873,14.0662003 41.4841341,14.7709562 C40.8141809,15.4757122 40.4792094,16.4197229 40.4792094,17.6030169 C40.4792094,18.7863108 40.8141809,19.7303216 41.4841341,20.4350775 C42.1540873,21.1398335 43.0110925,21.4922062 44.0551754,21.4922062 Z M61.1519471,24.8332547 C59.6728297,24.8332547 58.3459943,24.5243848 57.171401,23.9066358 C55.9968078,23.2888867 55.0788987,22.4318816 54.4176462,21.3355945 C53.7563937,20.2393075 53.4257724,18.9951274 53.4257724,17.6030169 C53.4257724,16.2109064 53.7563937,14.9667263 54.4176462,13.8704392 C55.0788987,12.7741522 55.9968078,11.917147 57.171401,11.299398 C58.3459943,10.6816489 59.6728297,10.372779 61.1519471,10.372779 C62.6310645,10.372779 63.9535497,10.6816489 65.1194422,11.299398 C66.2853348,11.917147 67.1988936,12.7741522 67.8601461,13.8704392 C68.5213986,14.9667263 68.8520199,16.2109064 68.8520199,17.6030169 C68.8520199,18.9951274 68.5213986,20.2393075 67.8601461,21.3355945 C67.1988936,22.4318816 66.2853348,23.2888867 65.1194422,23.9066358 C63.9535497,24.5243848 62.6310645,24.8332547 61.1519471,24.8332547 Z M61.1519471,21.4922062 C62.19603,21.4922062 63.0530352,21.1398335 63.7229884,20.4350775 C64.3929416,19.7303216 64.7279131,18.7863108 64.7279131,17.6030169 C64.7279131,16.4197229 64.3929416,15.4757122 63.7229884,14.7709562 C63.0530352,14.0662003 62.19603,13.7138276 61.1519471,13.7138276 C60.1078642,13.7138276 59.2465088,14.0662003 58.5678549,14.7709562 C57.889201,15.4757122 57.5498792,16.4197229 57.5498792,17.6030169 C57.5498792,18.7863108 57.889201,19.7303216 58.5678549,20.4350775 C59.2465088,21.1398335 60.1078642,21.4922062 61.1519471,21.4922062 Z M85.8182819,10.5815946 L85.8182819,24.6244392 L81.9290926,24.6244392 L81.9290926,23.0061188 C80.9198125,24.2242155 79.4581184,24.8332547 77.5439665,24.8332547 C76.2214615,24.8332547 75.0251344,24.5374357 73.9549495,23.9457887 C72.8847645,23.3541417 72.0451605,22.5101874 71.4361121,21.4139004 C70.8270638,20.3176133 70.5225442,19.0473315 70.5225442,17.6030169 C70.5225442,16.1587022 70.8270638,14.8884204 71.4361121,13.7921334 C72.0451605,12.6958464 72.8847645,11.851892 73.9549495,11.2602451 C75.0251344,10.6685981 76.2214615,10.372779 77.5439665,10.372779 C79.3363087,10.372779 80.7370989,10.9383155 81.7463791,12.0694053 L81.7463791,10.5815946 L85.8182819,10.5815946 Z M78.2487189,21.4922062 C79.2754004,21.4922062 80.1280553,21.1398335 80.8067092,20.4350775 C81.485363,19.7303216 81.8246849,18.7863108 81.8246849,17.6030169 C81.8246849,16.4197229 81.485363,15.4757122 80.8067092,14.7709562 C80.1280553,14.0662003 79.2754004,13.7138276 78.2487189,13.7138276 C77.204636,13.7138276 76.3432805,14.0662003 75.6646267,14.7709562 C74.9859728,15.4757122 74.6466509,16.4197229 74.6466509,17.6030169 C74.6466509,18.7863108 74.9859728,19.7303216 75.6646267,20.4350775 C76.3432805,21.1398335 77.204636,21.4922062 78.2487189,21.4922062 Z M93.4661508,12.4348324 C93.9533895,11.7561786 94.6102818,11.2428455 95.4368474,10.8948179 C96.263413,10.5467903 97.2161244,10.372779 98.29501,10.372779 L98.29501,14.1314586 C97.8425741,14.0966559 97.5380545,14.0792548 97.3814421,14.0792548 C96.2155495,14.0792548 95.3019907,14.4055258 94.6407382,15.0580776 C93.9794857,15.7106294 93.6488644,16.6894424 93.6488644,17.994546 L93.6488644,24.6244392 L89.5769615,24.6244392 L89.5769615,10.5815946 L93.4661508,10.5815946 L93.4661508,12.4348324 Z M115.130762,5.25679849 L115.130762,24.6244392 L111.241573,24.6244392 L111.241573,23.0061188 C110.232293,24.2242155 108.770599,24.8332547 106.856447,24.8332547 C105.533942,24.8332547 104.337615,24.5374357 103.26743,23.9457887 C102.197245,23.3541417 101.357641,22.5101874 100.748593,21.4139004 C100.139544,20.3176133 99.8350246,19.0473315 99.8350246,17.6030169 C99.8350246,16.1587022 100.139544,14.8884204 100.748593,13.7921334 C101.357641,12.6958464 102.197245,11.851892 103.26743,11.2602451 C104.337615,10.6685981 105.533942,10.372779 106.856447,10.372779 C108.648789,10.372779 110.049579,10.9383155 111.058859,12.0694053 L111.058859,5.25679849 L115.130762,5.25679849 Z M107.561199,21.4922062 C108.587881,21.4922062 109.440536,21.1398335 110.11919,20.4350775 C110.797843,19.7303216 111.137165,18.7863108 111.137165,17.6030169 C111.137165,16.4197229 110.797843,15.4757122 110.11919,14.7709562 C109.440536,14.0662003 108.587881,13.7138276 107.561199,13.7138276 C106.517116,13.7138276 105.655761,14.0662003 104.977107,14.7709562 C104.298453,15.4757122 103.959131,16.4197229 103.959131,17.6030169 C103.959131,18.7863108 104.298453,19.7303216 104.977107,20.4350775 C105.655761,21.1398335 106.517116,21.4922062 107.561199,21.4922062 Z M136.87368,10.372779 C138.631219,10.372779 140.027659,10.8904624 141.063041,11.9258446 C142.098424,12.9612268 142.616107,14.5142768 142.616107,16.5850412 L142.616107,24.6244392 L138.544204,24.6244392 L138.544204,17.2114878 C138.544204,16.0977993 138.313639,15.2668958 137.852503,14.7187523 C137.391366,14.1706088 136.734474,13.8965412 135.881806,13.8965412 C134.92473,13.8965412 134.167781,14.2054111 133.610937,14.8231601 C133.054093,15.4409091 132.775675,16.3588182 132.775675,17.5769149 L132.775675,24.6244392 L128.703772,24.6244392 L128.703772,17.2114878 C128.703772,15.0015123 127.816315,13.8965412 126.041374,13.8965412 C125.101699,13.8965412 124.353451,14.2054111 123.796607,14.8231601 C123.239763,15.4409091 122.961345,16.3588182 122.961345,17.5769149 L122.961345,24.6244392 L118.889442,24.6244392 L118.889442,10.5815946 L122.778631,10.5815946 L122.778631,12.199915 C123.300673,11.608268 123.940164,11.1558389 124.697124,10.842614 C125.454084,10.5293891 126.284988,10.372779 127.189859,10.372779 C128.181738,10.372779 129.077896,10.5685417 129.878359,10.9600727 C130.678823,11.3516038 131.322664,11.9214905 131.809903,12.6697499 C132.384149,11.9388919 133.110645,11.3733555 133.989415,10.9731237 C134.868185,10.5728919 135.829597,10.372779 136.87368,10.372779 Z M153.344005,21.570512 C154.074863,21.570512 154.723055,21.461755 155.2886,21.2442377 C155.854144,21.0267205 156.380528,20.6830483 156.867767,20.213211 L159.034228,22.5623858 C157.711723,24.076306 155.780199,24.8332547 153.239597,24.8332547 C151.656071,24.8332547 150.255281,24.5243848 149.037185,23.9066358 C147.819088,23.2888867 146.879427,22.4318816 146.218175,21.3355945 C145.556922,20.2393075 145.226301,18.9951274 145.226301,17.6030169 C145.226301,16.2283077 145.552572,14.9884779 146.205124,13.8834902 C146.857676,12.7785025 147.753833,11.917147 148.893624,11.299398 C150.033414,10.6816489 151.316747,10.372779 152.74366,10.372779 C154.083567,10.372779 155.301645,10.6555473 156.397932,11.2210922 C157.494219,11.786637 158.368625,12.6044897 159.021177,13.6746747 C159.673729,14.7448596 160,16.0107911 160,17.4725072 L149.611427,19.4823567 C149.907251,20.1784119 150.372731,20.7004455 151.007881,21.0484732 C151.643032,21.3965008 152.421732,21.570512 153.344005,21.570512 Z M152.74366,13.4528082 C151.716979,13.4528082 150.881725,13.7834294 150.237874,14.4446819 C149.594023,15.1059344 149.254701,16.0194933 149.219898,17.1853858 L156.058607,15.8541868 C155.867192,15.1233288 155.475666,14.5403912 154.884019,14.1053567 C154.292372,13.6703222 153.578927,13.4528082 152.74366,13.4528082 Z" id="boardme" fill="#FFFFFF"></path>
            <path d="M25.7874848,30.433145 L24.6477763,31.941543 C23.9818941,32.8228344 22.727662,32.9974581 21.8463705,32.3315759 C21.6991716,32.220356 21.5680695,32.0893036 21.4567939,31.9421467 L20.315732,30.433145 L4,30.433145 C1.790861,30.433145 2.705415e-16,28.642284 0,26.433145 L0,4 C-2.705415e-16,1.790861 1.790861,5.72492311e-14 4,5.68434189e-14 L26.433145,5.68434189e-14 C28.642284,5.4475497e-14 30.433145,1.790861 30.433145,4 L30.433145,26.433145 C30.433145,28.642284 28.642284,30.433145 26.433145,30.433145 L25.7874848,30.433145 Z M10.2448211,23.7210221 C10.5035253,23.8713027 10.7740199,24.0060207 11.0563059,24.1251766 C11.9053862,24.4835823 12.8120538,24.6627825 13.7763359,24.6627825 C14.7491515,24.6627825 15.6600858,24.487849 16.5091661,24.1379767 C17.3582464,23.7881044 18.0985138,23.2953039 18.7299906,22.6595604 C19.3614674,22.0238169 19.8606679,21.2622161 20.2276071,20.3747352 C20.5945463,19.4872543 20.7780132,18.5059199 20.7780132,17.4307027 C20.7780132,16.3810859 20.5945463,15.4146849 20.2276071,14.5314707 C19.8606679,13.6482565 19.3614674,12.8823891 18.7299906,12.2338453 C18.0985138,11.5853016 17.3582464,11.0797011 16.5091661,10.7170286 C15.6600858,10.3543561 14.7491515,10.1730226 13.7763359,10.1730226 C13.4605975,10.1730226 13.1363305,10.2050226 12.8035252,10.2690237 C12.4707199,10.3330247 12.1485862,10.4247581 11.8371145,10.5442267 C11.5256429,10.6636953 11.2355092,10.8172954 10.9667049,11.0050318 C10.6979006,11.1927681 10.4696337,11.4061017 10.2818974,11.6450388 L10.2818974,5.24496822 L10.2448211,5.24496822 L10.2448211,5.12241055 L6.62900188,5.12241055 L6.62900188,24.7080979 L10.2448211,24.7080979 L10.2448211,23.7210221 Z M17.2579743,17.4307027 C17.2579743,17.9597778 17.1662409,18.450445 16.9827713,18.9027189 C16.7993017,19.3549928 16.5497014,19.7475266 16.233963,20.0803319 C15.9182246,20.4131373 15.5491576,20.6755375 15.1267508,20.8675406 C14.7043441,21.0595437 14.2542103,21.1555438 13.7763359,21.1555438 C13.2984616,21.1555438 12.8483278,21.0595437 12.425921,20.8675406 C12.0035142,20.6755375 11.6344472,20.4131373 11.3187088,20.0803319 C11.0029704,19.7475266 10.7555035,19.3549928 10.5763006,18.9027189 C10.3970977,18.450445 10.3074976,17.9597778 10.3074976,17.4307027 C10.3074976,16.9528284 10.3970977,16.4898945 10.5763006,16.0418874 C10.7555035,15.5938802 11.0029704,15.1970798 11.3187088,14.8514742 C11.6344472,14.5058687 12.0035142,14.2285351 12.425921,14.019465 C12.8483278,13.810395 13.2984616,13.7058616 13.7763359,13.7058616 C14.2542103,13.7058616 14.7043441,13.7997283 15.1267508,13.9874647 C15.5491576,14.175201 15.9182246,14.435468 16.233963,14.7682733 C16.5497014,15.1010786 16.7993017,15.4957457 16.9827713,15.9522864 C17.1662409,16.408827 17.2579743,16.9016275 17.2579743,17.4307027 Z M22.2975518,25.6120527 C23.2960327,25.6120527 24.1054614,24.802624 24.1054614,23.8041431 C24.1054614,22.8056622 23.2960327,21.9962335 22.2975518,21.9962335 C21.2990709,21.9962335 20.4896422,22.8056622 20.4896422,23.8041431 C20.4896422,24.802624 21.2990709,25.6120527 22.2975518,25.6120527 Z" id="Combined-Shape" fill="#FFFFFF" fill-rule="nonzero"></path>
            <g id="Group" transform="translate(6.629002, 5.122411)"></g>
        </g>
    </g>
</svg>