<?xml version="1.0" encoding="UTF-8"?>
<svg width="12px" height="12px" viewBox="0 0 12 12" version="1.1" xmlns="http://www.w3.org/2000/svg" xmlns:xlink="http://www.w3.org/1999/xlink">
    <!-- Generator: Sketch 52.6 (67491) - http://www.bohemiancoding.com/sketch -->
    <title>dismiss-guide-icon</title>
    <desc>Created with Sketch.</desc>
    <g id="Guide-Templates" stroke="none" stroke-width="1" fill="none" fill-rule="evenodd">
        <g id="Dark-image-3" transform="translate(-634.000000, -228.000000)" fill="#7681A4">
            <g id="Group-6" transform="translate(64.000000, 163.000000)">
                <g id="Group">
                    <g id="Group-12" transform="translate(102.000000, 45.000000)">
                        <path d="M475.061266,26.0001251 L479.780117,21.2810774 C480.073294,20.9881382 480.073294,20.5128312 479.780117,20.219892 C479.48694,19.9267027 479.012153,19.9267027 478.718976,20.219892 L474.000125,24.9389397 L469.281024,20.219892 C468.987847,19.9267027 468.51306,19.9267027 468.219883,20.219892 C467.926706,20.5128312 467.926706,20.9881382 468.219883,21.2810774 L472.938984,26.0001251 L468.219883,30.7191728 C467.926706,31.012112 467.926706,31.487419 468.219883,31.7803581 C468.366471,31.9267027 468.558587,32 468.750453,32 C468.942319,32 469.134435,31.9267027 469.281024,31.780108 L474.000125,27.0610603 L478.718976,31.780108 C478.865565,31.9267027 479.057681,32 479.249547,32 C479.441413,32 479.633529,31.9267027 479.780117,31.780108 C480.073294,31.4871688 480.073294,31.0118618 479.780117,30.7189226 L475.061266,26.0001251 Z" id="dismiss-guide-icon"></path>
                    </g>
                </g>
            </g>
        </g>
    </g>
</svg>