<?xml version="1.0" encoding="UTF-8"?>
<svg width="11px" height="18px" viewBox="0 0 11 18" version="1.1" xmlns="http://www.w3.org/2000/svg" xmlns:xlink="http://www.w3.org/1999/xlink">
    <!-- Generator: Sketch 52.6 (67491) - http://www.bohemiancoding.com/sketch -->
    <title>facebook-logo</title>
    <desc>Created with Sketch.</desc>
    <g id="V4" stroke="none" stroke-width="1" fill="none" fill-rule="evenodd">
        <g id="Landing-Page" transform="translate(-1496.000000, -5257.000000)" fill="#F7F9FD">
            <g id="Group-25" transform="translate(0.000000, 4550.000000)">
                <g id="Group-17" transform="translate(297.000000, 705.000000)">
                    <g id="Group-15" transform="translate(1150.000000, 2.000000)">
                        <g id="facebook-logo" transform="translate(49.500000, 0.000000)">
                            <path d="M9.35624717,0.00371134021 L7.02787925,0 C4.41203774,0 2.72156604,1.72298969 2.72156604,4.3897732 L2.72156604,6.41375258 L0.380496226,6.41375258 C0.1782,6.41375258 0.0143830189,6.57668041 0.0143830189,6.77764948 L0.0143830189,9.71016495 C0.0143830189,9.91113402 0.178386792,10.0738763 0.380496226,10.0738763 L2.72156604,10.0738763 L2.72156604,17.4735464 C2.72156604,17.6745155 2.88538302,17.8372577 3.08767925,17.8372577 L6.14210943,17.8372577 C6.34440566,17.8372577 6.50822264,17.6743299 6.50822264,17.4735464 L6.50822264,10.0738763 L9.24547925,10.0738763 C9.44777547,10.0738763 9.61159245,9.91113402 9.61159245,9.71016495 L9.61271321,6.77764948 C9.61271321,6.68115464 9.57404717,6.58874227 9.50549434,6.52045361 C9.43694151,6.45216495 9.34354528,6.41375258 9.24641321,6.41375258 L6.50822264,6.41375258 L6.50822264,4.698 C6.50822264,3.87334021 6.70603585,3.45470103 7.78737736,3.45470103 L9.35587358,3.45414433 C9.55798302,3.45414433 9.7218,3.29121649 9.7218,3.09043299 L9.7218,0.36742268 C9.7218,0.166824742 9.55816981,0.00408247423 9.35624717,0.00371134021 Z" id="Path"></path>
                        </g>
                    </g>
                </g>
            </g>
        </g>
    </g>
</svg>