<?xml version="1.0" encoding="UTF-8"?>
<svg width="18px" height="18px" viewBox="0 0 18 18" version="1.1" xmlns="http://www.w3.org/2000/svg" xmlns:xlink="http://www.w3.org/1999/xlink">
    <!-- Generator: Sketch 52.6 (67491) - http://www.bohemiancoding.com/sketch -->
    <title>instagram-logo</title>
    <desc>Created with Sketch.</desc>
    <g id="V4" stroke="none" stroke-width="1" fill="none" fill-rule="evenodd">
        <g id="Landing-Page" transform="translate(-1582.000000, -5257.000000)" fill="#F7F9FD" fill-rule="nonzero">
            <g id="Group-25" transform="translate(0.000000, 4550.000000)">
                <g id="Group-17" transform="translate(297.000000, 705.000000)">
                    <g id="Group-15" transform="translate(1150.000000, 2.000000)">
                        <g id="instagram-logo" transform="translate(135.000000, 0.000000)">
                            <path d="M13.4870488,2.34479103e-13 C15.9594146,2.34479103e-13 17.9826585,2.0232439 17.9826585,4.49560976 L17.9826585,13.4872683 C17.9826585,15.9589756 15.9594146,17.982878 13.4870488,17.982878 L4.49582927,17.982878 C2.02346341,17.982878 0.000219512195,15.9589756 0.000219512195,13.4872683 L0.000219512195,4.49560976 C0.000219512195,2.0232439 2.02346341,2.34479103e-13 4.49582927,2.34479103e-13 L13.4870488,2.34479103e-13 Z M16.4840488,13.4872683 L16.4840488,4.49560976 C16.4840488,2.84303415 15.1401073,1.49860976 13.4870488,1.49860976 L4.49582927,1.49860976 C2.84347317,1.49860976 1.49882927,2.84303415 1.49882927,4.49560976 L1.49882927,13.4872683 C1.49882927,15.1394049 2.84347317,16.4842683 4.49582927,16.4842683 L13.4870488,16.4842683 C15.1401073,16.4842683 16.4840488,15.1394049 16.4840488,13.4872683 Z M13.8624146,5.24480488 C13.2417005,5.24480488 12.7385122,4.74161662 12.7385122,4.12090244 C12.7385122,3.50018826 13.2417005,2.997 13.8624146,2.997 C14.4831288,2.997 14.9863171,3.50018826 14.9863171,4.12090244 C14.9863171,4.74161662 14.4831288,5.24480488 13.8624146,5.24480488 Z M8.99143902,4.49560976 C11.474122,4.49560976 13.4870488,6.50805366 13.4870488,8.99121951 C13.4870488,11.4734634 11.474122,13.4872683 8.99143902,13.4872683 C6.50805366,13.4872683 4.49582927,11.4734634 4.49582927,8.99121951 C4.49582927,6.50805366 6.50805366,4.49560976 8.99143902,4.49560976 Z M8.99143902,11.9886585 C10.6465171,11.9886585 11.988439,10.6467366 11.988439,8.99121951 C11.988439,7.33570244 10.6465171,5.99421951 8.99143902,5.99421951 C7.33636098,5.99421951 5.99443902,7.33570244 5.99443902,8.99121951 C5.99443902,10.6467366 7.33636098,11.9886585 8.99143902,11.9886585 Z" id="Combined-Shape"></path>
                        </g>
                    </g>
                </g>
            </g>
        </g>
    </g>
</svg>