<?xml version="1.0" encoding="UTF-8"?>
<svg width="19px" height="18px" viewBox="0 0 19 18" version="1.1" xmlns="http://www.w3.org/2000/svg" xmlns:xlink="http://www.w3.org/1999/xlink">
    <!-- Generator: Sketch 52.6 (67491) - http://www.bohemiancoding.com/sketch -->
    <title>linkedin-logo</title>
    <desc>Created with Sketch.</desc>
    <g id="V4" stroke="none" stroke-width="1" fill="none" fill-rule="evenodd">
        <g id="Landing-Page" transform="translate(-1406.000000, -5255.000000)" fill="#FFFFFF" fill-rule="nonzero">
            <g id="Group-25" transform="translate(0.000000, 4550.000000)">
                <g id="Group-17" transform="translate(297.000000, 705.000000)">
                    <g id="linkedin-logo" transform="translate(1109.000000, 0.000000)">
                        <path d="M18.9610742,11.0090534 L18.9610742,17.9563981 L14.8971021,17.9563981 L14.8971021,11.4743447 C14.8971021,9.846 14.3092923,8.73471845 12.8382691,8.73471845 C11.7153295,8.73471845 11.0470673,9.48364078 10.7530742,10.2080971 C10.6458631,10.4670874 10.6182668,10.827568 10.6182668,11.1901019 L10.6182668,17.9563981 L6.55292807,17.9563981 C6.55292807,17.9563981 6.60767981,6.97792718 6.55292807,5.84047573 L10.6178701,5.84047573 L10.6178701,7.55785922 C10.6096265,7.57070388 10.5989142,7.5845534 10.5911555,7.59700485 L10.6178701,7.59700485 L10.6178701,7.55785922 C11.1579374,6.73348544 12.1224408,5.55583981 14.2812993,5.55583981 C16.9559791,5.55579612 18.9610742,7.28750971 18.9610742,11.0090534 Z M2.30041067,0 C0.909663573,0 0,0.904063107 0,2.09293689 C0,3.25590291 0.883345708,4.18740291 2.24645244,4.18740291 L2.27360789,4.18740291 C3.69129002,4.18740291 4.57296056,3.25607767 4.57296056,2.09293689 C4.54624594,0.904063107 3.69129002,0 2.30041067,0 Z M0.241445476,17.9563981 L4.3052413,17.9563981 L4.3052413,5.84047573 L0.241445476,5.84047573 L0.241445476,17.9563981 Z" id="LinkedIn"></path>
                    </g>
                </g>
            </g>
        </g>
    </g>
</svg>